<?xml version="1.0" encoding="utf-8"?><svg viewBox="0 0 27.059 25.132" xmlns="http://www.w3.org/2000/svg" xmlns:xlink="http://www.w3.org/1999/xlink"><style>:root>svg{display:none}:root>svg:target{display:block}</style><svg viewBox="0 0 27.059 25.132" id="icon-cart" xmlns="http://www.w3.org/2000/svg"><defs><clipPath id="aa" clipPathUnits="userSpaceOnUse"><path d="M0 18.849h20.294V0H0z"/></clipPath></defs><g clip-path="url(#aa)" transform="matrix(1.33333 0 0 -1.33333 0 25.132)"><path d="M17.017 7.284H3.277l-.81 2.836h15.36zM15.364 1.5H4.93L3.707 5.784h12.88zm4.18 10.12h-3.15l-3.407 6.814a.751.751 0 01-1.342-.67l3.07-6.144H5.58l3.07 6.143a.75.75 0 01-1.341.671L3.903 11.62H.75a.75.75 0 010-1.5h.158l.855-2.99a.736.736 0 01-.316-.596c0-.396.309-.71.696-.739L3.799 0h12.697l1.656 5.795a.744.744 0 01.698.74c0 .248-.13.458-.317.595l.855 2.99h.157a.75.75 0 010 1.5" fill="#231f20"/></g></svg><svg viewBox="0 0 23.466 23.465" id="icon-search" xmlns="http://www.w3.org/2000/svg"><defs><clipPath id="ba" clipPathUnits="userSpaceOnUse"><path d="M0 17.599h17.6V0H0z"/></clipPath></defs><g clip-path="url(#ba)" transform="matrix(1.33333 0 0 -1.33333 0 23.465)"><path d="M2.198 9.9a5.5 5.5 0 1011 0 5.5 5.5 0 00-5.5-5.5 5.499 5.499 0 00-5.5 5.5M17.27 1.87l-3.415 3.414A7.67 7.67 0 0115.4 9.9a7.698 7.698 0 01-7.7 7.698A7.697 7.697 0 010 9.9c0-4.253 3.445-7.7 7.698-7.7 1.734 0 3.326.58 4.613 1.546L15.728.33c.203-.202.418-.33.772-.33a1.1 1.1 0 011.1 1.1c0 .24-.062.498-.33.77" fill="#231f20"/></g></svg></svg>