<?xml version="1.0" encoding="utf-8"?><svg viewBox="0 0 1533.333 83.215" xmlns="http://www.w3.org/2000/svg" xmlns:xlink="http://www.w3.org/1999/xlink"><style>:root>svg{display:none}:root>svg:target{display:block}</style><svg viewBox="0 0 27.059 25.132" id="icon-cart" xmlns="http://www.w3.org/2000/svg"><defs><clipPath id="aa" clipPathUnits="userSpaceOnUse"><path d="M0 18.849h20.294V0H0z"/></clipPath></defs><g clip-path="url(#aa)" transform="matrix(1.33333 0 0 -1.33333 0 25.132)"><path d="M17.017 7.284H3.277l-.81 2.836h15.36zM15.364 1.5H4.93L3.707 5.784h12.88zm4.18 10.12h-3.15l-3.407 6.814a.751.751 0 01-1.342-.67l3.07-6.144H5.58l3.07 6.143a.75.75 0 01-1.341.671L3.903 11.62H.75a.75.75 0 010-1.5h.158l.855-2.99a.736.736 0 01-.316-.596c0-.396.309-.71.696-.739L3.799 0h12.697l1.656 5.795a.744.744 0 01.698.74c0 .248-.13.458-.317.595l.855 2.99h.157a.75.75 0 010 1.5" fill="#231f20"/></g></svg><svg viewBox="0 0 53.626 83.215" id="icon-lamp" xmlns="http://www.w3.org/2000/svg"><defs><clipPath id="ba" clipPathUnits="userSpaceOnUse"><path d="M0 62.411h40.219V0H0z"/></clipPath></defs><g clip-path="url(#ba)" transform="matrix(1.33333 0 0 -1.33333 0 83.215)"><path d="M15.178 24.453c-.286-.966-.245-2.19.027-3.639.494-2.634 1.686-6.04 2.358-9.67h5.062c.697 3.641 1.949 7.05 2.47 9.683.288 1.445.33 2.66.04 3.617-.273.9-.89 1.618-2.02 2.303h-5.997c-1.074-.679-1.674-1.39-1.94-2.294M27.01 4.458h-13.8c-1.293 0-2.3-.976-2.3-2.229V0h18.398v2.229c0 1.253-1.006 2.229-2.299 2.229m7.133 55.724H22.41c0 1.244-1.016 2.23-2.3 2.23-1.284 0-2.3-.986-2.3-2.23H6.072L0 34.665c.794.462 1.59.993 2.632.993 1.36 0 2.242-.818 2.924-1.376.682-.557 1.161-.849 1.447-.849.291 0 .768.288 1.451.836.681.55 1.563 1.358 2.915 1.358 1.348 0 2.236-.805 2.92-1.353.682-.549 1.16-.84 1.45-.84.146 0 .338.072.58.214.241.141.53.352.871.626.512.411 1.14.968 1.99 1.22.284.084.592.134.93.134 1.346 0 2.237-.805 2.92-1.354.682-.548 1.158-.84 1.45-.84.287.002.766.296 1.446.85.684.553 1.57 1.366 2.924 1.366 1.357 0 2.24-.817 2.92-1.37.342-.277.631-.49.872-.632.24-.143.431-.214.574-.214.288 0 .762.293 1.443.854.68.56 1.567 1.384 2.928 1.384 1.045 0 1.84-.533 2.632-.997zM23.523 8.916H16.66c-.657 0-1.15-.479-1.15-1.115 0-.635.493-1.114 1.15-1.114h6.9c.655 0 1.15.479 1.15 1.114 0 .636-.495 1.115-1.15 1.115zM20.11 33.4c-.147 0-.339-.074-.58-.213-.157-.094-.37-.261-.57-.41v-3.731h2.3v3.73c-.507.38-.91.624-1.15.624"/></g></svg><svg viewBox="0 0 23.466 23.465" id="icon-search" xmlns="http://www.w3.org/2000/svg"><defs><clipPath id="ca" clipPathUnits="userSpaceOnUse"><path d="M0 17.599h17.6V0H0z"/></clipPath></defs><g clip-path="url(#ca)" transform="matrix(1.33333 0 0 -1.33333 0 23.465)"><path d="M2.198 9.9a5.5 5.5 0 1011 0 5.5 5.5 0 00-5.5-5.5 5.499 5.499 0 00-5.5 5.5M17.27 1.87l-3.415 3.414A7.67 7.67 0 0115.4 9.9a7.698 7.698 0 01-7.7 7.698A7.697 7.697 0 010 9.9c0-4.253 3.445-7.7 7.698-7.7 1.734 0 3.326.58 4.613 1.546L15.728.33c.203-.202.418-.33.772-.33a1.1 1.1 0 011.1 1.1c0 .24-.062.498-.33.77" fill="#231f20"/></g></svg><svg viewBox="0 0 79.999 79.493" id="icon-toy-block" xmlns="http://www.w3.org/2000/svg"><defs><clipPath id="da" clipPathUnits="userSpaceOnUse"><path d="M0 59.62h59.999V0H0z"/></clipPath></defs><g clip-path="url(#da)" transform="matrix(1.33333 0 0 -1.33333 0 79.493)"><path d="M29.916 53.047c4.269 0 7.723 1.47 7.723 3.286 0 1.814-3.455 3.286-7.724 3.286-4.27 0-7.728-1.472-7.728-3.286 0-1.816 3.459-3.286 7.729-3.286m2.64-29.904V0L60 15.938v23.144zm5.147 13.873c0-1.817-3.46-3.287-7.728-3.287s-7.729 1.47-7.729 3.287v4.06h.025c.26-1.716 3.603-3.077 7.705-3.077 4.1 0 7.443 1.361 7.705 3.076h.022zm13.642 10.166V44.73c0-1.817-3.457-3.289-7.73-3.289-4.266 0-7.727 1.472-7.727 3.29v4.058h.025c.26-1.715 3.603-3.073 7.702-3.073 4.272 0 7.73 1.474 7.73 3.285 0 1.82-3.458 3.288-7.73 3.288-.339 0-.675-.01-1.002-.03l-4.975 2.89V52.06c0-1.817-3.454-3.29-7.723-3.29-2.682 0-5.044.583-6.432 1.467-.196.204-.44.401-.733.586-.362.382-.564.797-.564 1.237v2.986l-4.808-2.792c-.346.017-.696.033-1.053.033-4.267 0-7.727-1.469-7.727-3.288 0-1.81 3.46-3.285 7.727-3.285 4.1 0 7.445 1.358 7.704 3.073h.022V44.73c0-1.817-3.455-3.289-7.726-3.289-4.267 0-7.727 1.472-7.727 3.29v2.42l-5.952-3.452 27.531-15.986 27.351 15.882zM0 15.938L27.439.005V23.35L-.001 39.29z" fill="#231f20"/></g></svg><svg viewBox="0 0 1533.333 45.333" id="zig-zag" xmlns="http://www.w3.org/2000/svg"><defs><clipPath id="ea" clipPathUnits="userSpaceOnUse"><path d="M0 34h1150V0H0z"/></clipPath></defs><g clip-path="url(#ea)" transform="matrix(1.33333 0 0 -1.33333 0 45.333)"><path d="M1121.252 34c-14.375 0-14.375-14-28.749-14-14.374 0-14.374 14-28.748 14s-14.374-14-28.748-14c-14.375 0-14.375 14-28.75 14-14.374 0-14.374-14-28.748-14s-14.374 14-28.748 14-14.374-14-28.749-14c-14.375 0-14.375 14-28.749 14-14.374 0-14.374-14-28.749-14-14.375 0-14.375 14-28.75 14-14.371 0-14.371-14-28.743-14-14.375 0-14.375 14-28.75 14-14.373 0-14.373-14-28.745-14-14.374 0-14.374 14-28.747 14s-14.373-14-28.747-14c-14.372 0-14.372 14-28.745 14-14.374 0-14.374-14-28.748-14-14.375 0-14.375 14-28.751 14-14.374 0-14.374-14-28.748-14s-14.374 14-28.748 14-14.374-14-28.748-14-14.374 14-28.748 14c-14.375 0-14.375-14-28.75-14-14.376 0-14.376 14-28.752 14-14.375 0-14.375-14-28.75-14-14.376 0-14.376 14-28.752 14-14.375 0-14.375-14-28.75-14-14.376 0-14.376 14-28.751 14-14.376 0-14.376-14-28.752-14s-14.376 14-28.753 14c-14.373 0-14.373-14-28.747-14-14.375 0-14.375 14-28.75 14s-14.375-14-28.751-14c-14.377 0-14.377 14-28.754 14s-14.377-14-28.755-14c-14.378 0-14.378 14-28.756 14-14.377 0-14.377-14-28.755-14-14.379 0-14.379 14-28.759 14C14.38 34 14.38 20 0 20V0h1150v20c-14.374 0-14.374 14-28.748 14" fill="#fff"/></g></svg></svg>