<?xml version="1.0" encoding="utf-8"?><svg viewBox="0 0 1150 260.433" xmlns="http://www.w3.org/2000/svg" xmlns:xlink="http://www.w3.org/1999/xlink"><style>:root>svg{display:none}:root>svg:target{display:block}</style><svg viewBox="0 0 66.667 34.671" id="arrow-left" xmlns="http://www.w3.org/2000/svg"><path d="M17.34 0L0 17.332l.004.002L0 17.34l17.34 17.332 3.77-3.771-10.895-10.899h56.452V14.67H10.212L21.111 3.772z"/></svg><svg viewBox="0 0 66.667 34.671" id="arrow-right" xmlns="http://www.w3.org/2000/svg"><path d="M49.327 0l-3.772 3.772L56.454 14.67H0v5.332h56.45L45.555 30.901l3.772 3.77 17.34-17.331-.005-.006.005-.002z"/></svg><svg viewBox="0 0 62.24 108.922" id="flag" xmlns="http://www.w3.org/2000/svg"><path d="M0 108.922h5.072V0H0zm10.373-51.868L62.24 31.119 10.373 5.187z" fill="#63d1bb"/><path d="M0 108.922h5.072V0H0z" fill="#231f20"/></svg><svg viewBox="0 0 135.487 45.408" id="footer-logo" xmlns="http://www.w3.org/2000/svg"><defs><clipPath id="da" clipPathUnits="userSpaceOnUse"><path d="M0 34.056h101.615V0H0z"/></clipPath></defs><g clip-path="url(#da)" transform="matrix(1.33333 0 0 -1.33333 0 45.408)"><path d="M19.135 12.56c-.083 2.683-.51 5.347-.475 8.035.028 2.175.389 4.41-.36 6.495.047.237.096.473.14.71.194 1.045-3.27.492-3.813-.464-.344-.28-.52-.614-.375-.955.037-.087.07-.174.102-.261-.656-3.204-1.57-6.306-2.621-9.412-.403-1.188-.89-2.35-1.298-3.533-.582 1.104-1.17 2.194-1.643 3.377-1.373 3.433-2.612 6.902-4.287 10.206.19 1.529-3.203 1.368-3.872-.031-.81-1.694-.705-3.404-.44-5.215.3-2.042.354-4.05.379-6.111.047-3.976.358-7.944.417-11.92-.354-.394-.461-.88-.091-1.374.162-.216.362-.382.57-.55.905-.723 3.5-.106 3.497 1.273-.015 4.122-.312 8.236-.421 12.357-.011.403-.017.807-.024 1.21l.172-.434C5.332 14.36 6 12.8 6.877 11.31 7.744 9.831 8.18 8.245 8.68 6.632c-.19-.217-.303-.462-.233-.708-.04-.179.07-.292.25-.36.64-.548 1.842-.275 2.51.007.287.121.56.26.826.424.346.211.884.678.729 1.158-.03.093-.058.186-.086.28.469 1.27.709 2.588.965 3.93.272 1.427.782 2.78 1.295 4.132.052-.619.106-1.238.156-1.855.204-2.554.033-5.072.007-7.627-.008-.847.054-1.633.219-2.46.068-.344.367-1.808.28-1.888-.61-.564-.432-1.256.386-1.436.915-.2 2.08.105 2.77.742 1.198 1.107.63 2.845.36 4.241-.453 2.342.094 4.964.02 7.348m8.365-.675c-.074 1.988-.765 3.862-.774 5.872-.011 2.305.181 4.593-.155 6.886-.106.725-4.056-.1-3.917-1.05.308-2.11.197-4.229.159-6.354-.037-2.044.468-3.897.73-5.904.269-2.054-.084-4.157.15-6.213.109-.962.75-2.743.089-3.58-.42-.532 1.469-.342 1.553-.326.769.141 1.793.391 2.304 1.038.653.828.196 2.425.053 3.357-.317 2.06-.115 4.195-.192 6.274m16.329 3.32c-2.062 2.784-5.889.78-8.56 1.54-1.378.392-1.396 2.27-1.393 3.396.004 1.426-.113 2.732-.273 4.146-.118 1.052-.024 2.12.746 2.904.142.144.86.336.81.339.354.06.676.075 1.067.092 1.55.067 4.613-.231 4.02-2.483-.267-1.01 3.596-.431 3.877.637 1.213 4.597-7.284 3.714-9.686 3.077-2.21-.585-4.649-1.844-4.776-4.397-.06-1.22.273-2.38.325-3.587.061-1.39-.198-2.776.29-4.118 1.081-2.982 5.52-1.576 7.777-1.745 3.845-.287 2.696-5.468 2.747-7.883.028-1.288 1.181-3.43.211-4.507-.595-.662-1.982-.7-2.792-.768-.813-.068-2.2-.312-2.742.46-.993 1.419.091 3.8-.12 5.426-.12.924-4.067.095-3.918-1.05C31.781 4.057 30.04.539 33.84.088c2.442-.29 5.192.16 7.5.928 1.196.397 2.307.942 3.243 1.793 1.035.94.695 2.348.417 3.547-.676 2.918.732 6.279-1.172 8.849m17.327.189c-.122 3.777-.69 7.513-.706 11.297-.008 1.97-3.963 1.305-3.957-.343.016-3.608.497-7.166.683-10.764l.012-.22c-1.949.017-3.899-.178-5.852-.246.201 4.633-.612 9.227-.435 13.857.022.582-3.873.09-3.917-1.05-.17-4.474.587-8.914.453-13.391-.064-2.136-.245-4.264-.26-6.402-.007-1.094.172-2.182.33-3.262.145-1 .483-2.331.181-3.32-.237-.771 3.56-.29 3.862.696.544 1.778-.222 4.038-.405 5.838-.175 1.725-.039 3.499.083 5.248 2.03.13 4.06.298 6.08.012.09-1.378.196-2.754.322-4.134.106-1.157.18-2.314.196-3.475.016-1.02.142-2.496-.22-3.461-.773-2.057 3.15-1.89 3.722-.364.703 1.87.503 4.198.383 6.163-.149 2.444-.477 4.874-.555 7.32m16.932-4.473c-.94 2.757-2.373 5.176-3.616 7.796 1 1.95 2.017 3.9 2.93 5.89.832 1.806 1.448 3.817 3.08 5.091.575.447.55.895-.254.951-.875.061-2.064-.192-2.77-.742-1.485-1.158-2.426-2.563-3.2-4.268a161.85 161.85 0 00-2.914-6.075c-.074-.147-.15-.295-.223-.443-.491-.315-.785-.762-.64-1.266-.79-1.564-1.6-3.117-2.498-4.61-.3 5.533-.955 11.06-1.15 16.6-.045 1.27-3.972.48-3.917-1.05.242-6.868 1.218-13.719 1.286-20.587-.016-.017-.031-.034-.048-.05-.301-.309-.19-.494.052-.602a60.763 60.763 0 00-.21-5.255c-.471-.745.464-1.138 1.085-1.138h.096c.74 0 2.626.35 2.719 1.364.19 2.1.25 4.196.232 6.291 1.59 1.715 2.889 3.63 4.055 5.635.759-1.48 1.482-2.972 1.988-4.582.86-2.74 2.3-5.26 3.13-8.014.546-1.806 4.458-.738 3.918 1.05-.83 2.751-2.205 5.295-3.131 8.013m8.885 4.786c-.103 1.245-.217 2.49-.303 3.743-.16 2.331.117 5.583 2.29 7 .58.378 1.675.314 2.354.437.97.175 1.956.388 2.829-.19 1.21-.802.913-3.657.912-4.869-.003-2.006.207-4.002.309-6.004a13.757 13.757 0 00-1.683-.076c-2.286.054-4.543.414-6.708-.04m14.619-.152c-.21.832-1.372.85-2.272.77-.012.336-.02.672-.036 1.006-.125 2.662-.165 5.38-.392 8.032-.21 2.458-1.585 3.338-3.971 3.247-2.416-.092-5.23-.528-7.483-1.404-2.607-1.013-4.058-2.934-4.558-5.68-.55-3.014.239-6.219.373-9.247.154-3.503.066-7.013.062-10.518 0-.574 3.916-.032 3.917 1.05.003 2.775.043 5.55 0 8.325a50.813 50.813 0 01-.102 2.444c1.369.593 3.687-.012 5.05-.14 1.108-.106 2.169.165 3.245.29.02-2.312.107-4.634.202-6.944.049-1.184.476-3.53-.354-4.51-.436-.516 1.48-.343 1.555-.33.793.146 1.76.401 2.303 1.04.949 1.12.456 3.79.4 5.127-.077 1.91-.1 3.823-.14 5.737 1.153.15 2.415.856 2.2 1.705M24.108 27.355a3.16 3.16 0 011.477.524l.256.217c.52.335.972.827.728 1.361-.503 1.105-.422 2.231-.415 3.414.006.958-.963 1.246-1.781 1.174-.723-.064-2.168-.58-2.175-1.52-.006-.993-.071-2.016.109-2.992-.047-.113-.074-.239-.104-.356-.055-.212.016-.42.142-.59 0-.044.003-.089.003-.134l.014-.335a.905.905 0 01.429-.53c.387-.233.878-.275 1.317-.233"/></g></svg><svg viewBox="0 0 205.845 260.433" id="html-academy-logo" xmlns="http://www.w3.org/2000/svg"><defs><clipPath id="ea" clipPathUnits="userSpaceOnUse"><path d="M0 195.325h154.384V0H0z"/></clipPath></defs><path d="M191.803 93.807l-89.36-52.677v-.014l-.01.007-.012-.007v.014L14.043 93.746V23.438l88.881-9.319 88.879 9.319zm-.072 9.323l-24.315 14.325-11.225 6.613-53.532-31.845-.088 9.268 45.756 27.21-.406.24-.985.58-6.501 3.829-37.776-22.472-.088 9.268 29.816 17.73-7.035 4.706-.17.102-22.523-13.268-.088 9.267 14.778 8.704-15.054 9.039-88.059-52.346 88.185-53.006v.01zm.072 88.078l-88.88 52.884-88.88-52.884v-76.82l88.498 52.674.148 9.546-60.712-36.133-.089 9.268 60.953 36.633.151 9.8-60.933-36.248-.088 9.267 60.952 36.633 61.536-36.82v-9.31l-.076.045V129.47l27.42-16.375zM103.996.782L102.92.67.667 11.39v187.424l102.256 60.844 102.256-60.844V11.39z"/><g clip-path="url(#ea)" transform="matrix(1.33333 0 0 -1.33333 0 260.433)"><path d="M143.852 124.97l-67.02 39.508v.01l-.008-.005-.008.005v-.01l-66.284-39.462v52.73l66.661 6.99 66.66-6.99zm-.054-6.992l-18.236-10.744-8.419-4.96-40.149 23.884-.066-6.951L111.245 98.8l-.304-.18-.739-.435-4.876-2.872-28.332 16.854-.066-6.951L99.29 91.918l-5.276-3.53-.128-.076-16.892 9.95-.066-6.95 11.084-6.527-11.29-6.78-66.045 39.26 66.14 39.755v-.007zm.054-66.06l-66.66-39.662-66.66 39.663v57.615l66.374-39.505.111-7.16-45.534 27.1-.067-6.951 45.715-27.475.113-7.35-45.7 27.186-.066-6.95 45.714-27.475 46.152 27.616v6.982l-.057-.034v22.705l20.565 12.28zm-65.855 142.82l-.807.085-76.69-8.04V46.215L77.192.582l76.692 45.633v140.568z"/></g></svg><svg viewBox="0 0 27.059 25.132" id="icon-cart" xmlns="http://www.w3.org/2000/svg"><defs><clipPath id="fa" clipPathUnits="userSpaceOnUse"><path d="M0 18.849h20.294V0H0z"/></clipPath></defs><g clip-path="url(#fa)" transform="matrix(1.33333 0 0 -1.33333 0 25.132)"><path d="M17.017 7.284H3.277l-.81 2.836h15.36zM15.364 1.5H4.93L3.707 5.784h12.88zm4.18 10.12h-3.15l-3.407 6.814a.751.751 0 01-1.342-.67l3.07-6.144H5.58l3.07 6.143a.75.75 0 01-1.341.671L3.903 11.62H.75a.75.75 0 010-1.5h.158l.855-2.99a.736.736 0 01-.316-.596c0-.396.309-.71.696-.739L3.799 0h12.697l1.656 5.795a.744.744 0 01.698.74c0 .248-.13.458-.317.595l.855 2.99h.157a.75.75 0 010 1.5"/></g></svg><svg viewBox="0 0 20.514 20.512" id="icon-cross" xmlns="http://www.w3.org/2000/svg"><path d="M20.513 1.414L19.099 0l-8.843 8.842L1.414 0 0 1.414l8.842 8.842L0 19.098l1.414 1.414 8.842-8.842 8.843 8.842 1.414-1.414-8.842-8.842z"/></svg><svg viewBox="0 0 42.63 49.734" id="icon-feature-flower" xmlns="http://www.w3.org/2000/svg"><defs><clipPath id="ha" clipPathUnits="userSpaceOnUse"><path d="M0 37.301h31.972V0H0z"/></clipPath></defs><g clip-path="url(#ha)" transform="matrix(1.33333 0 0 -1.33333 0 49.734)"><path d="M0 15.986C0 7.16 7.158 0 15.986 0c0 8.828-7.158 15.986-15.986 15.986m15.986 13.321a4.441 4.441 0 000-8.88 4.443 4.443 0 00-4.441 4.44c0 2.451 1.99 4.44 4.441 4.44M4.627 20.87a4.443 4.443 0 014.44-4.44c.933 0 1.804.293 2.514.782l-.036-.337a4.443 4.443 0 014.441-4.442c2.451 0 4.44 1.99 4.44 4.442l-.036.337a4.397 4.397 0 012.514-.783 4.443 4.443 0 014.44 4.441 4.418 4.418 0 01-2.54 3.997c1.492.71 2.54 2.23 2.54 3.996a4.442 4.442 0 01-6.954 3.66l.036.337a4.441 4.441 0 01-8.881 0l.036-.337a4.442 4.442 0 01-6.954-3.66 4.419 4.419 0 012.54-3.996 4.42 4.42 0 01-2.54-3.997M15.986 0c8.827 0 15.986 7.16 15.986 15.986-8.828 0-15.986-7.158-15.986-15.986" fill="#63d1bb"/></g></svg><svg viewBox="0 0 43.555 43.315" id="icon-feature-gift" xmlns="http://www.w3.org/2000/svg"><defs><clipPath id="ia" clipPathUnits="userSpaceOnUse"><path d="M0 32.486h32.666V0H0z"/></clipPath></defs><g clip-path="url(#ia)" transform="matrix(1.33333 0 0 -1.33333 0 43.315)"><path d="M17.271 0h12.506v13.91H17.271zm1.981 27.586c.557.797 1.21 1.466 1.887 1.916.679.451 1.362.683 2.047.683h.005c.575 0 1.118-.22 1.495-.55.377-.336.571-.739.573-1.171-.004-.512-.273-1.259-1.467-2.132-1.138-.825-3.101-1.673-6.127-2.265a10.57 10.57 0 001.587 3.519M8.715 25.959c-.622.391-1 .785-1.22 1.135-.22.353-.294.662-.296.963-.004.504.248 1.042.692 1.461.436.415 1.028.667 1.562.667h.013c.684 0 1.366-.232 2.046-.683 1.017-.671 1.974-1.85 2.644-3.187.342-.675.61-1.389.789-2.086-3.082.32-5.078 1-6.23 1.73m22.362-2.339h-7.335c.522.267.985.549 1.397.845 1.588 1.133 2.424 2.57 2.42 3.999.002 1.169-.556 2.202-1.36 2.901a4.582 4.582 0 01-3.015 1.121c-1.22.001-2.352-.421-3.321-1.069-1.459-.979-2.606-2.451-3.424-4.067-.039-.079-.078-.158-.115-.237a12.944 12.944 0 01-1.041 1.792c-.691.986-1.523 1.861-2.497 2.511-.97.647-2.102 1.069-3.322 1.069-1.213-.004-2.323-.513-3.155-1.295-.829-.783-1.411-1.884-1.413-3.134a4.095 4.095 0 01.65-2.188c.552-.872 1.424-1.628 2.633-2.248H1.591A1.591 1.591 0 010 22.03v-5.897h15.396v7.488h1.874v-7.488h15.396v5.897c.002.879-.71 1.59-1.589 1.59M2.895 0h12.504v13.91H2.895z" fill="#63d1bb"/></g></svg><svg viewBox="0 0 44.067 37.143" id="icon-feature-heart" xmlns="http://www.w3.org/2000/svg"><defs><clipPath id="ja" clipPathUnits="userSpaceOnUse"><path d="M0 27.857h33.05V0H0z"/></clipPath></defs><g clip-path="url(#ja)" transform="matrix(1.33333 0 0 -1.33333 0 37.143)"><path d="M33.05 19.121a8.736 8.736 0 01-8.736 8.736 8.726 8.726 0 01-7.789-4.793 8.728 8.728 0 01-7.789 4.793A8.736 8.736 0 010 19.121C0 9.994 14.656.001 16.525.001c1.87 0 16.525 9.95 16.525 19.12" fill="#63d1bb"/></g></svg><svg viewBox="0 0 62.1 36.442" id="icon-feature-money" xmlns="http://www.w3.org/2000/svg"><defs><clipPath id="ka" clipPathUnits="userSpaceOnUse"><path d="M0 27.332h46.575V0H0z"/></clipPath></defs><g clip-path="url(#ka)" transform="matrix(1.33333 0 0 -1.33333 0 36.442)" fill="#63d1bb"><path d="M3.023 24.615h40.202V2.382H3.023zm39.647 2.717H3.904A3.905 3.905 0 010 23.427V3.905A3.905 3.905 0 013.904 0H42.67a3.906 3.906 0 013.905 3.905v19.522a3.906 3.906 0 01-3.905 3.905"/><path d="M23.288 18.813a5.315 5.315 0 100-10.63 5.315 5.315 0 000 10.63M6.928 6.287h32.395V20.71H6.928z"/></g></svg><svg viewBox="0 0 72.208 30.911" id="icon-feature-rocket" xmlns="http://www.w3.org/2000/svg"><defs><clipPath id="la" clipPathUnits="userSpaceOnUse"><path d="M0 23.183h54.156V0H0z"/></clipPath></defs><g clip-path="url(#la)" transform="matrix(1.33333 0 0 -1.33333 0 30.91)"><path d="M40.312 17.472c-3.647.97-7.84 1.667-12.36 1.666a46.394 46.394 0 01-7.71-.623l-6.785 4.668-13.456-.005 5.811-6.184h8.447C9.68 15.396 7.5 13.479 7.5 13.479l.002-3.777s2.314-1.912 6.931-3.517L5.81 6.19 0 .002 13.454 0l6.816 4.693a44.268 44.268 0 017.681-.65c4.522.002 8.712.699 12.36 1.668-1.175 1.776-1.914 3.743-1.917 5.877.003 2.139.738 4.11 1.917 5.884m3.423-1.034c-1.284-1.605-1.969-3.25-1.965-4.84-.007-1.598.677-3.239 1.968-4.848 6.4 2.163 10.42 4.841 10.42 4.841s-4.02 2.68-10.423 4.847" fill="#63d1bb"/></g></svg><svg viewBox="0 0 45.831 45.83" id="icon-feature-skein" xmlns="http://www.w3.org/2000/svg"><defs><clipPath id="ma" clipPathUnits="userSpaceOnUse"><path d="M0 34.373h34.373V0H0z"/></clipPath></defs><g clip-path="url(#ma)" transform="matrix(1.33333 0 0 -1.33333 0 45.83)"><path d="M.286 20.304a17.244 17.244 0 01.008-6.301l4.12 3.21zm24.117 12.483C19.62 34.995 13.96 34.931 9.15 32.38l7.513-5.625zm9.498-11.589l-4.81-3.748 4.935-3.695a17.249 17.249 0 01-.125 7.443M9.209 1.959c4.844-2.534 10.724-2.65 15.73-.113l-8.096 6.061zM7.914 19.94l-6.233 4.666a17.24 17.24 0 01-.825-2.057l5.308-3.973zM18.593 9.27l8.336-6.241a17.16 17.16 0 011.74 1.37l-8.326 6.235zm-7.18 13.396l-7.41 5.549a16.92 16.92 0 01-1.27-1.723l6.93-5.19zm10.68-10.669l8.092-6.059c.47.544.904 1.113 1.297 1.702l-7.64 5.72zm-7.18 13.395L7.197 31.17a16.357 16.357 0 01-1.71-1.393l7.676-5.747zm10.679-10.668l6.972-5.221c.33.662.615 1.34.855 2.033l-6.077 4.55zm.856 16.943L.88 11.746c.233-.698.512-1.386.84-2.058L28.24 30.35a16.99 16.99 0 01-1.792 1.317m4.295-3.918c-.3.386-.614.754-.939 1.106L2.786 7.806a16.905 16.905 0 011.278-1.717l27.091 21.107c-.134.186-.269.371-.412.553m1.555-2.375L5.552 4.534a17.162 17.162 0 011.707-1.382L33.222 23.38c-.263.678-.57 1.344-.924 1.994" fill="#63d1bb"/></g></svg><svg viewBox="0 0 53.626 83.215" id="icon-lamp" xmlns="http://www.w3.org/2000/svg"><defs><clipPath id="na" clipPathUnits="userSpaceOnUse"><path d="M0 62.411h40.219V0H0z"/></clipPath></defs><g clip-path="url(#na)" transform="matrix(1.33333 0 0 -1.33333 0 83.215)"><path d="M15.178 24.453c-.286-.966-.245-2.19.027-3.639.494-2.634 1.686-6.04 2.358-9.67h5.062c.697 3.641 1.949 7.05 2.47 9.683.288 1.445.33 2.66.04 3.617-.273.9-.89 1.618-2.02 2.303h-5.997c-1.074-.679-1.674-1.39-1.94-2.294M27.01 4.458h-13.8c-1.293 0-2.3-.976-2.3-2.229V0h18.398v2.229c0 1.253-1.006 2.229-2.299 2.229m7.133 55.724H22.41c0 1.244-1.016 2.23-2.3 2.23-1.284 0-2.3-.986-2.3-2.23H6.072L0 34.665c.794.462 1.59.993 2.632.993 1.36 0 2.242-.818 2.924-1.376.682-.557 1.161-.849 1.447-.849.291 0 .768.288 1.451.836.681.55 1.563 1.358 2.915 1.358 1.348 0 2.236-.805 2.92-1.353.682-.549 1.16-.84 1.45-.84.146 0 .338.072.58.214.241.141.53.352.871.626.512.411 1.14.968 1.99 1.22.284.084.592.134.93.134 1.346 0 2.237-.805 2.92-1.354.682-.548 1.158-.84 1.45-.84.287.002.766.296 1.446.85.684.553 1.57 1.366 2.924 1.366 1.357 0 2.24-.817 2.92-1.37.342-.277.631-.49.872-.632.24-.143.431-.214.574-.214.288 0 .762.293 1.443.854.68.56 1.567 1.384 2.928 1.384 1.045 0 1.84-.533 2.632-.997zM23.523 8.916H16.66c-.657 0-1.15-.479-1.15-1.115 0-.635.493-1.114 1.15-1.114h6.9c.655 0 1.15.479 1.15 1.114 0 .636-.495 1.115-1.15 1.115zM20.11 33.4c-.147 0-.339-.074-.58-.213-.157-.094-.37-.261-.57-.41v-3.731h2.3v3.73c-.507.38-.91.624-1.15.624" fill="#149080"/></g></svg><svg viewBox="0 0 42.667 28" id="icon-mail" xmlns="http://www.w3.org/2000/svg"><defs><clipPath id="oa" clipPathUnits="userSpaceOnUse"><path d="M0 21h32V0H0z"/></clipPath></defs><g clip-path="url(#oa)" transform="matrix(1.33333 0 0 -1.33333 0 28)"><path d="M17.2 7.398a1.98 1.98 0 00-1.2-.4c-.436 0-.85.138-1.2.4L10.665 10.5l-.833.625L2 17c0 1.103.897 2 2 2h24c1.101 0 2-.897 2-2zM30 5.25l-7 5.25 7 5.25zM30 4c0-1.104-.899-2-2-2H4c-1.103 0-2 .896-2 2l7.832 5.875L14.2 6.597a3.007 3.007 0 013.599 0l4.37 3.278zM2 15.75l7-5.25-7-5.25zM28 21H4a4 4 0 01-4-4V4a4 4 0 014-4h24a4 4 0 014 4v13a4 4 0 01-4 4"/></g></svg><svg viewBox="0 0 134.237 102.522" id="icon-play" xmlns="http://www.w3.org/2000/svg"><defs><clipPath id="pa" clipPathUnits="userSpaceOnUse"><path d="M0 76.892h100.678V0H0z"/></clipPath></defs><g clip-path="url(#pa)" transform="matrix(1.33333 0 0 -1.33333 0 102.522)"><path d="M96.956 58.742s-.92 7.008-3.785 10.078c-3.632 4.041-7.674 4.067-9.54 4.297-13.327 1.023-33.304 1.023-33.304 1.023h-.05s-19.979 0-33.305-1.023c-1.868-.229-5.909-.256-9.54-4.297-2.84-3.096-3.787-10.078-3.787-10.078s-.895-8.21-.895-16.422v-7.699c0-8.21.947-16.42.947-16.42s.921-7.01 3.785-10.079c3.632-4.04 8.364-3.913 10.487-4.349 7.622-.767 32.356-1.022 32.356-1.022s20.003.025 33.328 1.048c1.867.23 5.908.256 9.54 4.298 2.841 3.07 3.786 10.078 3.786 10.078s.947 8.21.947 16.421v7.7c-.024 8.235-.97 16.446-.97 16.446" fill="#63d1bb"/><path d="M18.371 6.498c7.477-.729 31.216-.989 31.968-.997.657.001 20.135.049 33.047 1.036.177.022.371.041.58.063 1.836.185 4.607.467 7.185 3.335l.027.028c1.825 1.974 2.852 6.929 3.075 8.553.058.513.926 8.357.926 16.079v7.699c-.024 7.76-.897 15.627-.952 16.109-.32 2.382-1.433 6.789-3.065 8.539l-.035.038c-2.577 2.869-5.352 3.15-7.187 3.336-.209.022-.4.041-.58.063-13.065.997-32.833 1.011-33.032 1.011h-.05c-.199 0-19.969-.014-33.034-1.011-.177-.022-.37-.041-.58-.063-1.835-.186-4.607-.467-7.187-3.336l-.018-.021c-1.828-1.992-2.856-6.924-3.082-8.552-.062-.591-.875-8.399-.875-16.089v-7.699c0-7.749.871-15.598.926-16.083.32-2.381 1.433-6.789 3.066-8.539l.035-.039c2.321-2.584 5.303-2.975 7.48-3.259.48-.061.938-.121 1.362-.201M50.314.001H50.3c-1.015.011-24.947.267-32.604 1.037l-.14.014-.137.028c-.272.056-.668.107-1.126.167-2.503.328-7.159.938-10.839 5.02C2.1 9.882 1.076 17.037.97 17.842l-.005.043C.926 18.227 0 26.349 0 34.621v7.699c0 8.266.875 16.378.912 16.72l.01.071c.107.802 1.154 7.928 4.472 11.557 3.997 4.439 8.532 4.899 10.712 5.121.193.021.37.037.53.059l.126.012c13.277 1.02 33.312 1.032 33.514 1.032h.051c.201 0 20.235-.013 33.514-1.032l.126-.012c.16-.022.337-.038.53-.059 2.178-.221 6.71-.682 10.702-5.111 3.355-3.617 4.378-10.772 4.484-11.577l.004-.043c.04-.343.965-8.459.991-16.753v-7.708c0-8.274-.926-16.396-.965-16.737l-.007-.052c-.108-.806-1.156-7.954-4.479-11.563C91.233 1.81 86.701 1.35 84.52 1.128c-.192-.02-.37-.037-.53-.057l-.126-.012C70.59.038 50.531.001 50.33 0z" fill="#fff"/><path d="M38.434 56.313v-35.71L68.18 38.46z" fill="#fff"/></g></svg><svg viewBox="0 0 23.466 23.465" id="icon-search" xmlns="http://www.w3.org/2000/svg"><defs><clipPath id="qa" clipPathUnits="userSpaceOnUse"><path d="M0 17.599h17.6V0H0z"/></clipPath></defs><g clip-path="url(#qa)" transform="matrix(1.33333 0 0 -1.33333 0 23.465)"><path d="M2.198 9.9a5.5 5.5 0 1011 0 5.5 5.5 0 00-5.5-5.5 5.499 5.499 0 00-5.5 5.5M17.27 1.87l-3.415 3.414A7.67 7.67 0 0115.4 9.9a7.698 7.698 0 01-7.7 7.698A7.697 7.697 0 010 9.9c0-4.253 3.445-7.7 7.698-7.7 1.734 0 3.326.58 4.613 1.546L15.728.33c.203-.202.418-.33.772-.33a1.1 1.1 0 011.1 1.1c0 .24-.062.498-.33.77"/></g></svg><svg viewBox="0 0 33.105 32.443" id="icon-tel" xmlns="http://www.w3.org/2000/svg"><defs><clipPath id="ra" clipPathUnits="userSpaceOnUse"><path d="M0 24.333h24.829V0H0z"/></clipPath></defs><g clip-path="url(#ra)" transform="matrix(1.33333 0 0 -1.33333 0 32.443)"><path d="M17.32 0h-1.114C11.302.58 7.709 2.857 5.095 5.772 2.473 8.695.402 12.458 0 17.516v1.358c.09.92.544 1.549 1.067 2.085.65.666 1.63 1.522 2.522 1.554.659.022 1.78-.451 2.232-1.066.388-.53.595-1.591.775-2.379.185-.797.6-1.949.485-2.716-.176-1.196-1.764-1.704-2.231-2.572 1.55-3.721 4.089-6.456 7.472-8.345.847.464 1.595 1.864 2.767 1.891.427.012.97-.209 1.406-.34.476-.142.89-.326 1.31-.484.705-.266 1.957-.621 2.378-1.213.433-.61.68-1.608.58-2.231C20.572 1.824 18.539.455 17.322 0m-4.793 22.805c5.949 0 10.77-4.822 10.77-10.771h1.53c0 6.792-5.506 12.299-12.3 12.299z"/><path d="M12.529 15.005v-1.552a1.42 1.42 0 001.42-1.42h1.554a2.972 2.972 0 01-2.974 2.972m0 3.081a6.054 6.054 0 006.056-6.054h1.588a7.642 7.642 0 01-7.644 7.641z"/></g></svg><svg viewBox="0 0 79.999 79.493" id="icon-toy-block" xmlns="http://www.w3.org/2000/svg"><defs><clipPath id="sa" clipPathUnits="userSpaceOnUse"><path d="M0 59.62h59.999V0H0z"/></clipPath></defs><g clip-path="url(#sa)" transform="matrix(1.33333 0 0 -1.33333 0 79.493)"><path d="M29.916 53.047c4.269 0 7.723 1.47 7.723 3.286 0 1.814-3.455 3.286-7.724 3.286-4.27 0-7.728-1.472-7.728-3.286 0-1.816 3.459-3.286 7.729-3.286m2.64-29.904V0L60 15.938v23.144zm5.147 13.873c0-1.817-3.46-3.287-7.728-3.287s-7.729 1.47-7.729 3.287v4.06h.025c.26-1.716 3.603-3.077 7.705-3.077 4.1 0 7.443 1.361 7.705 3.076h.022zm13.642 10.166V44.73c0-1.817-3.457-3.289-7.73-3.289-4.266 0-7.727 1.472-7.727 3.29v4.058h.025c.26-1.715 3.603-3.073 7.702-3.073 4.272 0 7.73 1.474 7.73 3.285 0 1.82-3.458 3.288-7.73 3.288-.339 0-.675-.01-1.002-.03l-4.975 2.89V52.06c0-1.817-3.454-3.29-7.723-3.29-2.682 0-5.044.583-6.432 1.467-.196.204-.44.401-.733.586-.362.382-.564.797-.564 1.237v2.986l-4.808-2.792c-.346.017-.696.033-1.053.033-4.267 0-7.727-1.469-7.727-3.288 0-1.81 3.46-3.285 7.727-3.285 4.1 0 7.445 1.358 7.704 3.073h.022V44.73c0-1.817-3.455-3.289-7.726-3.289-4.267 0-7.727 1.472-7.727 3.29v2.42l-5.952-3.452 27.531-15.986 27.351 15.882zM0 15.938L27.439.005V23.35L-.001 39.29z" fill="#149080"/></g></svg><svg viewBox="0 0 42.667 29.333" id="icon-video-camera" xmlns="http://www.w3.org/2000/svg"><defs><clipPath id="ta" clipPathUnits="userSpaceOnUse"><path d="M0 22h32V0H0z"/></clipPath></defs><g clip-path="url(#ta)" transform="matrix(1.33333 0 0 -1.33333 0 29.333)"><path d="M20 11a1 1 0 01-1 1h-4a1 1 0 110-2h4a1 1 0 011 1m-8 1H4V4h8zm12 0V4a4 4 0 00-4-4H4a4 4 0 00-4 4v8a4 4 0 004 4h10a2 2 0 002 2v2H5a1 1 0 100 2h12a1 1 0 001-1v-3a2 2 0 002-2 4 4 0 004-4m2 0l6 4V0l-6 4z" fill="#63d1bb"/></g></svg><svg viewBox="0 0 19.949 36.958" id="social-fb" xmlns="http://www.w3.org/2000/svg"><defs><clipPath id="ua" clipPathUnits="userSpaceOnUse"><path d="M0 27.718h14.962V0H0z"/></clipPath></defs><g clip-path="url(#ua)" transform="matrix(1.33333 0 0 -1.33333 0 36.958)"><path d="M7.845 17.743c.117-.254.254-.486.414-.698.079-.022.203-.003.205-.1a10.315 10.315 0 013.096.299c0-.998-.271-1.733-.518-2.492-.662-.045-1.467-.3-1.958-.198-.276-.165-.372-.506-.62-.698-.05-.442.142-.495 0-.797-.201-.137-.055-.611-.205-.796v-1.496c.085-.281-.145-.258-.103-.497V6.782c-.085-.282.146-.258.103-.498v-2.99c.064-.27-.132-.791.103-.896-.071-.364-.413.02-.825-.1-.528-.122-.925-.37-1.547-.4.117.352.32.622.31 1.096.049.38-.365.312-.516.499.194.643.563 1.117.722 1.792.197.515.714 1.298.31 1.794-.523.106-.522-.293-.826-.398-.023-.077-.002-.196-.103-.2-.023-.076-.003-.196-.103-.198.01-.121-.151-.062 0 0 .023.078.002.197.103.199.023.077.002.197.103.199v.299c.368.575.669 1.214.826 1.993.19.28.283.656.412.997.156.262.34.869.104 1.195-.516-.033-.796-.295-.93-.697-.32.19.162.434.105.697.138.232.169.567.309.797.202.413.564 1.304 0 1.596-.438.023-.613-.207-.723-.498-.214-.192-.43-.383-.516-.698-.373.07-.142.726-.206 1.096-.067.52.122.9 0 1.196-.56.798-2.026.105-3.197.298-.108.307-.222.985-.103 1.196 1.045.088 2.478-.201 3.197.199.024.078.003.197.103.199.094.723-.271 1-.514 1.396.232.805.04 2.02.103 2.989.234.14.328.414.515.598.112.955.673 1.475.722 2.492-.274-.002-.608.055-.62-.2-.301.115-.381-.478-.514-.2-.113.542.246.627.308.998.599.418 1.212.82 1.857 1.196 1.74.244 4.648.449 6.086-.198.05-.617-.287-.854-.207-1.497H11.56c-1.092-.24-1.987-.671-2.991-.997-.241-.066-.277-.331-.516-.398-.036-.397-.225-.647-.311-.996-.08-1.44.132-2.596.102-3.986m3.817 4.783c1.027-.03 1.994 0 2.68.3.392.817.557 1.854.62 2.989-.19.014-.062.337-.207.399-.03.202-.278.195-.308.398-.278.165-.457.422-.723.598-.727.16-1.441.335-2.164.498-.85-.044-1.895.103-2.58-.1-2.62.04-3.997-1.12-5.26-2.391-.022-.078-.003-.197-.104-.2-.575-1.586-.125-3.62-.205-5.58.099-.436.108-.96.205-1.395-1-.296-2.212-.386-3.403-.5-.317-.322-.178-1.088-.206-1.692.085-.583.278-1.06.413-1.595.21-.193.596-.396.825-.498.065-.03.072-.082.103-.1.506-.267 1.45-.007 2.268-.1-.137-1.977.255-3.914 0-5.68.006-.326.294-.381.207-.797-.001-.962-.067-1.99.208-2.69-.288-.455-.497-.982-.415-1.794.122-.016.113-.157.104-.3-.074-.47.644-.174.516-.697.162-.456-.428-.184-.413-.498V.204c.53-.285 1.462-.181 2.268-.2.908.42 2.188.48 2.785 1.197.459-.235.916.014 1.239.2-.018.315.273.333.205.698-.004.328-.173.496-.103.896v2.889c-.206 2.293-.048 4.939-.31 7.176.889.105 1.918.075 2.58.398.357.452.377 1.23.515 1.895.177.225.22.583.206.996.19.213.069.729.104 1.096-.141.595-.168 1.299-.825 1.395-.884.235-2.043-.596-2.992-.3.049 1.135-.293 2.343 0 3.389.747.176 1.448.395 2.167.597"/></g></svg><svg viewBox="0 0 29.025 28.445" id="social-insta" xmlns="http://www.w3.org/2000/svg"><defs><clipPath id="va" clipPathUnits="userSpaceOnUse"><path d="M0 21.334h21.769V0H0z"/></clipPath></defs><g clip-path="url(#va)" transform="matrix(1.33333 0 0 -1.33333 0 28.445)"><path d="M13.188 13.667c.21-.119.44-.217.605-.381.086-.219.245-.363.38-.529.059-.778.18-1.492.153-2.354-.258-.098-.44-.27-.684-.381-.78.006-1.357.212-1.896.457-.172.258-.357.504-.534.758V12.3c.17.184.32.39.457.607.227.127.507.201.454.608a.368.368 0 00-.075.228c.158-.045.244-.159.378-.228.323-.019.41.199.761.152m1.139-3.796c-.235.057-.146-.208-.38-.152.07.159.119.338.229.455.133-.019.171-.13.15-.303m-2.2-2.581c.033.109.065-.008.151 0-.019-.097-.15-.076-.152 0m-.759 2.885c-.04.038.054.096.076.076.04-.039-.055-.098-.076-.076m-.38 3.947c-.203-.258.041-.576.077-.836-.305.039-.573.888-.077.836m-1.67-2.125c.015.086.075.042.075 0-.014-.087-.075-.043-.075 0M8.86 9.946c.041.117.08.006.076-.075-.04-.117-.079-.005-.076.075m-.075.305c-.114.063-.11.244-.153.379.256.078.118-.236.153-.379m3.415 4.327c-.222.232-.675.234-.986.379-.697.038-1.222-.093-1.746-.228l-.91-.454c-.266-.166-.445-.418-.76-.532-.205-.224-.351-.51-.683-.607-.004-.223-.173-.282-.304-.379-.09-.115-.094-.312-.227-.381-.008-.12.035-.29-.077-.303.11-1.511.291-2.948.683-4.177.287-.623.976-.845 1.442-1.29.59-.296 1.328-.444 2.126-.531.278.052.553.106.911.076a5.09 5.09 0 012.81 1.442c.1.281.252.508.455.683-.254.671.293 1.098.455 1.596.002 1.344-.2 2.481-.607 3.415-.256.579-.92.752-1.366 1.139-.058.017-.15.003-.151.076-.268.131-.732.233-1.064.076m1.139 1.821c-.11-.046.006-.091 0 0m-2.81.608c.021-.021.115.037.076.077-.02.021-.115-.037-.076-.077m.533.38c-.316.073-.016-.228 0 0m2.276-.988c.534.049.75.416 1.215.532.284.298.784.381.988.759-.56-.023-.766-.399-1.216-.531-.284-.296-.75-.413-.987-.76m-2.276.988c.346.134.613.347.834.607a2.043 2.043 0 01-.834-.607m.834.607c.064-.014.072.03.077.076-.066.014-.072-.029-.077-.076m.077.076c.064-.014.07.031.075.076-.064.014-.072-.03-.075-.076m.075.076c.111.046-.007.092 0 0m.683.608c-.11-.047.007-.092 0 0m.684-.836c.726.158 1.18.591 1.746.911-.437-.018-.592-.32-.988-.379-.215-.216-.599-.26-.758-.532m1.746.911c.11.047-.008.092 0 0m-1.063.607c-.529-.154-1.018-.348-1.367-.682.484.198 1.06.306 1.367.682m0 0c.11.048-.009.092 0 0m5.845-3.719c-.639.12-1.233.284-1.898.379.073.333.8.01.988.227.384.223.295.921.303 1.519.034.347.116.643.078 1.063-.403.951-1.785.421-2.887.455-.225-.717-.47-1.799-.304-2.656.17-.49 1.026-.293 1.52-.456-.14-.332-.69-.058-.988-.076-.296.083-.707.052-.986.151-2.286-.077-4.285-.004-6.53-.151.117 1.247.063 2.465-.076 3.644h3.112c-.344-.364-.912-.506-1.29-.835-.44-.244-.86-.505-1.139-.911.25-.133.535.245.76.379.354.074.478.381.834.455.424.439 1.097.626 1.67.912a3.54 3.54 0 00.988-.076c1.282-.008 2.455-.127 3.795-.076.614-.145 1.45-.069 1.974-.304.107-.297.231-.579.304-.911.01-.996-.146-1.826-.227-2.732m-.38-11.16c-.109-.954-.158-1.968-.379-2.809-2.89-.123-6.019-.005-8.883-.153-.199-.045-.273.031-.228.228-.253 0-.258-.247-.532-.228.202.336.438.898.152 1.291-.797-.013-.797-.822-1.138-1.291-.685.052-1.137-.127-1.823-.075.181.705.75 1.021.911 1.745-.395.549-.989-.138-1.214-.455-.203-.481-.556-.81-.76-1.29h-.986c.238.468.49.925.76 1.366.17.511.624.741.681 1.367-.157.28-.419.029-.682 0-.123-.182-.273-.335-.38-.531-.232-.376-.5-.714-.684-1.14-.18-.208-.335-.003-.53-.227-.389-.271-.58-.736-.988-.987-.174.06.04.357.153.38.046.181-.096.55.075.607.064.367.212.648.38.911.118.742.521 1.199.683 1.898-.559-.099-.674-.643-.987-.987-.213-.446-.542-.773-.683-1.291-.174.131-.028.58-.076.836.122.586.298 1.119.38 1.746.132.22.172.535.228.834.168.209.046.61-.077.761-.226-.028-.374-.133-.455-.304-.192.032-.193-.506-.304-.304-.045 2.587-.45 4.813-.456 7.439.027.33-.182.424-.227.684a71.245 71.245 0 004.783-.228c-.089-.139-.199-.257-.304-.379-.144-.071-.226-.173-.379-.304-.604-1.653-.975-3.984-.607-6.15.228-.58.59-1.03.986-1.442.907-.485 1.635-1.149 2.506-1.671 1.701-.361 3.84-.369 5.541 0 .236.12.484.226.685.38 1.365 1.242 2.753 2.459 2.96 4.86v1.367c-.197 1.597-.688 2.905-1.747 3.643.331.22 1.1-.043 1.67-.076a5.78 5.78 0 01.685 0c.408.024.928.055 1.443 0 .144-.186.114-.544.228-.76-.062-1.683-.193-3.299-.153-5.087.103-.454.127-.986.229-1.441a16.93 16.93 0 00-.456-2.733M1.344 15.641v1.593c.196.185.396.365.608.533.295-.49.178-1.392.455-1.898-.276-.156-.751-.11-1.063-.228m-.076 3.264c.226.205.45.41.684.608-.022.122.07.131.076.227h.228c.102-.381-.26-.296-.304-.531.02-.122-.073-.131-.076-.227.02-.336.122-.588.076-.988-.27-.008-.276-.28-.608-.227.024.428-.134.674-.076 1.138m.456.759c-.034-.219-.326-.179-.38-.379-.214.17.084.468.38.379m.986.076c.029-.259-.438-.32-.378 0zm.684-3.72c.148.03.11-.345-.076-.228.04.062.079.124.076.228m.228 3.72c.033-.158-.052-.2-.076-.304-.175-.023-.084.219-.228.229.024.103.19.063.304.075m0-1.138c-.263-.054-.273.266-.153.379.263.054.272-.266.153-.379m-.228-2.05c.077.311.034.303.075.682.229-.012.26-.769-.075-.682m.152.987c-.204-.021-.216.534-.077.607.328-.006.249-.5.077-.607m.532 0c.006.108.012.214-.077.228-.072.733.13 1.415 0 1.973.25.155.769.042 1.139.077v-1.139c-.088-.064-.203-.101-.38-.076-.053-.281.325-.132.38-.304.008-.853-.056-1.777.152-2.429-.565.059-.906-.107-1.442-.076.097.612-.018 1.435.53 1.594-.01.141-.256.047-.302.152m2.353-1.216c.175.025.084-.218.228-.227-.01-.193-.284-.179-.38-.076.039.112.113.192.152.303m.152.229c-.058-.139-.082.045-.076.152.058.138.08-.046.076-.152m0 1.366c-.132.07-.168.237-.152.456.132-.07.168-.238.152-.456M6.43 19.74c.089.013.134-.016.152-.076.179-.253.009-.683-.076-.911-.174.179-.027.682-.076.987m.683-1.594c-.117.263-.067.692-.075 1.063-.007.284.277.278.303.531-.003.074-.092.059-.152.076.127.146.7.097.835 0 .132-.537-.355-.455-.531-.683.01-.168.322-.032.456-.076.029-.854-.06-1.496 0-2.202h-.456c-.007-.234.228-.226.456-.228-.06-.286.092-.363.075-.607-.226-.153-.716-.043-1.062-.076-.103.594.236 1.375.15 2.202m1.672-2.733c.757.153 1.48.341 2.428.304.71-.075 1.287-.282 1.898-.455.116-.184-.243-.547.153-.684v-.076c.059-.017.15-.002.152-.076.445-.035.793-.167 1.063-.379.45-.055.536-.476 1.138-.38-.091-.213-.084-.524-.075-.835.324-1.183.474-2.81.302-4.252-.164-.163-.215-.442-.302-.683-.311-.322-.482-.785-.836-1.062a1.08 1.08 0 00-.455-.533c-.116-.213-.206-.452-.457-.531-.297-.163-.577-.01-.834.077-.446-.162-.904-.312-1.214-.608-.817.096-1.65.175-2.43.304-.242.139-.487.273-.835.305a1.997 1.997 0 01-.836.455c-.101.127-.337.118-.455.228-.198.03-.23.227-.456.229-.118.412-.442.618-.531 1.061-.226.331-.308.805-.455 1.215-.043 1.434.09 2.692.379 3.796.346.591.779 1.094 1.138 1.67.249-.021.365.09.38.304.306-.053.434.072.684.075.255.074.266.391.456.531m12.98-6.225c-.012 2.395-.343 4.789-.302 7.135a37.944 37.944 0 01-.152 2.279c-.105.299-.111.699-.152 1.062-.26.17-.222.64-.456.836-.423.233-1.202.113-1.744.227-.658.026-1.254.115-1.9.152-1.935.101-3.973.076-5.996.076-2.001 0-3.954.145-5.695.379H3.166c-.097-.004-.105-.098-.227-.076-.6-.034-1.077-.188-1.595-.303-.21-.119-.421-.236-.683-.305-.136-.192-.513-.144-.607-.379-.186-.211.185-.451 0-.607v-.911c.174-.13.028-.58.075-.835v-.987c-.016-1.281.134-2.398.077-3.72.467-2.762.374-6.537.076-9.413.155-.579.363-1.106.455-1.746.256-.479.335-1.133.683-1.52C1.922.326 2.653.347 3.318.304 3.7.206 3.985.011 4.458 0 7.3.21 9.954.154 12.884.229c2.704-.241 5.802-.189 8.276.227.195.134.128.529.227.76-.055.385.207.449.228.759.133 2.392.165 4.787.15 7.213"/></g></svg><svg viewBox="0 0 31.325 26.891" id="social-twitter" xmlns="http://www.w3.org/2000/svg"><defs><clipPath id="wa" clipPathUnits="userSpaceOnUse"><path d="M0 20.168h23.494V0H0z"/></clipPath></defs><g clip-path="url(#wa)" transform="matrix(1.33333 0 0 -1.33333 0 26.89)"><path d="M14.857 14.602c.163-.135.284-.31.52-.37.1-.222.313-.328.592-.37.047.15.346.048.37.221.174.023.166.23.296.297-.017.55-.129 1.006-.37 1.333-.758.424-1.676-.038-1.408-1.11m5.483 3.037c-.129-.34-.23-.707-.592-.815-.017.105-.122.125-.148.222-.012.21.21.185.296.296.163.085.245.248.444.297-.006.09.11.046 0 0m-.295-5.632c-.154-.858-.616-1.41-1.039-2 .06-.38-.103-.538-.073-.888a4.327 4.327 0 01-.37-1.038c-.204-.267-.333-.607-.519-.89-.367-.548-.778-1.05-1.186-1.557-.378-.558-.912-.965-1.334-1.48-.42-.494-.942-.886-1.407-1.335a4.967 4.967 0 01-1.26-.667 5.06 5.06 0 01-.667-.296c-.177-.146-.499-.145-.668-.297-1.086-.147-2.3-.17-3.555-.148-1.03.105-2.115.16-3.039.371-.923.19-1.51.712-2.297 1.037.153.242.634.154.963.221.031.166.394.003.444.15.257-.06.285.11.52.073.563.201 1.23.302 1.704.593.282.138.406.433.667.593.033.19.103.34.221.444.048.275.202.441.15.815.11.21.298.343.295.667-.074.148-.128.317-.296.372-.026.196-.378.067-.444.221-.255-.032-.416.03-.593.075-.154.043-.487-.09-.519.074-.842.023-1.3.43-1.853.74.431.262 1.032.352 1.334.742.516.076 1.057.13 1.112.666 0 .717-.77.661-1.333.815-.774.661-1.195 1.672-1.779 2.52.238.157.564.226.74.444.455-.057.54.251.667.52.02.488-.332.605-.592.815a3.47 3.47 0 00-.667.741c-.003.818-.022 1.651.074 2.371.063.014.07-.029.074-.074.226-.44.56-.775.815-1.186.532-.357.925-.853 1.556-1.11.452-.414 1.11-.623 1.557-1.039.6-.263 1.158-.57 1.704-.889.67-.195 1.056-.673 2.001-.593.198.098.393.2.593.297.257.456-.059 1.08.147 1.63.255.66.797 1.031 1.26 1.482.29.155.555.335.815.52.347.096.675.215.964.37.376.018.713.077 1.037.147h1.26c.244-.052.475-.119.74-.148.21-.137.38-.313.666-.37.79-.694 1.271-1.696 1.41-3.039-.124-.485.051-.874 0-1.482m3.408 4.075c-.227.367-.909.278-1.408.372h-1.112c.142.352.343.646.52.963.055.438.254.734.222 1.26.13.166.176.416.296.592.104.145.242.478.074.667-.05.221-.294.248-.592.222a.506.506 0 01-.222-.148c-.448-.433-.778-1.013-1.26-1.408-.01-.008-.062.001-.075 0-.087-.004-.033-.046-.075-.074-.147-.097-.257-.152-.369-.222-.284-.177-.547-.445-.89-.519-.53.211-1.157.326-1.852.37-1.158-.102-2.303-.215-3.039-.74-.91-.35-1.476-1.043-2.149-1.63-.049-.32-.342-.399-.37-.742-.005-.045-.012-.088-.073-.074.043-.24-.05-.345-.075-.518 0-.133.2-.432 0-.52-.822.12-1.485.63-2.149.964-.718.36-1.468.603-2.074 1.111-.716.322-1.26.816-1.778 1.334-.209.311-.542.495-.668.89-.379.164-.175.912-.74.89-.316.042-.345-.2-.445-.372-.07-.226-.36-.232-.37-.518-.005-.046-.012-.089-.075-.075-.17-1.089-.528-1.992-.519-3.26.13-.415.35-.738.593-1.038-.418-.05-.716-.222-.89-.519-.059-1.073.378-1.647.742-2.297.134-.383.351-.684.593-.963.017-.229.206-.288.296-.445.018-.105.122-.125.15-.222-.042-.106.287-.18.072-.22-.413-.132-1.016-.07-1.26-.372-.109-.28-.109-.833 0-1.112.034-.237.283-.26.297-.518.5-.417 1.081-.747 1.631-1.112.574-.166 1.211-.27 1.852-.37-.102-.343-.338-.55-.593-.742-.78-.38-1.849-.473-2.742-.74-.555-.038-.956-.23-1.556-.223C1.04 3.878.518 3.93.26 3.783c-.12-.069-.1-.096-.222-.22-.134-.413.111-.74.444-.89-.005-.254.22-.277.371-.372.09-.182.254-.29.445-.37.544-.468 1.268-.759 1.927-1.112C4.054.636 4.872.443 5.744.3c.895-.116 1.9-.124 2.815-.22h.963c.511-.133 1.231-.055 1.853-.076.094.102.322.074.518.075.523.268 1.196.384 1.631.74.574.241.99.641 1.557.89.866.764 1.936 1.324 2.518 2.372.205.19.351.438.446.74.264.156.384.454.592.667.405.41.706.924 1.037 1.408.32.496.577 1.054.89 1.556-.01.405.306.484.296.89.193.225.177.661.371.888-.033.255.03.415.074.594.047 1.281-.047 2.422-.297 3.407.588.155 1.181.302 1.631.593.526.185.998.582.814 1.26"/></g></svg><svg viewBox="0 0 1150 24" id="zig-zag" xmlns="http://www.w3.org/2000/svg"><path fill="#FFF" d="M1121.252 0c-14.375 0-14.375 14-28.749 14s-14.374-14-28.748-14-14.374 14-28.748 14c-14.375 0-14.375-14-28.75-14-14.374 0-14.374 14-28.748 14S963.135 0 948.761 0s-14.374 14-28.749 14-14.375-14-28.749-14-14.374 14-28.749 14-14.375-14-28.75-14c-14.371 0-14.371 14-28.743 14-14.375 0-14.375-14-28.75-14-14.372 0-14.372 14-28.744 14-14.374 0-14.374-14-28.747-14s-14.373 14-28.747 14C675.66 14 675.66 0 661.287 0c-14.374 0-14.374 14-28.748 14-14.375 0-14.375-14-28.751-14-14.374 0-14.374 14-28.748 14S560.666 0 546.292 0s-14.374 14-28.748 14S503.17 0 488.796 0c-14.375 0-14.375 14-28.75 14-14.376 0-14.376-14-28.753-14-14.375 0-14.375 14-28.75 14S388.168 0 373.792 0c-14.375 0-14.375 14-28.75 14S330.666 0 316.291 0s-14.375 14-28.751 14c-14.376 0-14.376-14-28.753-14-14.374 0-14.374 14-28.747 14-14.375 0-14.375-14-28.75-14s-14.375 14-28.751 14c-14.377 0-14.377-14-28.754-14s-14.377 14-28.755 14c-14.378 0-14.378-14-28.756-14S71.896 14 57.518 14C43.139 14 43.139 0 28.759 0S14.38 14 0 14v20h1150V14c-14.374 0-14.374-14-28.748-14z"/></svg></svg>