<svg xmlns="http://www.w3.org/2000/svg" height="45.408" width="135.487"><defs><clipPath id="a" clipPathUnits="userSpaceOnUse"><path d="M0 34.056h101.615V0H0z"/></clipPath></defs><g clip-path="url(#a)" transform="matrix(1.33333 0 0 -1.33333 0 45.408)"><path d="M19.135 12.56c-.083 2.683-.51 5.347-.475 8.035.028 2.175.389 4.41-.36 6.495.047.237.096.473.14.71.194 1.045-3.27.492-3.813-.464-.344-.28-.52-.614-.375-.955.037-.087.07-.174.102-.261-.656-3.204-1.57-6.306-2.621-9.412-.403-1.188-.89-2.35-1.298-3.533-.582 1.104-1.17 2.194-1.643 3.377-1.373 3.433-2.612 6.902-4.287 10.206.19 1.529-3.203 1.368-3.872-.031-.81-1.694-.705-3.404-.44-5.215.3-2.042.354-4.05.379-6.111.047-3.976.358-7.944.417-11.92-.354-.394-.461-.88-.091-1.374.162-.216.362-.382.57-.55.905-.723 3.5-.106 3.497 1.273-.015 4.122-.312 8.236-.421 12.357-.011.403-.017.807-.024 1.21l.172-.434C5.332 14.36 6 12.8 6.877 11.31 7.744 9.831 8.18 8.245 8.68 6.632c-.19-.217-.303-.462-.233-.708-.04-.179.07-.292.25-.36.64-.548 1.842-.275 2.51.007.287.121.56.26.826.424.346.211.884.678.729 1.158-.03.093-.058.186-.086.28.469 1.27.709 2.588.965 3.93.272 1.427.782 2.78 1.295 4.132.052-.619.106-1.238.156-1.855.204-2.554.033-5.072.007-7.627-.008-.847.054-1.633.219-2.46.068-.344.367-1.808.28-1.888-.61-.564-.432-1.256.386-1.436.915-.2 2.08.105 2.77.742 1.198 1.107.63 2.845.36 4.241-.453 2.342.094 4.964.02 7.348M27.499 11.885c-.074 1.988-.765 3.862-.774 5.872-.011 2.305.181 4.593-.155 6.886-.106.725-4.056-.1-3.917-1.05.308-2.11.197-4.229.159-6.354-.037-2.044.468-3.897.73-5.904.269-2.054-.084-4.157.15-6.213.109-.962.75-2.743.089-3.58-.42-.532 1.469-.342 1.553-.326.769.141 1.793.391 2.304 1.038.653.828.196 2.425.053 3.357-.317 2.06-.115 4.195-.192 6.274M43.828 15.205c-2.062 2.784-5.889.78-8.56 1.54-1.378.392-1.396 2.27-1.393 3.396.004 1.426-.113 2.732-.273 4.146-.118 1.052-.024 2.12.746 2.904.142.144.86.336.81.339.354.06.676.075 1.067.092 1.55.067 4.613-.231 4.02-2.483-.267-1.01 3.596-.431 3.877.637 1.213 4.597-7.284 3.714-9.686 3.077-2.21-.585-4.649-1.844-4.776-4.397-.06-1.22.273-2.38.325-3.587.061-1.39-.198-2.776.29-4.118 1.081-2.982 5.52-1.576 7.777-1.745 3.845-.287 2.696-5.468 2.747-7.883.028-1.288 1.181-3.43.211-4.507-.595-.662-1.982-.7-2.792-.768-.813-.068-2.2-.312-2.742.46-.993 1.419.091 3.8-.12 5.426-.12.924-4.067.095-3.918-1.05C31.781 4.057 30.04.539 33.84.088c2.442-.29 5.192.16 7.5.928 1.196.397 2.307.942 3.243 1.793 1.035.94.695 2.348.417 3.547-.676 2.918.732 6.279-1.172 8.849M61.155 15.394c-.122 3.777-.69 7.513-.706 11.297-.008 1.97-3.963 1.305-3.957-.343.016-3.608.497-7.166.683-10.764l.012-.22c-1.949.017-3.899-.178-5.852-.246.201 4.633-.612 9.227-.435 13.857.022.582-3.873.09-3.917-1.05-.17-4.474.587-8.914.453-13.391-.064-2.136-.245-4.264-.26-6.402-.007-1.094.172-2.182.33-3.262.145-1 .483-2.331.181-3.32-.237-.771 3.56-.29 3.862.696.544 1.778-.222 4.038-.405 5.838-.175 1.725-.039 3.499.083 5.248 2.03.13 4.06.298 6.08.012.09-1.378.196-2.754.322-4.134.106-1.157.18-2.314.196-3.475.016-1.02.142-2.496-.22-3.461-.773-2.057 3.15-1.89 3.722-.364.703 1.87.503 4.198.383 6.163-.149 2.444-.477 4.874-.555 7.32M78.087 10.92c-.94 2.757-2.373 5.176-3.616 7.796 1 1.95 2.017 3.9 2.93 5.89.832 1.806 1.448 3.817 3.08 5.091.575.447.55.895-.254.951-.875.061-2.064-.192-2.77-.742-1.485-1.158-2.426-2.563-3.2-4.268a161.85 161.85 0 00-2.914-6.075c-.074-.147-.15-.295-.223-.443-.491-.315-.785-.762-.64-1.266-.79-1.564-1.6-3.117-2.498-4.61-.3 5.533-.955 11.06-1.15 16.6-.045 1.27-3.972.48-3.917-1.05.242-6.868 1.218-13.719 1.286-20.587-.016-.017-.031-.034-.048-.05-.301-.309-.19-.494.052-.602a60.763 60.763 0 00-.21-5.255c-.471-.745.464-1.138 1.085-1.138h.096c.74 0 2.626.35 2.719 1.364.19 2.1.25 4.196.232 6.291 1.59 1.715 2.889 3.63 4.055 5.635.759-1.48 1.482-2.972 1.988-4.582.86-2.74 2.3-5.26 3.13-8.014.546-1.806 4.458-.738 3.918 1.05-.83 2.751-2.205 5.295-3.131 8.013M86.972 15.705c-.103 1.245-.217 2.49-.303 3.743-.16 2.331.117 5.583 2.29 7 .58.378 1.675.314 2.354.437.97.175 1.956.388 2.829-.19 1.21-.802.913-3.657.912-4.869-.003-2.006.207-4.002.309-6.004a13.757 13.757 0 00-1.683-.076c-2.286.054-4.543.414-6.708-.04m14.619-.152c-.21.832-1.372.85-2.272.77-.012.336-.02.672-.036 1.006-.125 2.662-.165 5.38-.392 8.032-.21 2.458-1.585 3.338-3.971 3.247-2.416-.092-5.23-.528-7.483-1.404-2.607-1.013-4.058-2.934-4.558-5.68-.55-3.014.239-6.219.373-9.247.154-3.503.066-7.013.062-10.518 0-.574 3.916-.032 3.917 1.05.003 2.775.043 5.55 0 8.325a50.813 50.813 0 01-.102 2.444c1.369.593 3.687-.012 5.05-.14 1.108-.106 2.169.165 3.245.29.02-2.312.107-4.634.202-6.944.049-1.184.476-3.53-.354-4.51-.436-.516 1.48-.343 1.555-.33.793.146 1.76.401 2.303 1.04.949 1.12.456 3.79.4 5.127-.077 1.91-.1 3.823-.14 5.737 1.153.15 2.415.856 2.2 1.705M24.108 27.355c.52.05 1.045.226 1.477.524l.256.217c.52.335.972.827.728 1.361-.503 1.105-.422 2.231-.415 3.414.006.958-.963 1.246-1.781 1.174-.723-.064-2.168-.58-2.175-1.52-.006-.993-.071-2.016.109-2.992-.047-.113-.074-.239-.104-.356-.055-.212.016-.42.142-.59 0-.044.003-.089.003-.134l.014-.335a.905.905 0 01.429-.53c.387-.233.878-.275 1.317-.233"/></g></svg>