<?xml version="1.0" encoding="UTF-8" standalone="no"?>
<svg
   xmlns:dc="http://purl.org/dc/elements/1.1/"
   xmlns:cc="http://creativecommons.org/ns#"
   xmlns:rdf="http://www.w3.org/1999/02/22-rdf-syntax-ns#"
   xmlns:svg="http://www.w3.org/2000/svg"
   xmlns="http://www.w3.org/2000/svg"
   viewBox="0 0 135.48666 45.4076"
   height="45.4076"
   width="135.48666"
   xml:space="preserve"
   id="svg2"
   version="1.1"><metadata
     id="metadata8"><rdf:RDF><cc:Work
         rdf:about=""><dc:format>image/svg+xml</dc:format><dc:type
           rdf:resource="http://purl.org/dc/dcmitype/StillImage" /></cc:Work></rdf:RDF></metadata><defs
     id="defs6"><clipPath
       id="clipPath18"
       clipPathUnits="userSpaceOnUse"><path
         id="path16"
         d="M 0,34.056 H 101.615 V 0 H 0 Z" /></clipPath></defs><g
     transform="matrix(1.3333333,0,0,-1.3333333,0,45.4076)"
     id="g10"><g
       id="g12"><g
         clip-path="url(#clipPath18)"
         id="g14"><g
           transform="translate(19.1348,12.5605)"
           id="g20"><path
             id="path22"
             style="fill-opacity:1;fill-rule:nonzero;stroke:none"
             d="m 0,0 c -0.083,2.683 -0.51,5.347 -0.475,8.035 0.028,2.174 0.389,4.41 -0.36,6.494 0.047,0.237 0.096,0.473 0.14,0.711 0.194,1.045 -3.27,0.492 -3.813,-0.464 -0.344,-0.28 -0.519,-0.615 -0.375,-0.956 0.037,-0.087 0.07,-0.174 0.102,-0.261 C -5.437,10.355 -6.351,7.253 -7.402,4.147 -7.805,2.959 -8.291,1.798 -8.7,0.614 c -0.582,1.104 -1.17,2.194 -1.643,3.377 -1.373,3.433 -2.612,6.902 -4.287,10.206 0.19,1.529 -3.203,1.368 -3.872,-0.031 -0.81,-1.694 -0.705,-3.404 -0.439,-5.215 0.3,-2.042 0.353,-4.05 0.378,-6.111 0.047,-3.976 0.358,-7.944 0.417,-11.919 -0.354,-0.395 -0.461,-0.881 -0.091,-1.375 0.162,-0.216 0.362,-0.382 0.571,-0.549 0.904,-0.724 3.5,-0.107 3.496,1.272 -0.015,4.122 -0.312,8.237 -0.421,12.357 -0.011,0.404 -0.017,0.808 -0.024,1.211 0.057,-0.145 0.114,-0.29 0.172,-0.434 0.64,-1.604 1.309,-3.163 2.185,-4.654 0.867,-1.478 1.303,-3.064 1.803,-4.677 -0.19,-0.217 -0.303,-0.462 -0.233,-0.708 -0.039,-0.179 0.07,-0.292 0.251,-0.36 0.639,-0.548 1.841,-0.275 2.509,0.007 0.287,0.121 0.561,0.26 0.826,0.424 0.346,0.211 0.884,0.678 0.729,1.158 -0.029,0.093 -0.058,0.186 -0.086,0.279 0.469,1.27 0.709,2.589 0.965,3.93 0.272,1.428 0.782,2.78 1.295,4.133 0.052,-0.619 0.106,-1.238 0.156,-1.855 0.204,-2.554 0.033,-5.072 0.007,-7.627 -0.008,-0.847 0.054,-1.633 0.219,-2.461 0.068,-0.343 0.367,-1.807 0.281,-1.887 -0.611,-0.564 -0.433,-1.256 0.385,-1.436 0.915,-0.201 2.081,0.105 2.77,0.742 1.198,1.107 0.631,2.845 0.36,4.241 C -0.474,-5.006 0.073,-2.384 0,0" /></g><g
           transform="translate(27.499,11.8853)"
           id="g24"><path
             id="path26"
             style="fill-opacity:1;fill-rule:nonzero;stroke:none"
             d="m 0,0 c -0.074,1.988 -0.765,3.862 -0.774,5.872 -0.011,2.305 0.181,4.593 -0.155,6.886 -0.106,0.725 -4.056,-0.1 -3.917,-1.05 0.308,-2.11 0.197,-4.229 0.159,-6.354 -0.037,-2.044 0.468,-3.897 0.73,-5.904 0.269,-2.054 -0.084,-4.157 0.15,-6.213 0.109,-0.962 0.75,-2.743 0.089,-3.58 -0.42,-0.532 1.469,-0.342 1.553,-0.326 0.769,0.141 1.793,0.391 2.304,1.038 0.653,0.828 0.196,2.425 0.053,3.357 C -0.125,-4.214 0.077,-2.079 0,0" /></g><g
           transform="translate(43.8281,15.2046)"
           id="g28"><path
             id="path30"
             style="fill-opacity:1;fill-rule:nonzero;stroke:none"
             d="m 0,0 c -2.062,2.784 -5.889,0.78 -8.561,1.54 -1.377,0.392 -1.395,2.271 -1.392,3.396 0.004,1.426 -0.113,2.732 -0.273,4.146 -0.118,1.052 -0.024,2.121 0.746,2.904 0.142,0.144 0.859,0.336 0.81,0.339 0.354,0.06 0.676,0.075 1.067,0.092 1.549,0.067 4.613,-0.231 4.02,-2.483 -0.267,-1.01 3.596,-0.431 3.877,0.637 1.213,4.597 -7.284,3.714 -9.686,3.077 -2.211,-0.585 -4.649,-1.844 -4.776,-4.397 -0.061,-1.219 0.273,-2.379 0.325,-3.587 0.061,-1.39 -0.198,-2.776 0.289,-4.118 1.082,-2.982 5.52,-1.576 7.778,-1.745 3.845,-0.287 2.696,-5.468 2.747,-7.883 0.028,-1.288 1.181,-3.429 0.211,-4.507 -0.595,-0.662 -1.982,-0.7 -2.792,-0.768 -0.813,-0.068 -2.201,-0.312 -2.742,0.461 -0.993,1.418 0.091,3.799 -0.121,5.425 -0.12,0.924 -4.066,0.095 -3.917,-1.05 0.343,-2.627 -1.399,-6.145 2.402,-6.596 2.442,-0.289 5.192,0.161 7.5,0.928 1.196,0.397 2.307,0.942 3.243,1.793 1.035,0.941 0.695,2.348 0.417,3.547 C 0.496,-5.931 1.904,-2.57 0,0" /></g><g
           transform="translate(61.1553,15.3936)"
           id="g32"><path
             id="path34"
             style="fill-opacity:1;fill-rule:nonzero;stroke:none"
             d="m 0,0 c -0.122,3.777 -0.69,7.513 -0.706,11.297 -0.008,1.971 -3.963,1.305 -3.957,-0.343 0.016,-3.608 0.497,-7.166 0.683,-10.764 0.003,-0.073 0.008,-0.147 0.012,-0.22 -1.949,0.017 -3.899,-0.178 -5.852,-0.246 0.201,4.633 -0.612,9.227 -0.435,13.857 0.022,0.582 -3.873,0.09 -3.917,-1.049 -0.171,-4.475 0.587,-8.915 0.453,-13.392 -0.064,-2.136 -0.245,-4.264 -0.26,-6.402 -0.007,-1.094 0.172,-2.182 0.329,-3.262 0.146,-0.999 0.484,-2.331 0.182,-3.319 -0.237,-0.772 3.56,-0.29 3.862,0.695 0.544,1.778 -0.222,4.038 -0.405,5.838 -0.175,1.725 -0.039,3.499 0.083,5.248 2.03,0.13 4.059,0.298 6.08,0.012 0.09,-1.378 0.196,-2.754 0.322,-4.134 0.106,-1.157 0.179,-2.314 0.196,-3.475 0.016,-1.019 0.142,-2.496 -0.22,-3.461 -0.773,-2.057 3.15,-1.889 3.722,-0.364 0.703,1.87 0.503,4.198 0.383,6.163 C 0.406,-4.877 0.078,-2.447 0,0" /></g><g
           transform="translate(78.0869,10.9194)"
           id="g36"><path
             id="path38"
             style="fill-opacity:1;fill-rule:nonzero;stroke:none"
             d="m 0,0 c -0.939,2.758 -2.373,5.177 -3.616,7.797 1.001,1.949 2.017,3.899 2.931,5.889 0.831,1.807 1.447,3.818 3.08,5.092 0.574,0.447 0.55,0.895 -0.255,0.951 C 1.265,19.79 0.076,19.537 -0.629,18.987 -2.115,17.829 -3.056,16.424 -3.83,14.719 -4.762,12.668 -5.727,10.656 -6.744,8.644 -6.818,8.497 -6.893,8.349 -6.967,8.201 -7.458,7.886 -7.752,7.439 -7.606,6.935 c -0.791,-1.564 -1.6,-3.117 -2.499,-4.611 -0.299,5.534 -0.955,11.061 -1.15,16.6 -0.045,1.27 -3.972,0.48 -3.917,-1.049 0.242,-6.868 1.218,-13.719 1.286,-20.587 -0.016,-0.017 -0.031,-0.034 -0.048,-0.051 -0.301,-0.308 -0.19,-0.493 0.052,-0.601 0.002,-1.751 -0.059,-3.502 -0.209,-5.255 -0.472,-0.745 0.463,-1.138 1.084,-1.138 h 0.096 c 0.74,0 2.626,0.349 2.719,1.364 0.191,2.1 0.251,4.196 0.232,6.291 1.59,1.715 2.889,3.63 4.055,5.635 0.759,-1.48 1.482,-2.972 1.988,-4.582 0.861,-2.741 2.3,-5.261 3.131,-8.014 0.545,-1.806 4.457,-0.738 3.917,1.049 C 2.301,-5.262 0.926,-2.718 0,0" /></g><g
           transform="translate(86.9717,15.7051)"
           id="g40"><path
             id="path42"
             style="fill-opacity:1;fill-rule:nonzero;stroke:none"
             d="m 0,0 c -0.103,1.245 -0.217,2.49 -0.303,3.743 -0.159,2.331 0.117,5.583 2.29,6.999 0.58,0.379 1.675,0.315 2.354,0.438 0.97,0.175 1.956,0.388 2.829,-0.19 C 8.38,10.188 8.083,7.333 8.082,6.121 8.079,4.115 8.289,2.119 8.391,0.117 7.839,0.062 7.28,0.028 6.708,0.041 4.422,0.095 2.165,0.455 0,0 m 14.619,-0.151 c -0.21,0.832 -1.372,0.849 -2.272,0.77 -0.012,0.336 -0.019,0.672 -0.036,1.006 -0.125,2.662 -0.165,5.38 -0.392,8.032 -0.209,2.458 -1.585,3.338 -3.971,3.247 C 5.532,12.812 2.718,12.376 0.465,11.5 -2.142,10.487 -3.593,8.566 -4.093,5.819 c -0.55,-3.013 0.239,-6.218 0.373,-9.246 0.154,-3.503 0.066,-7.013 0.062,-10.518 0,-0.574 3.916,-0.032 3.917,1.049 0.003,2.776 0.043,5.551 0,8.326 -0.012,0.819 -0.051,1.632 -0.102,2.444 1.369,0.593 3.687,-0.012 5.051,-0.141 1.107,-0.105 2.168,0.166 3.244,0.291 0.02,-2.312 0.107,-4.634 0.202,-6.944 0.049,-1.184 0.476,-3.53 -0.354,-4.511 -0.436,-0.515 1.481,-0.342 1.555,-0.33 0.793,0.147 1.761,0.402 2.303,1.041 0.949,1.12 0.456,3.79 0.401,5.127 -0.078,1.91 -0.101,3.823 -0.141,5.737 1.153,0.149 2.415,0.856 2.201,1.705" /></g><g
           transform="translate(24.1079,27.3555)"
           id="g44"><path
             id="path46"
             style="fill-opacity:1;fill-rule:nonzero;stroke:none"
             d="M 0,0 C 0.521,0.05 1.045,0.226 1.477,0.524 1.563,0.597 1.648,0.668 1.733,0.741 2.253,1.076 2.705,1.568 2.461,2.102 1.958,3.207 2.039,4.333 2.046,5.516 2.052,6.474 1.083,6.762 0.265,6.69 -0.458,6.626 -1.903,6.109 -1.91,5.17 -1.916,4.177 -1.981,3.154 -1.801,2.178 -1.848,2.065 -1.875,1.939 -1.905,1.822 -1.96,1.61 -1.889,1.402 -1.763,1.232 -1.762,1.188 -1.76,1.143 -1.76,1.098 -1.755,0.986 -1.75,0.875 -1.746,0.763 -1.672,0.531 -1.53,0.354 -1.317,0.233 -0.93,0 -0.439,-0.042 0,0" /></g></g></g></g></svg>
