<svg xmlns="http://www.w3.org/2000/svg" height="25.132" width="27.059"><defs><clipPath id="a" clipPathUnits="userSpaceOnUse"><path d="M0 18.849h20.294V0H0z"/></clipPath></defs><g clip-path="url(#a)" transform="matrix(1.33333 0 0 -1.33333 0 25.132)"><path d="M17.017 7.284H3.277l-.81 2.836h15.36zM15.364 1.5H4.93L3.707 5.784h12.88zm4.18 10.12h-3.15l-3.407 6.814a.751.751 0 01-1.342-.67l3.07-6.144H5.58l3.07 6.143a.75.75 0 01-1.341.671L3.903 11.62H.75a.75.75 0 010-1.5h.158l.855-2.99a.736.736 0 01-.316-.596c0-.396.309-.71.696-.739L3.799 0h12.697l1.656 5.795a.744.744 0 01.698.74c0 .248-.13.458-.317.595l.855 2.99h.157a.75.75 0 010 1.5"/></g></svg>