<svg xmlns="http://www.w3.org/2000/svg" height="45.83" width="45.831"><defs><clipPath id="a" clipPathUnits="userSpaceOnUse"><path d="M0 34.373h34.373V0H0z"/></clipPath></defs><g clip-path="url(#a)" transform="matrix(1.33333 0 0 -1.33333 0 45.83)"><path d="M.286 20.304a17.244 17.244 0 01.008-6.301l4.12 3.21zM24.403 32.787C19.62 34.995 13.96 34.931 9.15 32.38l7.513-5.625zM33.901 21.198l-4.81-3.748 4.935-3.695a17.249 17.249 0 01-.125 7.443M9.209 1.959c4.844-2.534 10.724-2.65 15.73-.113l-8.096 6.061zM7.914 19.94l-6.233 4.666a17.24 17.24 0 01-.825-2.057l5.308-3.973zM18.593 9.27l8.336-6.241a17.16 17.16 0 011.74 1.37l-8.326 6.235zM11.413 22.666l-7.41 5.549a16.92 16.92 0 01-1.27-1.723l6.93-5.19zM22.093 11.997l8.092-6.059c.47.544.904 1.113 1.297 1.702l-7.64 5.72zM14.913 25.392L7.197 31.17a16.357 16.357 0 01-1.71-1.393l7.676-5.747zM25.592 14.724l6.972-5.221c.33.662.615 1.34.855 2.033l-6.077 4.55zM26.448 31.667L.88 11.746c.233-.698.512-1.386.84-2.058L28.24 30.35c-.573.482-1.172.921-1.792 1.317M30.743 27.749c-.3.386-.614.754-.939 1.106L2.786 7.806a16.905 16.905 0 011.278-1.717l27.091 21.107c-.134.186-.269.371-.412.553M32.298 25.374L5.552 4.534a17.162 17.162 0 011.707-1.382L33.222 23.38c-.263.678-.57 1.344-.924 1.994" fill="#63d1bb"/></g></svg>