<?xml version="1.0" encoding="UTF-8" standalone="no"?>
<svg
   xmlns:dc="http://purl.org/dc/elements/1.1/"
   xmlns:cc="http://creativecommons.org/ns#"
   xmlns:rdf="http://www.w3.org/1999/02/22-rdf-syntax-ns#"
   xmlns:svg="http://www.w3.org/2000/svg"
   xmlns="http://www.w3.org/2000/svg"
   viewBox="0 0 45.830666 45.830132"
   height="45.830132"
   width="45.830666"
   xml:space="preserve"
   id="svg2"
   version="1.1"><metadata
     id="metadata8"><rdf:RDF><cc:Work
         rdf:about=""><dc:format>image/svg+xml</dc:format><dc:type
           rdf:resource="http://purl.org/dc/dcmitype/StillImage" /></cc:Work></rdf:RDF></metadata><defs
     id="defs6"><clipPath
       id="clipPath18"
       clipPathUnits="userSpaceOnUse"><path
         id="path16"
         d="M 0,34.373 H 34.373 V 0 H 0 Z" /></clipPath></defs><g
     transform="matrix(1.3333333,0,0,-1.3333333,0,45.830133)"
     id="g10"><g
       id="g12"><g
         clip-path="url(#clipPath18)"
         id="g14"><g
           transform="translate(0.2861,20.3037)"
           id="g20"><path
             id="path22"
             style="fill:#63d1bb;fill-opacity:1;fill-rule:nonzero;stroke:none"
             d="m 0,0 c -0.382,-2.073 -0.384,-4.211 0.008,-6.301 l 4.12,3.21 z" /></g><g
           transform="translate(24.4033,32.7871)"
           id="g24"><path
             id="path26"
             style="fill:#63d1bb;fill-opacity:1;fill-rule:nonzero;stroke:none"
             d="m 0,0 c -4.783,2.208 -10.444,2.144 -15.254,-0.407 l 7.513,-5.625 z" /></g><g
           transform="translate(33.9014,21.1978)"
           id="g28"><path
             id="path30"
             style="fill:#63d1bb;fill-opacity:1;fill-rule:nonzero;stroke:none"
             d="M 0,0 -4.811,-3.748 0.125,-7.443 C 0.621,-4.999 0.588,-2.456 0,0" /></g><g
           transform="translate(9.209,1.959)"
           id="g32"><path
             id="path34"
             style="fill:#63d1bb;fill-opacity:1;fill-rule:nonzero;stroke:none"
             d="M 0,0 C 4.844,-2.534 10.724,-2.65 15.73,-0.113 L 7.634,5.948 Z" /></g><g
           transform="translate(7.9141,19.9395)"
           id="g36"><path
             id="path38"
             style="fill:#63d1bb;fill-opacity:1;fill-rule:nonzero;stroke:none"
             d="M 0,0 -6.233,4.667 C -6.553,3.997 -6.828,3.311 -7.058,2.61 l 5.308,-3.973 z" /></g><g
           transform="translate(18.5928,9.2705)"
           id="g40"><path
             id="path42"
             style="fill:#63d1bb;fill-opacity:1;fill-rule:nonzero;stroke:none"
             d="m 0,0 8.336,-6.242 c 0.277,0.191 0.551,0.39 0.82,0.6 0.319,0.248 0.625,0.505 0.92,0.771 L 1.75,1.363 Z" /></g><g
           transform="translate(11.4131,22.6655)"
           id="g44"><path
             id="path46"
             style="fill:#63d1bb;fill-opacity:1;fill-rule:nonzero;stroke:none"
             d="M 0,0 -7.411,5.549 C -7.874,4.998 -8.296,4.422 -8.68,3.826 l 6.93,-5.189 z" /></g><g
           transform="translate(22.0928,11.9971)"
           id="g48"><path
             id="path50"
             style="fill:#63d1bb;fill-opacity:1;fill-rule:nonzero;stroke:none"
             d="m 0,0 8.092,-6.059 c 0.471,0.544 0.904,1.113 1.297,1.702 L 1.75,1.363 Z" /></g><g
           transform="translate(14.9126,25.3921)"
           id="g52"><path
             id="path54"
             style="fill:#63d1bb;fill-opacity:1;fill-rule:nonzero;stroke:none"
             d="M 0,0 -7.716,5.777 C -7.909,5.64 -8.101,5.498 -8.29,5.351 -8.686,5.042 -9.063,4.719 -9.425,4.384 l 7.675,-5.747 z" /></g><g
           transform="translate(25.5918,14.7236)"
           id="g56"><path
             id="path58"
             style="fill:#63d1bb;fill-opacity:1;fill-rule:nonzero;stroke:none"
             d="m 0,0 6.972,-5.221 c 0.33,0.662 0.615,1.341 0.855,2.033 L 1.75,1.363 Z" /></g><g
           transform="translate(26.4482,31.667)"
           id="g60"><path
             id="path62"
             style="fill:#63d1bb;fill-opacity:1;fill-rule:nonzero;stroke:none"
             d="m 0,0 -25.568,-19.921 c 0.233,-0.698 0.512,-1.386 0.839,-2.058 L 1.791,-1.317 C 1.219,-0.835 0.62,-0.396 0,0" /></g><g
           transform="translate(30.7432,27.749)"
           id="g64"><path
             id="path66"
             style="fill:#63d1bb;fill-opacity:1;fill-rule:nonzero;stroke:none"
             d="m 0,0 c -0.301,0.386 -0.614,0.754 -0.939,1.106 l -27.018,-21.049 c 0.262,-0.403 0.542,-0.797 0.843,-1.183 0.142,-0.183 0.287,-0.359 0.435,-0.534 L 0.412,-0.553 C 0.278,-0.367 0.143,-0.182 0,0" /></g><g
           transform="translate(32.2979,25.374)"
           id="g68"><path
             id="path70"
             style="fill:#63d1bb;fill-opacity:1;fill-rule:nonzero;stroke:none"
             d="m 0,0 -26.746,-20.84 c 0.544,-0.501 1.114,-0.962 1.707,-1.382 L 0.924,-1.994 C 0.661,-1.316 0.354,-0.65 0,0" /></g></g></g></g></svg>
