<?xml version="1.0" encoding="UTF-8" standalone="no"?>
<svg
   xmlns:dc="http://purl.org/dc/elements/1.1/"
   xmlns:cc="http://creativecommons.org/ns#"
   xmlns:rdf="http://www.w3.org/1999/02/22-rdf-syntax-ns#"
   xmlns:svg="http://www.w3.org/2000/svg"
   xmlns="http://www.w3.org/2000/svg"
   viewBox="0 0 79.998665 79.492798"
   height="79.492798"
   width="79.998665"
   xml:space="preserve"
   id="svg2"
   version="1.1"><metadata
     id="metadata8"><rdf:RDF><cc:Work
         rdf:about=""><dc:format>image/svg+xml</dc:format><dc:type
           rdf:resource="http://purl.org/dc/dcmitype/StillImage" /></cc:Work></rdf:RDF></metadata><defs
     id="defs6"><clipPath
       id="clipPath18"
       clipPathUnits="userSpaceOnUse"><path
         id="path16"
         d="M 0,59.62 H 59.999 V 0 H 0 Z" /></clipPath></defs><g
     transform="matrix(1.3333333,0,0,-1.3333333,0,79.4928)"
     id="g10"><g
       id="g12"><g
         clip-path="url(#clipPath18)"
         id="g14"><g
           transform="translate(29.9155,53.0474)"
           id="g20"><path
             id="path22"
             style="fill:#149080;fill-opacity:1;fill-rule:nonzero;stroke:none"
             d="M 0,0 C 4.269,0 7.723,1.47 7.723,3.286 7.723,5.1 4.269,6.572 0,6.572 -4.27,6.572 -7.729,5.1 -7.729,3.286 -7.729,1.47 -4.27,0 0,0 m 2.641,-29.904 v -23.143 l 27.442,15.938 v 23.144 z m 5.146,13.873 c 0,-1.817 -3.46,-3.287 -7.727,-3.287 -4.268,0 -7.729,1.47 -7.729,3.287 v 4.059 h 0.024 c 0.26,-1.715 3.603,-3.076 7.705,-3.076 4.101,0 7.443,1.361 7.705,3.076 H 7.787 Z M 21.43,-5.865 v -2.453 c 0,-1.817 -3.458,-3.289 -7.73,-3.289 -4.266,0 -7.727,1.472 -7.727,3.289 v 4.059 h 0.025 c 0.259,-1.715 3.603,-3.073 7.702,-3.073 4.272,0 7.729,1.474 7.729,3.285 0,1.819 -3.457,3.288 -7.729,3.288 -0.339,0 -0.675,-0.01 -1.002,-0.03 L 7.723,2.1 v -3.086 c 0,-1.817 -3.454,-3.29 -7.723,-3.29 -2.682,0 -5.044,0.583 -6.432,1.467 -0.196,0.204 -0.44,0.401 -0.733,0.586 -0.362,0.382 -0.564,0.797 -0.564,1.237 V 2 l -4.808,-2.792 c -0.346,0.017 -0.696,0.033 -1.053,0.033 -4.267,0 -7.727,-1.469 -7.727,-3.288 0,-1.811 3.46,-3.285 7.727,-3.285 4.099,0 7.445,1.358 7.704,3.073 h 0.022 v -4.059 c 0,-1.817 -3.455,-3.289 -7.726,-3.289 -4.267,0 -7.727,1.472 -7.727,3.289 v 2.421 l -5.952,-3.452 27.531,-15.986 27.351,15.882 z m -51.346,-31.244 27.439,-15.933 v 23.345 l -27.439,15.94 z" /></g></g></g></g></svg>
