<?xml version="1.0" encoding="UTF-8" standalone="no"?>
<svg
   xmlns:dc="http://purl.org/dc/elements/1.1/"
   xmlns:cc="http://creativecommons.org/ns#"
   xmlns:rdf="http://www.w3.org/1999/02/22-rdf-syntax-ns#"
   xmlns:svg="http://www.w3.org/2000/svg"
   xmlns="http://www.w3.org/2000/svg"
   viewBox="0 0 23.466133 23.4648"
   height="23.4648"
   width="23.466133"
   xml:space="preserve"
   id="svg2"
   version="1.1"><metadata
     id="metadata8"><rdf:RDF><cc:Work
         rdf:about=""><dc:format>image/svg+xml</dc:format><dc:type
           rdf:resource="http://purl.org/dc/dcmitype/StillImage" /></cc:Work></rdf:RDF></metadata><defs
     id="defs6"><clipPath
       id="clipPath18"
       clipPathUnits="userSpaceOnUse"><path
         id="path16"
         d="M 0,17.599 H 17.6 V 0 H 0 Z" /></clipPath></defs><g
     transform="matrix(1.3333333,0,0,-1.3333333,0,23.4648)"
     id="g10"><g
       id="g12"><g
         clip-path="url(#clipPath18)"
         id="g14"><g
           transform="translate(2.1982,9.9004)"
           id="g20"><path
             id="path22"
             style="fill-opacity:1;fill-rule:nonzero;stroke:none"
             d="M 0,0 C 0,3.038 2.462,5.5 5.5,5.5 8.538,5.5 11,3.038 11,0 11,-3.038 8.538,-5.5 5.5,-5.5 2.462,-5.5 0,-3.039 0,0 m 15.071,-8.031 -3.415,3.415 c 0.965,1.289 1.545,2.881 1.545,4.616 0,4.253 -3.447,7.698 -7.7,7.698 -4.253,0 -7.699,-3.445 -7.699,-7.698 0,-4.253 3.445,-7.7 7.698,-7.7 1.734,0 3.326,0.58 4.613,1.546 L 13.53,-9.57 c 0.203,-0.202 0.418,-0.33 0.772,-0.33 0.606,0 1.099,0.492 1.099,1.099 0,0.24 -0.061,0.499 -0.33,0.77" /></g></g></g></g></svg>
