<svg xmlns="http://www.w3.org/2000/svg" height="49.734" width="42.63"><defs><clipPath id="a" clipPathUnits="userSpaceOnUse"><path d="M0 37.301h31.972V0H0z"/></clipPath></defs><g clip-path="url(#a)" transform="matrix(1.33333 0 0 -1.33333 0 49.734)"><path d="M0 15.986C0 7.16 7.158 0 15.986 0c0 8.828-7.158 15.986-15.986 15.986m15.986 13.321a4.441 4.441 0 000-8.88 4.443 4.443 0 00-4.441 4.44c0 2.451 1.99 4.44 4.441 4.44M4.627 20.87a4.443 4.443 0 014.44-4.44c.933 0 1.804.293 2.514.782l-.036-.337a4.443 4.443 0 014.441-4.442c2.451 0 4.44 1.99 4.44 4.442l-.036.337a4.397 4.397 0 012.514-.783 4.443 4.443 0 014.44 4.441 4.418 4.418 0 01-2.54 3.997c1.492.71 2.54 2.23 2.54 3.996a4.442 4.442 0 01-6.954 3.66l.036.337a4.441 4.441 0 01-8.881 0l.036-.337a4.442 4.442 0 01-6.954-3.66 4.419 4.419 0 012.54-3.996 4.42 4.42 0 01-2.54-3.997M15.986 0c8.827 0 15.986 7.16 15.986 15.986-8.828 0-15.986-7.158-15.986-15.986" fill="#63d1bb"/></g></svg>