<svg xmlns="http://www.w3.org/2000/svg" height="43.315" width="43.555"><defs><clipPath id="a" clipPathUnits="userSpaceOnUse"><path d="M0 32.486h32.666V0H0z"/></clipPath></defs><g clip-path="url(#a)" transform="matrix(1.33333 0 0 -1.33333 0 43.315)"><path d="M17.271 0h12.506v13.91H17.271zm1.981 27.586c.557.797 1.21 1.466 1.887 1.916.679.451 1.362.683 2.047.683h.005c.575 0 1.118-.22 1.495-.55.377-.336.571-.739.573-1.171-.004-.512-.273-1.259-1.467-2.132-1.138-.825-3.101-1.673-6.127-2.265a10.57 10.57 0 001.587 3.519M8.715 25.959c-.622.391-1 .785-1.22 1.135-.22.353-.294.662-.296.963-.004.504.248 1.042.692 1.461.436.415 1.028.667 1.562.667h.013c.684 0 1.366-.232 2.046-.683 1.017-.671 1.974-1.85 2.644-3.187.342-.675.61-1.389.789-2.086-3.082.32-5.078 1-6.23 1.73m22.362-2.339h-7.335c.522.267.985.549 1.397.845 1.588 1.133 2.424 2.57 2.42 3.999.002 1.169-.556 2.202-1.36 2.901a4.582 4.582 0 01-3.015 1.121c-1.22.001-2.352-.421-3.321-1.069-1.459-.979-2.606-2.451-3.424-4.067-.039-.079-.078-.158-.115-.237a12.944 12.944 0 01-1.041 1.792c-.691.986-1.523 1.861-2.497 2.511-.97.647-2.102 1.069-3.322 1.069-1.213-.004-2.323-.513-3.155-1.295-.829-.783-1.411-1.884-1.413-3.134a4.095 4.095 0 01.65-2.188c.552-.872 1.424-1.628 2.633-2.248H1.591A1.591 1.591 0 010 22.03v-5.897h15.396v7.488h1.874v-7.488h15.396v5.897c.002.879-.71 1.59-1.589 1.59M2.895 0h12.504v13.91H2.895z" fill="#63d1bb"/></g></svg>