<?xml version="1.0" encoding="UTF-8" standalone="no"?>
<svg
   xmlns:dc="http://purl.org/dc/elements/1.1/"
   xmlns:cc="http://creativecommons.org/ns#"
   xmlns:rdf="http://www.w3.org/1999/02/22-rdf-syntax-ns#"
   xmlns:svg="http://www.w3.org/2000/svg"
   xmlns="http://www.w3.org/2000/svg"
   viewBox="0 0 134.23734 102.52213"
   height="102.52213"
   width="134.23734"
   xml:space="preserve"
   id="svg2"
   version="1.1"><metadata
     id="metadata8"><rdf:RDF><cc:Work
         rdf:about=""><dc:format>image/svg+xml</dc:format><dc:type
           rdf:resource="http://purl.org/dc/dcmitype/StillImage" /></cc:Work></rdf:RDF></metadata><defs
     id="defs6"><clipPath
       id="clipPath18"
       clipPathUnits="userSpaceOnUse"><path
         id="path16"
         d="M 0,76.892 H 100.678 V 0 H 0 Z" /></clipPath></defs><g
     transform="matrix(1.3333333,0,0,-1.3333333,0,102.52213)"
     id="g10"><g
       id="g12"><g
         clip-path="url(#clipPath18)"
         id="g14"><g
           transform="translate(96.9561,58.7422)"
           id="g20"><path
             id="path22"
             style="fill:#63d1bb;fill-opacity:1;fill-rule:nonzero;stroke:none"
             d="m 0,0 c 0,0 -0.92,7.008 -3.785,10.078 -3.632,4.041 -7.674,4.067 -9.541,4.297 -13.326,1.023 -33.303,1.023 -33.303,1.023 h -0.051 c 0,0 -19.978,0 -33.304,-1.023 -1.868,-0.229 -5.909,-0.256 -9.54,-4.297 C -92.364,6.982 -93.311,0 -93.311,0 c 0,0 -0.895,-8.211 -0.895,-16.422 v -7.699 c 0,-8.21 0.947,-16.421 0.947,-16.421 0,0 0.921,-7.009 3.785,-10.078 3.632,-4.041 8.364,-3.913 10.487,-4.349 7.622,-0.767 32.356,-1.022 32.356,-1.022 0,0 20.003,0.025 33.328,1.048 1.867,0.23 5.908,0.256 9.54,4.298 2.841,3.069 3.786,10.078 3.786,10.078 0,0 0.947,8.21 0.947,16.421 v 7.699 C 0.946,-8.211 0,0 0,0" /></g><g
           transform="translate(18.3711,6.498)"
           id="g24"><path
             id="path26"
             style="fill:#ffffff;fill-opacity:1;fill-rule:nonzero;stroke:none"
             d="m 0,0 c 7.477,-0.729 31.216,-0.989 31.968,-0.997 0.657,0.001 20.135,0.049 33.047,1.036 0.177,0.022 0.371,0.041 0.58,0.063 1.836,0.185 4.607,0.467 7.185,3.335 l 0.027,0.028 c 1.825,1.974 2.852,6.929 3.075,8.553 0.058,0.513 0.926,8.357 0.926,16.079 v 7.699 c -0.024,7.76 -0.897,15.627 -0.952,16.109 -0.32,2.382 -1.433,6.789 -3.065,8.539 l -0.035,0.038 c -2.577,2.869 -5.352,3.15 -7.187,3.336 -0.209,0.022 -0.401,0.041 -0.58,0.063 -13.065,0.997 -32.833,1.011 -33.032,1.011 h -0.051 c -0.198,0 -19.968,-0.014 -33.033,-1.011 -0.177,-0.022 -0.371,-0.041 -0.58,-0.063 -1.835,-0.186 -4.607,-0.467 -7.187,-3.336 l -0.018,-0.021 c -1.828,-1.992 -2.856,-6.924 -3.082,-8.552 -0.062,-0.591 -0.875,-8.399 -0.875,-16.089 v -7.699 c 0,-7.749 0.871,-15.598 0.926,-16.083 0.32,-2.381 1.433,-6.789 3.066,-8.539 L -8.842,3.46 C -6.521,0.876 -3.539,0.485 -1.363,0.201 -0.882,0.14 -0.424,0.08 0,0 M 31.943,-6.497 H 31.928 C 30.913,-6.486 6.981,-6.23 -0.676,-5.46 l -0.14,0.014 -0.137,0.028 c -0.272,0.056 -0.668,0.107 -1.126,0.167 -2.503,0.328 -7.159,0.938 -10.839,5.02 -3.354,3.615 -4.377,10.77 -4.483,11.575 l -0.005,0.043 c -0.039,0.342 -0.965,8.464 -0.965,16.736 v 7.699 c 0,8.266 0.875,16.378 0.912,16.72 l 0.009,0.071 c 0.108,0.802 1.155,7.928 4.473,11.557 3.997,4.439 8.532,4.899 10.712,5.121 0.193,0.021 0.37,0.037 0.53,0.059 l 0.126,0.012 c 13.277,1.02 33.312,1.032 33.514,1.032 h 0.051 c 0.201,0 20.235,-0.013 33.514,-1.032 l 0.126,-0.012 c 0.159,-0.022 0.337,-0.038 0.529,-0.059 2.179,-0.221 6.71,-0.682 10.703,-5.111 3.355,-3.617 4.378,-10.772 4.484,-11.577 l 0.004,-0.043 c 0.039,-0.343 0.965,-8.459 0.991,-16.753 v -7.708 c 0,-8.274 -0.926,-16.396 -0.965,-16.737 L 81.335,11.31 C 81.227,10.504 80.179,3.356 76.856,-0.253 72.862,-4.688 68.33,-5.148 66.149,-5.37 65.957,-5.39 65.778,-5.407 65.619,-5.427 L 65.493,-5.439 C 52.218,-6.46 32.16,-6.497 31.959,-6.498 Z" /></g><g
           transform="translate(38.4336,56.3125)"
           id="g28"><path
             id="path30"
             style="fill:#ffffff;fill-opacity:1;fill-rule:nonzero;stroke:none"
             d="m 0,0 v -35.708 l 29.747,17.854 z" /></g></g></g></g></svg>