<?xml version="1.0" encoding="UTF-8" standalone="no"?>
<svg
   xmlns:dc="http://purl.org/dc/elements/1.1/"
   xmlns:cc="http://creativecommons.org/ns#"
   xmlns:rdf="http://www.w3.org/1999/02/22-rdf-syntax-ns#"
   xmlns:svg="http://www.w3.org/2000/svg"
   xmlns="http://www.w3.org/2000/svg"
   viewBox="0 0 43.554668 43.315067"
   height="43.315067"
   width="43.554668"
   xml:space="preserve"
   id="svg2"
   version="1.1"><metadata
     id="metadata8"><rdf:RDF><cc:Work
         rdf:about=""><dc:format>image/svg+xml</dc:format><dc:type
           rdf:resource="http://purl.org/dc/dcmitype/StillImage" /></cc:Work></rdf:RDF></metadata><defs
     id="defs6"><clipPath
       id="clipPath18"
       clipPathUnits="userSpaceOnUse"><path
         id="path16"
         d="M 0,32.486 H 32.666 V 0 H 0 Z" /></clipPath></defs><g
     transform="matrix(1.3333333,0,0,-1.3333333,0,43.315067)"
     id="g10"><g
       id="g12"><g
         clip-path="url(#clipPath18)"
         id="g14"><path
           id="path20"
           style="fill:#63d1bb;fill-opacity:1;fill-rule:nonzero;stroke:none"
           d="M 17.271,0 H 29.777 V 13.91 H 17.271 Z m 1.981,27.586 c 0.557,0.797 1.21,1.466 1.887,1.916 0.679,0.451 1.362,0.683 2.047,0.683 h 0.005 c 0.575,0 1.118,-0.22 1.495,-0.55 0.377,-0.336 0.571,-0.739 0.573,-1.171 -0.004,-0.512 -0.273,-1.259 -1.467,-2.132 -1.138,-0.825 -3.101,-1.673 -6.127,-2.265 0.29,1.202 0.847,2.472 1.587,3.519 M 8.715,25.959 c -0.622,0.391 -1,0.785 -1.22,1.135 -0.22,0.353 -0.294,0.662 -0.296,0.963 -0.004,0.504 0.248,1.042 0.692,1.461 0.436,0.415 1.028,0.667 1.562,0.667 h 0.013 c 0.684,0 1.366,-0.232 2.046,-0.683 1.017,-0.671 1.974,-1.85 2.644,-3.187 0.342,-0.675 0.61,-1.389 0.789,-2.086 -3.082,0.32 -5.078,1 -6.23,1.73 M 31.077,23.62 h -7.335 c 0.522,0.267 0.985,0.549 1.397,0.845 1.588,1.133 2.424,2.57 2.42,3.999 0.002,1.169 -0.556,2.202 -1.36,2.901 -0.804,0.704 -1.869,1.119 -3.015,1.121 -1.22,0.001 -2.352,-0.421 -3.321,-1.069 -1.459,-0.979 -2.606,-2.451 -3.424,-4.067 -0.039,-0.079 -0.078,-0.158 -0.115,-0.237 -0.299,0.623 -0.647,1.226 -1.041,1.792 -0.691,0.986 -1.523,1.861 -2.497,2.511 -0.97,0.647 -2.102,1.069 -3.322,1.069 C 8.251,32.481 7.141,31.972 6.309,31.19 5.48,30.407 4.898,29.306 4.896,28.056 4.895,27.325 5.107,26.562 5.546,25.868 6.098,24.996 6.97,24.24 8.179,23.62 H 1.591 C 0.713,23.62 0,22.908 0,22.03 v -5.897 h 15.396 v 7.488 h 1.874 v -7.488 h 15.396 v 5.897 c 0.002,0.879 -0.71,1.59 -1.589,1.59 M 2.895,0 H 15.399 V 13.91 H 2.895 Z" /></g></g></g></svg>
