<svg xmlns="http://www.w3.org/2000/svg" height="32.443" width="33.105"><defs><clipPath id="a" clipPathUnits="userSpaceOnUse"><path d="M0 24.333h24.829V0H0z"/></clipPath></defs><g clip-path="url(#a)" transform="matrix(1.33333 0 0 -1.33333 0 32.443)"><path d="M17.32 0h-1.114C11.302.58 7.709 2.857 5.095 5.772 2.473 8.695.402 12.458 0 17.516v1.358c.09.92.544 1.549 1.067 2.085.65.666 1.63 1.522 2.522 1.554.659.022 1.78-.451 2.232-1.066.388-.53.595-1.591.775-2.379.185-.797.6-1.949.485-2.716-.176-1.196-1.764-1.704-2.231-2.572 1.55-3.721 4.089-6.456 7.472-8.345.847.464 1.595 1.864 2.767 1.891.427.012.97-.209 1.406-.34.476-.142.89-.326 1.31-.484.705-.266 1.957-.621 2.378-1.213.433-.61.68-1.608.58-2.231C20.572 1.824 18.539.455 17.322 0M12.529 22.805c5.949 0 10.77-4.822 10.77-10.771h1.53c0 6.792-5.506 12.299-12.3 12.299z"/><path d="M12.529 15.005v-1.552a1.42 1.42 0 001.42-1.42h1.554a2.972 2.972 0 01-2.974 2.972M12.529 18.086a6.054 6.054 0 006.056-6.054h1.588a7.642 7.642 0 01-7.644 7.641z"/></g></svg>