<?xml version="1.0" encoding="UTF-8" standalone="no"?>
<svg
   xmlns:dc="http://purl.org/dc/elements/1.1/"
   xmlns:cc="http://creativecommons.org/ns#"
   xmlns:rdf="http://www.w3.org/1999/02/22-rdf-syntax-ns#"
   xmlns:svg="http://www.w3.org/2000/svg"
   xmlns="http://www.w3.org/2000/svg"
   viewBox="0 0 42.629601 49.734402"
   height="49.734402"
   width="42.629601"
   xml:space="preserve"
   id="svg2"
   version="1.1"><metadata
     id="metadata8"><rdf:RDF><cc:Work
         rdf:about=""><dc:format>image/svg+xml</dc:format><dc:type
           rdf:resource="http://purl.org/dc/dcmitype/StillImage" /></cc:Work></rdf:RDF></metadata><defs
     id="defs6"><clipPath
       id="clipPath18"
       clipPathUnits="userSpaceOnUse"><path
         id="path16"
         d="M 0,37.301 H 31.972 V 0 H 0 Z" /></clipPath></defs><g
     transform="matrix(1.3333333,0,0,-1.3333333,0,49.7344)"
     id="g10"><g
       id="g12"><g
         clip-path="url(#clipPath18)"
         id="g14"><g
           transform="translate(0,15.9863)"
           id="g20"><path
             id="path22"
             style="fill:#231f20;fill-opacity:1;fill-rule:nonzero;stroke:none"
             d="M 0,0 C 0,-8.827 7.158,-15.986 15.986,-15.986 15.986,-7.158 8.828,0 0,0 m 15.986,13.321 c 2.451,0 4.44,-1.989 4.44,-4.44 0,-2.451 -1.989,-4.441 -4.44,-4.441 -2.451,0 -4.441,1.99 -4.441,4.441 0,2.451 1.99,4.44 4.441,4.44 M 4.627,4.884 c 0,-2.45 1.989,-4.441 4.44,-4.441 0.933,0 1.804,0.294 2.514,0.783 L 11.545,0.889 c 0,-2.452 1.99,-4.442 4.441,-4.442 2.451,0 4.44,1.99 4.44,4.442 L 20.39,1.226 c 0.719,-0.497 1.582,-0.783 2.514,-0.783 2.451,0 4.44,1.991 4.44,4.441 0,1.768 -1.038,3.286 -2.54,3.997 1.492,0.71 2.54,2.229 2.54,3.996 0,2.451 -1.989,4.441 -4.44,4.441 -0.932,0 -1.803,-0.293 -2.514,-0.781 l 0.036,0.337 c 0,2.451 -1.989,4.44 -4.44,4.44 -2.451,0 -4.441,-1.989 -4.441,-4.44 l 0.036,-0.337 c -0.72,0.497 -1.581,0.781 -2.514,0.781 -2.451,0 -4.44,-1.99 -4.44,-4.441 0,-1.767 1.039,-3.286 2.54,-3.996 C 5.666,8.17 4.627,6.652 4.627,4.884 m 11.359,-20.87 c 8.827,0 15.986,7.159 15.986,15.986 -8.828,0 -15.986,-7.158 -15.986,-15.986" /></g></g></g></g></svg>