<?xml version="1.0" encoding="UTF-8" standalone="no"?>
<svg
   xmlns:dc="http://purl.org/dc/elements/1.1/"
   xmlns:cc="http://creativecommons.org/ns#"
   xmlns:rdf="http://www.w3.org/1999/02/22-rdf-syntax-ns#"
   xmlns:svg="http://www.w3.org/2000/svg"
   xmlns="http://www.w3.org/2000/svg"
   viewBox="0 0 33.104801 32.443333"
   height="32.443333"
   width="33.104801"
   xml:space="preserve"
   id="svg2"
   version="1.1"><metadata
     id="metadata8"><rdf:RDF><cc:Work
         rdf:about=""><dc:format>image/svg+xml</dc:format><dc:type
           rdf:resource="http://purl.org/dc/dcmitype/StillImage" /></cc:Work></rdf:RDF></metadata><defs
     id="defs6"><clipPath
       id="clipPath18"
       clipPathUnits="userSpaceOnUse"><path
         id="path16"
         d="M 0,24.333 H 24.829 V 0 H 0 Z" /></clipPath></defs><g
     transform="matrix(1.3333333,0,0,-1.3333333,0,32.443333)"
     id="g10"><g
       id="g12"><g
         clip-path="url(#clipPath18)"
         id="g14"><g
           transform="translate(17.3208)"
           id="g20"><path
             id="path22"
             style="fill:#000000;fill-opacity:1;fill-rule:nonzero;stroke:none"
             d="m 0,0 h -1.115 c -4.904,0.58 -8.497,2.857 -11.111,5.772 -2.622,2.923 -4.693,6.686 -5.095,11.744 v 1.358 c 0.091,0.92 0.544,1.549 1.067,2.085 0.65,0.666 1.63,1.522 2.522,1.554 0.659,0.022 1.78,-0.451 2.232,-1.066 0.388,-0.53 0.595,-1.591 0.775,-2.379 0.185,-0.797 0.6,-1.949 0.485,-2.716 -0.176,-1.196 -1.764,-1.704 -2.231,-2.572 1.551,-3.721 4.089,-6.456 7.472,-8.345 0.847,0.464 1.595,1.864 2.767,1.891 0.427,0.012 0.971,-0.209 1.406,-0.34 C -0.35,6.844 0.064,6.66 0.484,6.502 1.189,6.236 2.441,5.881 2.862,5.289 3.295,4.679 3.543,3.681 3.443,3.058 3.25,1.824 1.217,0.455 0,0" /></g><g
           transform="translate(12.5288,22.8047)"
           id="g24"><path
             id="path26"
             style="fill:#000000;fill-opacity:1;fill-rule:nonzero;stroke:none"
             d="M 0,0 C 5.949,0 10.771,-4.822 10.771,-10.771 H 12.3 C 12.3,-3.979 6.794,1.528 0,1.528 Z" /></g><g
           transform="translate(12.5288,15.0054)"
           id="g28"><path
             id="path30"
             style="fill:#000000;fill-opacity:1;fill-rule:nonzero;stroke:none"
             d="m 0,0 v -1.552 c 0.785,0 1.421,-0.636 1.421,-1.42 H 2.974 C 2.974,-1.33 1.644,0 0,0" /></g><g
           transform="translate(12.5288,18.0864)"
           id="g32"><path
             id="path34"
             style="fill:#000000;fill-opacity:1;fill-rule:nonzero;stroke:none"
             d="M 0,0 C 3.345,0 6.056,-2.71 6.056,-6.054 H 7.644 C 7.644,-1.834 4.222,1.587 0,1.587 Z" /></g></g></g></g></svg>