<?xml version="1.0" encoding="UTF-8" standalone="no"?>
<svg
   xmlns:dc="http://purl.org/dc/elements/1.1/"
   xmlns:cc="http://creativecommons.org/ns#"
   xmlns:rdf="http://www.w3.org/1999/02/22-rdf-syntax-ns#"
   xmlns:svg="http://www.w3.org/2000/svg"
   xmlns="http://www.w3.org/2000/svg"
   viewBox="0 0 72.208397 30.910801"
   height="30.910801"
   width="72.208397"
   xml:space="preserve"
   id="svg2"
   version="1.1"><metadata
     id="metadata8"><rdf:RDF><cc:Work
         rdf:about=""><dc:format>image/svg+xml</dc:format><dc:type
           rdf:resource="http://purl.org/dc/dcmitype/StillImage" /></cc:Work></rdf:RDF></metadata><defs
     id="defs6"><clipPath
       id="clipPath18"
       clipPathUnits="userSpaceOnUse"><path
         id="path16"
         d="M 0,23.183 H 54.156 V 0 H 0 Z" /></clipPath></defs><g
     transform="matrix(1.3333333,0,0,-1.3333333,0,30.9108)"
     id="g10"><g
       id="g12"><g
         clip-path="url(#clipPath18)"
         id="g14"><g
           transform="translate(40.3115,17.4717)"
           id="g20"><path
             id="path22"
             style="fill:#63d1bb;fill-opacity:1;fill-rule:nonzero;stroke:none"
             d="m 0,0 c -3.647,0.971 -7.839,1.667 -12.359,1.666 -2.891,-10e-4 -5.457,-0.243 -7.71,-0.623 l -6.785,4.668 -13.456,-0.005 5.811,-6.184 h 8.447 c -4.58,-1.598 -6.759,-3.515 -6.759,-3.515 l 0.002,-3.777 c 0,0 2.314,-1.912 6.931,-3.517 l -8.623,0.005 -5.811,-6.188 13.456,-0.002 6.816,4.693 c 2.261,-0.399 4.822,-0.648 7.681,-0.649 4.522,0.001 8.712,0.698 12.36,1.667 -1.176,1.776 -1.915,3.743 -1.918,5.877 C -1.914,-3.745 -1.179,-1.773 0,0" /></g><g
           transform="translate(43.7344,16.4375)"
           id="g24"><path
             id="path26"
             style="fill:#63d1bb;fill-opacity:1;fill-rule:nonzero;stroke:none"
             d="m 0,0 c -1.284,-1.605 -1.969,-3.25 -1.965,-4.84 -0.007,-1.597 0.677,-3.238 1.968,-4.847 6.399,2.163 10.419,4.841 10.419,4.841 0,0 -4.019,2.679 -10.422,4.846" /></g></g></g></g></svg>
