<?xml version="1.0" encoding="UTF-8" standalone="no"?>
<svg
   xmlns:dc="http://purl.org/dc/elements/1.1/"
   xmlns:cc="http://creativecommons.org/ns#"
   xmlns:rdf="http://www.w3.org/1999/02/22-rdf-syntax-ns#"
   xmlns:svg="http://www.w3.org/2000/svg"
   xmlns="http://www.w3.org/2000/svg"
   viewBox="0 0 42.666668 28"
   height="28"
   width="42.666668"
   xml:space="preserve"
   id="svg2"
   version="1.1"><metadata
     id="metadata8"><rdf:RDF><cc:Work
         rdf:about=""><dc:format>image/svg+xml</dc:format><dc:type
           rdf:resource="http://purl.org/dc/dcmitype/StillImage" /></cc:Work></rdf:RDF></metadata><defs
     id="defs6"><clipPath
       id="clipPath18"
       clipPathUnits="userSpaceOnUse"><path
         id="path16"
         d="M 0,21 H 32 V 0 H 0 Z" /></clipPath></defs><g
     transform="matrix(1.3333333,0,0,-1.3333333,0,28)"
     id="g10"><g
       id="g12"><g
         clip-path="url(#clipPath18)"
         id="g14"><g
           transform="translate(17.1992,7.3984)"
           id="g20"><path
             id="path22"
             style="fill:#333333;fill-opacity:1;fill-rule:nonzero;stroke:none"
             d="m 0,0 c -0.35,-0.263 -0.763,-0.4 -1.199,-0.4 -0.436,0 -0.851,0.138 -1.2,0.4 l -4.135,3.102 -0.833,0.625 -7.832,5.874 v 10e-4 c 0,1.103 0.897,2 2,2 h 24 c 1.101,0 2,-0.897 2,-2 z m 12.801,-2.148 -7,5.25 7,5.25 z m 0,-1.25 c 0,-1.104 -0.899,-2 -2,-2 h -24 c -1.103,0 -2,0.896 -2,2 l 7.832,5.875 4.368,-3.278 c 0.533,-0.397 1.166,-0.599 1.8,-0.599 0.633,0 1.265,0.201 1.799,0.599 l 4.369,3.278 z m -28,11.75 6.999,-5.25 -6.999,-5.25 z m 26,5.25 h -24 c -2.209,0 -4,-1.792 -4,-4 v -13 c 0,-2.209 1.791,-4 4,-4 h 24 c 2.209,0 4,1.791 4,4 v 13 c 0,2.208 -1.791,4 -4,4" /></g></g></g></g></svg>