<svg xmlns="http://www.w3.org/2000/svg" height="83.215" width="53.626"><defs><clipPath id="a" clipPathUnits="userSpaceOnUse"><path d="M0 62.411h40.219V0H0z"/></clipPath></defs><g clip-path="url(#a)" transform="matrix(1.33333 0 0 -1.33333 0 83.215)"><path d="M15.178 24.453c-.286-.966-.245-2.19.027-3.639.494-2.634 1.686-6.04 2.358-9.67h5.062c.697 3.641 1.949 7.05 2.47 9.683.288 1.445.33 2.66.04 3.617-.273.9-.89 1.618-2.02 2.303h-5.997c-1.074-.679-1.674-1.39-1.94-2.294M27.01 4.458h-13.8c-1.293 0-2.3-.976-2.3-2.229V0H29.308v2.229c0 1.253-1.006 2.229-2.299 2.229M34.142 60.182H22.41c0 1.244-1.016 2.23-2.3 2.23-1.284 0-2.3-.986-2.3-2.23H6.072L0 34.665c.794.462 1.59.993 2.632.993 1.36 0 2.242-.818 2.924-1.376.682-.557 1.161-.849 1.447-.849.291 0 .768.288 1.451.836.681.55 1.563 1.358 2.915 1.358 1.348 0 2.236-.805 2.92-1.353.682-.549 1.16-.84 1.45-.84.146 0 .338.072.58.214.241.141.53.352.871.626.512.411 1.14.968 1.99 1.22.284.084.592.134.93.134 1.346 0 2.237-.805 2.92-1.354.682-.548 1.158-.84 1.45-.84.287.002.766.296 1.446.85.684.553 1.57 1.366 2.924 1.366 1.357 0 2.24-.817 2.92-1.37.342-.277.631-.49.872-.632.24-.143.431-.214.574-.214.288 0 .762.293 1.443.854.68.56 1.567 1.384 2.928 1.384 1.045 0 1.84-.533 2.632-.997zM23.523 8.916H16.66c-.657 0-1.15-.479-1.15-1.115 0-.635.493-1.114 1.15-1.114h6.9c.655 0 1.15.479 1.15 1.114 0 .636-.495 1.115-1.15 1.115zM20.11 33.4c-.147 0-.339-.074-.58-.213-.157-.094-.37-.261-.57-.41v-3.731h2.3v3.73c-.507.38-.91.624-1.15.624" fill="#149080"/></g></svg>