<svg xmlns="http://www.w3.org/2000/svg" height="28" width="42.667"><defs><clipPath id="a" clipPathUnits="userSpaceOnUse"><path d="M0 21h32V0H0z"/></clipPath></defs><g clip-path="url(#a)" transform="matrix(1.33333 0 0 -1.33333 0 28)"><path d="M17.2 7.398c-.35-.263-.764-.4-1.2-.4-.436 0-.85.138-1.2.4L10.665 10.5l-.833.625L2 17V17c0 1.103.897 2 2 2h24c1.101 0 2-.897 2-2zM30 5.25l-7 5.25 7 5.25zM30 4c0-1.104-.899-2-2-2H4c-1.103 0-2 .896-2 2l7.832 5.875L14.2 6.597a3.007 3.007 0 013.599 0l4.37 3.278zM2 15.75l7-5.25-7-5.25zM28 21H4a4 4 0 01-4-4V4a4 4 0 014-4h24a4 4 0 014 4v13a4 4 0 01-4 4"/></g></svg>