<svg xmlns="http://www.w3.org/2000/svg" height="79.493" width="79.999"><defs><clipPath id="a" clipPathUnits="userSpaceOnUse"><path d="M0 59.62h59.999V0H0z"/></clipPath></defs><g clip-path="url(#a)" transform="matrix(1.33333 0 0 -1.33333 0 79.493)"><path d="M29.916 53.047c4.269 0 7.723 1.47 7.723 3.286 0 1.814-3.455 3.286-7.724 3.286-4.27 0-7.728-1.472-7.728-3.286 0-1.816 3.459-3.286 7.729-3.286m2.64-29.904V0L60 15.938v23.144zm5.147 13.873c0-1.817-3.46-3.287-7.728-3.287s-7.729 1.47-7.729 3.287v4.06h.025c.26-1.716 3.603-3.077 7.705-3.077 4.1 0 7.443 1.361 7.705 3.076h.022zm13.642 10.166V44.73c0-1.817-3.457-3.289-7.73-3.289-4.266 0-7.727 1.472-7.727 3.29v4.058h.025c.26-1.715 3.603-3.073 7.702-3.073 4.272 0 7.73 1.474 7.73 3.285 0 1.82-3.458 3.288-7.73 3.288-.339 0-.675-.01-1.002-.03l-4.975 2.89V52.06c0-1.817-3.454-3.29-7.723-3.29-2.682 0-5.044.583-6.432 1.467-.196.204-.44.401-.733.586-.362.382-.564.797-.564 1.237v2.986l-4.808-2.792c-.346.017-.696.033-1.053.033-4.267 0-7.727-1.469-7.727-3.288 0-1.81 3.46-3.285 7.727-3.285 4.1 0 7.445 1.358 7.704 3.073h.022V44.73c0-1.817-3.455-3.289-7.726-3.289-4.267 0-7.727 1.472-7.727 3.29v2.42l-5.952-3.452 27.531-15.986 27.351 15.882zM0 15.938L27.439.005V23.35L-.001 39.29z" fill="#149080"/></g></svg>