<?xml version="1.0" encoding="UTF-8" standalone="no"?>
<svg
   xmlns:dc="http://purl.org/dc/elements/1.1/"
   xmlns:cc="http://creativecommons.org/ns#"
   xmlns:rdf="http://www.w3.org/1999/02/22-rdf-syntax-ns#"
   xmlns:svg="http://www.w3.org/2000/svg"
   xmlns="http://www.w3.org/2000/svg"
   viewBox="0 0 27.0592 25.132133"
   height="25.132133"
   width="27.0592"
   xml:space="preserve"
   id="svg2"
   version="1.1"><metadata
     id="metadata8"><rdf:RDF><cc:Work
         rdf:about=""><dc:format>image/svg+xml</dc:format><dc:type
           rdf:resource="http://purl.org/dc/dcmitype/StillImage" /></cc:Work></rdf:RDF></metadata><defs
     id="defs6"><clipPath
       id="clipPath18"
       clipPathUnits="userSpaceOnUse"><path
         id="path16"
         d="M 0,18.849 H 20.294 V 0 H 0 Z" /></clipPath></defs><g
     transform="matrix(1.3333333,0,0,-1.3333333,0,25.132133)"
     id="g10"><g
       id="g12"><g
         clip-path="url(#clipPath18)"
         id="g14"><g
           transform="translate(17.0166,7.2842)"
           id="g20"><path
             id="path22"
             style="fill:#231f20;fill-opacity:1;fill-rule:nonzero;stroke:none"
             d="m 0,0 h -13.739 l -0.81,2.836 H 0.811 Z M -1.653,-5.784 H -12.086 L -13.31,-1.5 H -0.429 Z M 2.528,4.336 H -0.623 L -4.03,11.15 c -0.185,0.371 -0.635,0.52 -1.007,0.336 -0.37,-0.186 -0.52,-0.636 -0.335,-1.007 l 3.071,-6.143 h -9.137 l 3.071,6.143 c 0.185,0.371 0.035,0.821 -0.335,1.007 -0.37,0.184 -0.821,0.035 -1.006,-0.336 l -3.407,-6.814 h -3.152 c -0.414,0 -0.75,-0.336 -0.75,-0.75 0,-0.414 0.336,-0.75 0.75,-0.75 h 0.158 l 0.855,-2.991 c -0.187,-0.137 -0.316,-0.346 -0.316,-0.595 0,-0.396 0.309,-0.71 0.696,-0.739 l 1.656,-5.795 h 12.697 l 1.656,5.795 c 0.388,0.028 0.698,0.343 0.698,0.739 0,0.249 -0.13,0.459 -0.317,0.596 l 0.855,2.99 h 0.157 c 0.414,0 0.75,0.336 0.75,0.75 0,0.414 -0.336,0.75 -0.75,0.75" /></g></g></g></g></svg>