<?xml version="1.0" encoding="UTF-8" standalone="no"?>
<svg
   xmlns:dc="http://purl.org/dc/elements/1.1/"
   xmlns:cc="http://creativecommons.org/ns#"
   xmlns:rdf="http://www.w3.org/1999/02/22-rdf-syntax-ns#"
   xmlns:svg="http://www.w3.org/2000/svg"
   xmlns="http://www.w3.org/2000/svg"
   viewBox="0 0 42.666668 29.333332"
   height="29.333332"
   width="42.666668"
   xml:space="preserve"
   id="svg2"
   version="1.1"><metadata
     id="metadata8"><rdf:RDF><cc:Work
         rdf:about=""><dc:format>image/svg+xml</dc:format><dc:type
           rdf:resource="http://purl.org/dc/dcmitype/StillImage" /></cc:Work></rdf:RDF></metadata><defs
     id="defs6"><clipPath
       id="clipPath18"
       clipPathUnits="userSpaceOnUse"><path
         id="path16"
         d="M 0,22 H 32 V 0 H 0 Z" /></clipPath></defs><g
     transform="matrix(1.3333333,0,0,-1.3333333,0,29.333333)"
     id="g10"><g
       id="g12"><g
         clip-path="url(#clipPath18)"
         id="g14"><g
           transform="translate(20,11)"
           id="g20"><path
             id="path22"
             style="fill:#000000;fill-opacity:1;fill-rule:nonzero;stroke:none"
             d="m 0,0 c 0,0.553 -0.447,1 -1,1 h -4 c -0.553,0 -1,-0.447 -1,-1 0,-0.553 0.447,-1 1,-1 h 4 c 0.553,0 1,0.447 1,1 m -8,1 h -8 v -8 h 8 z M 4,1 v -8 c 0,-2.209 -1.791,-4 -4,-4 h -16 c -2.209,0 -4,1.791 -4,4 v 8 c 0,2.209 1.791,4 4,4 h 10 c 0,1.105 0.895,2 2,2 v 2 h -11 c -0.553,0 -1,0.447 -1,1 0,0.553 0.447,1 1,1 h 12 c 0.553,0 1,-0.447 1,-1 V 7 C -0.895,7 0,6.105 0,5 2.209,5 4,3.209 4,1 m 2,0 6,4 v -16 l -6,4 z" /></g></g></g></g></svg>