<svg xmlns="http://www.w3.org/2000/svg" height="30.911" width="72.208"><defs><clipPath id="a" clipPathUnits="userSpaceOnUse"><path d="M0 23.183h54.156V0H0z"/></clipPath></defs><g clip-path="url(#a)" transform="matrix(1.33333 0 0 -1.33333 0 30.91)"><path d="M40.312 17.472c-3.647.97-7.84 1.667-12.36 1.666a46.394 46.394 0 01-7.71-.623l-6.785 4.668-13.456-.005 5.811-6.184h8.447C9.68 15.396 7.5 13.479 7.5 13.479l.002-3.777s2.314-1.912 6.931-3.517L5.81 6.19 0 .002 13.454 0l6.816 4.693a44.268 44.268 0 017.681-.65c4.522.002 8.712.699 12.36 1.668-1.175 1.776-1.914 3.743-1.917 5.877.003 2.139.738 4.11 1.917 5.884M43.734 16.438c-1.284-1.605-1.969-3.25-1.965-4.84-.007-1.598.677-3.239 1.968-4.848 6.4 2.163 10.42 4.841 10.42 4.841s-4.02 2.68-10.423 4.847" fill="#63d1bb"/></g></svg>