<?xml version="1.0" encoding="UTF-8" standalone="no"?>
<svg
   xmlns:dc="http://purl.org/dc/elements/1.1/"
   xmlns:cc="http://creativecommons.org/ns#"
   xmlns:rdf="http://www.w3.org/1999/02/22-rdf-syntax-ns#"
   xmlns:svg="http://www.w3.org/2000/svg"
   xmlns="http://www.w3.org/2000/svg"
   viewBox="0 0 53.625599 83.214798"
   height="83.214798"
   width="53.625599"
   xml:space="preserve"
   id="svg2"
   version="1.1"><metadata
     id="metadata8"><rdf:RDF><cc:Work
         rdf:about=""><dc:format>image/svg+xml</dc:format><dc:type
           rdf:resource="http://purl.org/dc/dcmitype/StillImage" /></cc:Work></rdf:RDF></metadata><defs
     id="defs6"><clipPath
       id="clipPath18"
       clipPathUnits="userSpaceOnUse"><path
         id="path16"
         d="M 0,62.411 H 40.219 V 0 H 0 Z" /></clipPath></defs><g
     transform="matrix(1.3333333,0,0,-1.3333333,0,83.2148)"
     id="g10"><g
       id="g12"><g
         clip-path="url(#clipPath18)"
         id="g14"><g
           transform="translate(15.1777,24.4531)"
           id="g20"><path
             id="path22"
             style="fill:#000000;fill-opacity:1;fill-rule:nonzero;stroke:none"
             d="m 0,0 c -0.286,-0.966 -0.245,-2.191 0.027,-3.639 0.494,-2.634 1.686,-6.041 2.358,-9.67 h 5.062 c 0.697,3.641 1.949,7.05 2.471,9.683 0.287,1.445 0.33,2.66 0.04,3.617 -0.274,0.9 -0.89,1.618 -2.021,2.303 H 1.94 C 0.866,1.615 0.266,0.903 0,0" /></g><g
           transform="translate(27.0093,4.458)"
           id="g24"><path
             id="path26"
             style="fill:#000000;fill-opacity:1;fill-rule:nonzero;stroke:none"
             d="m 0,0 h -13.799 c -1.293,0 -2.3,-0.976 -2.3,-2.229 v -2.229 h 2.3 H 0 2.299 v 2.229 C 2.299,-0.976 1.293,0 0,0" /></g><g
           transform="translate(34.1421,60.1821)"
           id="g28"><path
             id="path30"
             style="fill:#000000;fill-opacity:1;fill-rule:nonzero;stroke:none"
             d="m 0,0 h -11.732 c 0,1.244 -1.016,2.229 -2.301,2.229 -1.283,0 -2.3,-0.985 -2.3,-2.229 h -11.736 l -6.073,-25.517 c 0.794,0.462 1.589,0.993 2.632,0.993 1.359,0 2.242,-0.818 2.924,-1.376 0.682,-0.557 1.161,-0.849 1.447,-0.849 0.291,-0.001 0.768,0.288 1.451,0.836 0.681,0.549 1.563,1.358 2.915,1.358 1.348,0 2.236,-0.805 2.919,-1.353 0.683,-0.549 1.16,-0.841 1.451,-0.841 0.146,0 0.338,0.073 0.579,0.215 0.242,0.141 0.531,0.352 0.872,0.626 0.512,0.411 1.139,0.968 1.99,1.219 0.284,0.085 0.592,0.135 0.929,0.135 1.347,0 2.238,-0.805 2.92,-1.354 0.683,-0.548 1.159,-0.84 1.451,-0.84 0.287,0.002 0.766,0.296 1.446,0.85 0.684,0.553 1.57,1.366 2.924,1.366 1.357,0 2.24,-0.817 2.92,-1.371 0.342,-0.276 0.631,-0.489 0.872,-0.631 0.24,-0.143 0.431,-0.214 0.574,-0.214 0.288,0 0.762,0.293 1.443,0.854 0.68,0.559 1.567,1.384 2.928,1.384 1.045,0 1.84,-0.533 2.632,-0.997 z" /></g><g
           transform="translate(23.5234,8.916)"
           id="g32"><path
             id="path34"
             style="fill:#000000;fill-opacity:1;fill-rule:nonzero;stroke:none"
             d="m 0,0 h -6.864 c -0.657,0 -1.15,-0.479 -1.15,-1.115 0,-0.635 0.493,-1.114 1.15,-1.114 h 6.9 c 0.655,0 1.15,0.479 1.15,1.114 C 1.186,-0.479 0.691,0 0.036,0 Z" /></g><g
           transform="translate(20.1094,33.3999)"
           id="g36"><path
             id="path38"
             style="fill:#000000;fill-opacity:1;fill-rule:nonzero;stroke:none"
             d="m 0,0 c -0.146,0 -0.338,-0.074 -0.58,-0.213 -0.156,-0.094 -0.37,-0.261 -0.569,-0.41 V -4.354 H 1.15 v 3.731 C 0.644,-0.244 0.241,0 0,0" /></g></g></g></g></svg>