<svg xmlns="http://www.w3.org/2000/svg" height="102.522" width="134.237"><defs><clipPath id="a" clipPathUnits="userSpaceOnUse"><path d="M0 76.892h100.678V0H0z"/></clipPath></defs><g clip-path="url(#a)" transform="matrix(1.33333 0 0 -1.33333 0 102.522)"><path d="M96.956 58.742s-.92 7.008-3.785 10.078c-3.632 4.041-7.674 4.067-9.54 4.297-13.327 1.023-33.304 1.023-33.304 1.023h-.05s-19.979 0-33.305-1.023c-1.868-.229-5.909-.256-9.54-4.297-2.84-3.096-3.787-10.078-3.787-10.078s-.895-8.21-.895-16.422v-7.699c0-8.21.947-16.42.947-16.42s.921-7.01 3.785-10.079c3.632-4.04 8.364-3.913 10.487-4.349 7.622-.767 32.356-1.022 32.356-1.022s20.003.025 33.328 1.048c1.867.23 5.908.256 9.54 4.298 2.841 3.07 3.786 10.078 3.786 10.078s.947 8.21.947 16.421v7.7c-.024 8.235-.97 16.446-.97 16.446" fill="#63d1bb"/><path d="M18.371 6.498c7.477-.729 31.216-.989 31.968-.997.657.001 20.135.049 33.047 1.036.177.022.371.041.58.063 1.836.185 4.607.467 7.185 3.335l.027.028c1.825 1.974 2.852 6.929 3.075 8.553.058.513.926 8.357.926 16.079v7.699c-.024 7.76-.897 15.627-.952 16.109-.32 2.382-1.433 6.789-3.065 8.539l-.035.038c-2.577 2.869-5.352 3.15-7.187 3.336-.209.022-.4.041-.58.063-13.065.997-32.833 1.011-33.032 1.011h-.05c-.199 0-19.969-.014-33.034-1.011-.177-.022-.37-.041-.58-.063-1.835-.186-4.607-.467-7.187-3.336l-.018-.021c-1.828-1.992-2.856-6.924-3.082-8.552-.062-.591-.875-8.399-.875-16.089v-7.699c0-7.749.871-15.598.926-16.083.32-2.381 1.433-6.789 3.066-8.539l.035-.039c2.321-2.584 5.303-2.975 7.48-3.259.48-.061.938-.121 1.362-.201M50.314.001H50.3c-1.015.011-24.947.267-32.604 1.037l-.14.014-.137.028c-.272.056-.668.107-1.126.167-2.503.328-7.159.938-10.839 5.02C2.1 9.882 1.076 17.037.97 17.842l-.005.043C.926 18.227 0 26.349 0 34.621v7.699c0 8.266.875 16.378.912 16.72l.01.071c.107.802 1.154 7.928 4.472 11.557 3.997 4.439 8.532 4.899 10.712 5.121.193.021.37.037.53.059l.126.012c13.277 1.02 33.312 1.032 33.514 1.032h.051c.201 0 20.235-.013 33.514-1.032l.126-.012c.16-.022.337-.038.53-.059 2.178-.221 6.71-.682 10.702-5.111 3.355-3.617 4.378-10.772 4.484-11.577l.004-.043c.04-.343.965-8.459.991-16.753v-7.708c0-8.274-.926-16.396-.965-16.737l-.007-.052c-.108-.806-1.156-7.954-4.479-11.563C91.233 1.81 86.701 1.35 84.52 1.128c-.192-.02-.37-.037-.53-.057l-.126-.012C70.59.038 50.531.001 50.33 0z" fill="#fff"/><path d="M38.434 56.313V20.603L68.18 38.46z" fill="#fff"/></g></svg>