<?xml version="1.0" encoding="UTF-8" standalone="no"?>
<svg
   xmlns:dc="http://purl.org/dc/elements/1.1/"
   xmlns:cc="http://creativecommons.org/ns#"
   xmlns:rdf="http://www.w3.org/1999/02/22-rdf-syntax-ns#"
   xmlns:svg="http://www.w3.org/2000/svg"
   xmlns="http://www.w3.org/2000/svg"
   viewBox="0 0 62.100266 36.442001"
   height="36.442001"
   width="62.100266"
   xml:space="preserve"
   id="svg2"
   version="1.1"><metadata
     id="metadata8"><rdf:RDF><cc:Work
         rdf:about=""><dc:format>image/svg+xml</dc:format><dc:type
           rdf:resource="http://purl.org/dc/dcmitype/StillImage" /></cc:Work></rdf:RDF></metadata><defs
     id="defs6"><clipPath
       id="clipPath18"
       clipPathUnits="userSpaceOnUse"><path
         id="path16"
         d="M 0,27.332 H 46.575 V 0 H 0 Z" /></clipPath></defs><g
     transform="matrix(1.3333333,0,0,-1.3333333,0,36.442)"
     id="g10"><g
       id="g12"><g
         clip-path="url(#clipPath18)"
         id="g14"><path
           id="path20"
           style="fill:#63d1bb;fill-opacity:1;fill-rule:nonzero;stroke:none"
           d="M 3.023,24.615 H 43.225 V 2.382 H 3.023 Z M 42.67,27.332 H 3.904 C 1.748,27.332 0,25.583 0,23.427 V 3.905 C 0,1.749 1.748,0 3.904,0 H 42.67 c 2.156,0 3.905,1.749 3.905,3.905 v 19.522 c 0,2.156 -1.749,3.905 -3.905,3.905" /><g
           transform="translate(23.2876,18.8125)"
           id="g22"><path
             id="path24"
             style="fill:#63d1bb;fill-opacity:1;fill-rule:nonzero;stroke:none"
             d="m 0,0 c 2.936,0 5.315,-2.38 5.315,-5.314 0,-2.936 -2.379,-5.315 -5.315,-5.315 -2.936,0 -5.314,2.379 -5.314,5.315 C -5.314,-2.38 -2.936,0 0,0 M -16.36,-12.526 H 16.035 V 1.898 H -16.36 Z" /></g></g></g></g></svg>
