<svg xmlns="http://www.w3.org/2000/svg" height="23.465" width="23.466"><defs><clipPath id="a" clipPathUnits="userSpaceOnUse"><path d="M0 17.599h17.6V0H0z"/></clipPath></defs><g clip-path="url(#a)" transform="matrix(1.33333 0 0 -1.33333 0 23.465)"><path d="M2.198 9.9a5.5 5.5 0 1011 0 5.5 5.5 0 00-5.5-5.5 5.499 5.499 0 00-5.5 5.5M17.27 1.87l-3.415 3.414A7.67 7.67 0 0115.4 9.9a7.698 7.698 0 01-7.7 7.698A7.697 7.697 0 010 9.9c0-4.253 3.445-7.7 7.698-7.7 1.734 0 3.326.58 4.613 1.546L15.728.33c.203-.202.418-.33.772-.33a1.1 1.1 0 011.1 1.1c0 .24-.062.498-.33.77"/></g></svg>