<svg xmlns="http://www.w3.org/2000/svg" height="26.891" width="31.325"><defs><clipPath id="a" clipPathUnits="userSpaceOnUse"><path d="M0 20.168h23.494V0H0z"/></clipPath></defs><g clip-path="url(#a)" transform="matrix(1.33333 0 0 -1.33333 0 26.89)"><path d="M14.857 14.602c.163-.135.284-.31.52-.37.1-.222.313-.328.592-.37.047.15.346.048.37.221.174.023.166.23.296.297-.017.55-.129 1.006-.37 1.333-.758.424-1.676-.038-1.408-1.11m5.483 3.037c-.129-.34-.23-.707-.592-.815-.017.105-.122.125-.148.222-.012.21.21.185.296.296.163.085.245.248.444.297-.006.09.11.046 0 0m-.295-5.632c-.154-.858-.616-1.41-1.039-2 .06-.38-.103-.538-.073-.888a4.327 4.327 0 01-.37-1.038c-.204-.267-.333-.607-.519-.89-.367-.548-.778-1.05-1.186-1.557-.378-.558-.912-.965-1.334-1.48-.42-.494-.942-.886-1.407-1.335a4.967 4.967 0 01-1.26-.667 5.06 5.06 0 01-.667-.296c-.177-.146-.499-.145-.668-.297-1.086-.147-2.3-.17-3.555-.148-1.03.105-2.115.16-3.039.371-.923.19-1.51.712-2.297 1.037.153.242.634.154.963.221.031.166.394.003.444.15.257-.06.285.11.52.073.563.201 1.23.302 1.704.593.282.138.406.433.667.593.033.19.103.34.221.444.048.275.202.441.15.815.11.21.298.343.295.667-.074.148-.128.317-.296.372-.026.196-.378.067-.444.221-.255-.032-.416.03-.593.075-.154.043-.487-.09-.519.074-.842.023-1.3.43-1.853.74.431.262 1.032.352 1.334.742.516.076 1.057.13 1.112.666 0 .717-.77.661-1.333.815-.774.661-1.195 1.672-1.779 2.52.238.157.564.226.74.444.455-.057.54.251.667.52.02.488-.332.605-.592.815a3.47 3.47 0 00-.667.741c-.003.818-.022 1.651.074 2.371.063.014.07-.029.074-.074.226-.44.56-.775.815-1.186.532-.357.925-.853 1.556-1.11.452-.414 1.11-.623 1.557-1.039.6-.263 1.158-.57 1.704-.889.67-.195 1.056-.673 2.001-.593.198.098.393.2.593.297.257.456-.059 1.08.147 1.63.255.66.797 1.031 1.26 1.482.29.155.555.335.815.52.347.096.675.215.964.37.376.018.713.077 1.037.147h1.26c.244-.052.475-.119.74-.148.21-.137.38-.313.666-.37.79-.694 1.271-1.696 1.41-3.039-.124-.485.051-.874 0-1.482m3.408 4.075c-.227.367-.909.278-1.408.372h-1.112c.142.352.343.646.52.963.055.438.254.734.222 1.26.13.166.176.416.296.592.104.145.242.478.074.667-.05.221-.294.248-.592.222a.506.506 0 01-.222-.148c-.448-.433-.778-1.013-1.26-1.408-.01-.008-.062.001-.075 0-.087-.004-.033-.046-.075-.074-.147-.097-.257-.152-.369-.222-.284-.177-.547-.445-.89-.519-.53.211-1.157.326-1.852.37-1.158-.102-2.303-.215-3.039-.74-.91-.35-1.476-1.043-2.149-1.63-.049-.32-.342-.399-.37-.742-.005-.045-.012-.088-.073-.074.043-.24-.05-.345-.075-.518 0-.133.2-.432 0-.52-.822.12-1.485.63-2.149.964-.718.36-1.468.603-2.074 1.111-.716.322-1.26.816-1.778 1.334-.209.311-.542.495-.668.89-.379.164-.175.912-.74.89-.316.042-.345-.2-.445-.372-.07-.226-.36-.232-.37-.518-.005-.046-.012-.089-.075-.075-.17-1.089-.528-1.992-.519-3.26.13-.415.35-.738.593-1.038-.418-.05-.716-.222-.89-.519-.059-1.073.378-1.647.742-2.297.134-.383.351-.684.593-.963.017-.229.206-.288.296-.445.018-.105.122-.125.15-.222-.042-.106.287-.18.072-.22-.413-.132-1.016-.07-1.26-.372-.109-.28-.109-.833 0-1.112.034-.237.283-.26.297-.518.5-.417 1.081-.747 1.631-1.112.574-.166 1.211-.27 1.852-.37-.102-.343-.338-.55-.593-.742-.78-.38-1.849-.473-2.742-.74-.555-.038-.956-.23-1.556-.223C1.04 3.878.518 3.93.26 3.783c-.12-.069-.1-.096-.222-.22-.134-.413.111-.74.444-.89-.005-.254.22-.277.371-.372.09-.182.254-.29.445-.37.544-.468 1.268-.759 1.927-1.112C4.054.636 4.872.443 5.744.3c.895-.116 1.9-.124 2.815-.22h.963c.511-.133 1.231-.055 1.853-.076.094.102.322.074.518.075.523.268 1.196.384 1.631.74.574.241.99.641 1.557.89.866.764 1.936 1.324 2.518 2.372.205.19.351.438.446.74.264.156.384.454.592.667.405.41.706.924 1.037 1.408.32.496.577 1.054.89 1.556-.01.405.306.484.296.89.193.225.177.661.371.888-.033.255.03.415.074.594.047 1.281-.047 2.422-.297 3.407.588.155 1.181.302 1.631.593.526.185.998.582.814 1.26"/></g></svg>