<svg xmlns="http://www.w3.org/2000/svg" height="28.445" width="29.025"><defs><clipPath id="a" clipPathUnits="userSpaceOnUse"><path d="M0 21.334h21.769V0H0z"/></clipPath></defs><g clip-path="url(#a)" transform="matrix(1.33333 0 0 -1.33333 0 28.445)"><path d="M13.188 13.667c.21-.119.44-.217.605-.381.086-.219.245-.363.38-.529.059-.778.18-1.492.153-2.354-.258-.098-.44-.27-.684-.381-.78.006-1.357.212-1.896.457-.172.258-.357.504-.534.758V12.3c.17.184.32.39.457.607.227.127.507.201.454.608a.368.368 0 00-.075.228c.158-.045.244-.159.378-.228.323-.019.41.199.761.152m1.139-3.796c-.235.057-.146-.208-.38-.152.07.159.119.338.229.455.133-.019.171-.13.15-.303m-2.2-2.581c.033.109.065-.008.151 0-.019-.097-.15-.076-.152 0m-.759 2.885c-.04.038.054.096.076.076.04-.039-.055-.098-.076-.076m-.38 3.947c-.203-.258.041-.576.077-.836-.305.039-.573.888-.077.836m-1.67-2.125c.015.086.075.042.075 0-.014-.087-.075-.043-.075 0M8.86 9.946c.041.117.08.006.076-.075-.04-.117-.079-.005-.076.075m-.075.305c-.114.063-.11.244-.153.379.256.078.118-.236.153-.379m3.415 4.327c-.222.232-.675.234-.986.379-.697.038-1.222-.093-1.746-.228l-.91-.454c-.266-.166-.445-.418-.76-.532-.205-.224-.351-.51-.683-.607-.004-.223-.173-.282-.304-.379-.09-.115-.094-.312-.227-.381-.008-.12.035-.29-.077-.303.11-1.511.291-2.948.683-4.177.287-.623.976-.845 1.442-1.29.59-.296 1.328-.444 2.126-.531.278.052.553.106.911.076a5.09 5.09 0 012.81 1.442c.1.281.252.508.455.683-.254.671.293 1.098.455 1.596.002 1.344-.2 2.481-.607 3.415-.256.579-.92.752-1.366 1.139-.058.017-.15.003-.151.076-.268.131-.732.233-1.064.076m1.139 1.821c-.11-.046.006-.091 0 0m-2.81.608c.021-.021.115.037.076.077-.02.021-.115-.037-.076-.077m.533.38c-.316.073-.016-.228 0 0m2.276-.988c.534.049.75.416 1.215.532.284.298.784.381.988.759-.56-.023-.766-.399-1.216-.531-.284-.296-.75-.413-.987-.76m-2.276.988c.346.134.613.347.834.607a2.043 2.043 0 01-.834-.607m.834.607c.064-.014.072.03.077.076-.066.014-.072-.029-.077-.076m.077.076c.064-.014.07.031.075.076-.064.014-.072-.03-.075-.076m.075.076c.111.046-.007.092 0 0m.683.608c-.11-.047.007-.092 0 0m.684-.836c.726.158 1.18.591 1.746.911-.437-.018-.592-.32-.988-.379-.215-.216-.599-.26-.758-.532m1.746.911c.11.047-.008.092 0 0m-1.063.607c-.529-.154-1.018-.348-1.367-.682.484.198 1.06.306 1.367.682m0 0c.11.048-.009.092 0 0m5.845-3.719c-.639.12-1.233.284-1.898.379.073.333.8.01.988.227.384.223.295.921.303 1.519.034.347.116.643.078 1.063-.403.951-1.785.421-2.887.455-.225-.717-.47-1.799-.304-2.656.17-.49 1.026-.293 1.52-.456-.14-.332-.69-.058-.988-.076-.296.083-.707.052-.986.151-2.286-.077-4.285-.004-6.53-.151.117 1.247.063 2.465-.076 3.644h3.112c-.344-.364-.912-.506-1.29-.835-.44-.244-.86-.505-1.139-.911.25-.133.535.245.76.379.354.074.478.381.834.455.424.439 1.097.626 1.67.912.379.023.698-.013.988-.076 1.282-.008 2.455-.127 3.795-.076.614-.145 1.45-.069 1.974-.304.107-.297.231-.579.304-.911.01-.996-.146-1.826-.227-2.732m-.38-11.16c-.109-.954-.158-1.968-.379-2.809-2.89-.123-6.019-.005-8.883-.153-.199-.045-.273.031-.228.228-.253 0-.258-.247-.532-.228.202.336.438.898.152 1.291-.797-.013-.797-.822-1.138-1.291-.685.052-1.137-.127-1.823-.075.181.705.75 1.021.911 1.745-.395.549-.989-.138-1.214-.455-.203-.481-.556-.81-.76-1.29h-.986c.238.468.49.925.76 1.366.17.511.624.741.681 1.367-.157.28-.419.029-.682 0-.123-.182-.273-.335-.38-.531-.232-.376-.5-.714-.684-1.14-.18-.208-.335-.003-.53-.227-.389-.271-.58-.736-.988-.987-.174.06.04.357.153.38.046.181-.096.55.075.607.064.367.212.648.38.911.118.742.521 1.199.683 1.898-.559-.099-.674-.643-.987-.987-.213-.446-.542-.773-.683-1.291-.174.131-.028.58-.076.836.122.586.298 1.119.38 1.746.132.22.172.535.228.834.168.209.046.61-.077.761-.226-.028-.374-.133-.455-.304-.192.032-.193-.506-.304-.304-.045 2.587-.45 4.813-.456 7.439.027.33-.182.424-.227.684a71.245 71.245 0 004.783-.228c-.089-.139-.199-.257-.304-.379-.144-.071-.226-.173-.379-.304-.604-1.653-.975-3.984-.607-6.15.228-.58.59-1.03.986-1.442.907-.485 1.635-1.149 2.506-1.671 1.701-.361 3.84-.369 5.541 0 .236.12.484.226.685.38 1.365 1.242 2.753 2.459 2.96 4.86v1.367c-.197 1.597-.688 2.905-1.747 3.643.331.22 1.1-.043 1.67-.076a5.78 5.78 0 01.685 0c.408.024.928.055 1.443 0 .144-.186.114-.544.228-.76-.062-1.683-.193-3.299-.153-5.087.103-.454.127-.986.229-1.441a16.93 16.93 0 00-.456-2.733M1.344 15.641v1.593c.196.185.396.365.608.533.295-.49.178-1.392.455-1.898-.276-.156-.751-.11-1.063-.228m-.076 3.264c.226.205.45.41.684.608-.022.122.07.131.076.227h.228c.102-.381-.26-.296-.304-.531.02-.122-.073-.131-.076-.227.02-.336.122-.588.076-.988-.27-.008-.276-.28-.608-.227.024.428-.134.674-.076 1.138m.456.759c-.034-.219-.326-.179-.38-.379-.214.17.084.468.38.379m.986.076c.029-.259-.438-.32-.378 0zm.684-3.72c.148.03.11-.345-.076-.228.04.062.079.124.076.228m.228 3.72c.033-.158-.052-.2-.076-.304-.175-.023-.084.219-.228.229.024.103.19.063.304.075m0-1.138c-.263-.054-.273.266-.153.379.263.054.272-.266.153-.379m-.228-2.05c.077.311.034.303.075.682.229-.012.26-.769-.075-.682m.152.987c-.204-.021-.216.534-.077.607.328-.006.249-.5.077-.607m.532 0c.006.108.012.214-.077.228-.072.733.13 1.415 0 1.973.25.155.769.042 1.139.077v-1.139c-.088-.064-.203-.101-.38-.076-.053-.281.325-.132.38-.304.008-.853-.056-1.777.152-2.429-.565.059-.906-.107-1.442-.076.097.612-.018 1.435.53 1.594-.01.141-.256.047-.302.152m2.353-1.216c.175.025.084-.218.228-.227-.01-.193-.284-.179-.38-.076.039.112.113.192.152.303m.152.229c-.058-.139-.082.045-.076.152.058.138.08-.046.076-.152m0 1.366c-.132.07-.168.237-.152.456.132-.07.168-.238.152-.456M6.43 19.74c.089.013.134-.016.152-.076.179-.253.009-.683-.076-.911-.174.179-.027.682-.076.987m.683-1.594c-.117.263-.067.692-.075 1.063-.007.284.277.278.303.531-.003.074-.092.059-.152.076.127.146.7.097.835 0 .132-.537-.355-.455-.531-.683.01-.168.322-.032.456-.076.029-.854-.06-1.496 0-2.202h-.456c-.007-.234.228-.226.456-.228-.06-.286.092-.363.075-.607-.226-.153-.716-.043-1.062-.076-.103.594.236 1.375.15 2.202m1.672-2.733c.757.153 1.48.341 2.428.304.71-.075 1.287-.282 1.898-.455.116-.184-.243-.547.153-.684v-.076c.059-.017.15-.002.152-.076.445-.035.793-.167 1.063-.379.45-.055.536-.476 1.138-.38-.091-.213-.084-.524-.075-.835.324-1.183.474-2.81.302-4.252-.164-.163-.215-.442-.302-.683-.311-.322-.482-.785-.836-1.062a1.08 1.08 0 00-.455-.533c-.116-.213-.206-.452-.457-.531-.297-.163-.577-.01-.834.077-.446-.162-.904-.312-1.214-.608-.817.096-1.65.175-2.43.304-.242.139-.487.273-.835.305a1.997 1.997 0 01-.836.455c-.101.127-.337.118-.455.228-.198.03-.23.227-.456.229-.118.412-.442.618-.531 1.061-.226.331-.308.805-.455 1.215-.043 1.434.09 2.692.379 3.796.346.591.779 1.094 1.138 1.67.249-.021.365.09.38.304.306-.053.434.072.684.075.255.074.266.391.456.531m12.98-6.225c-.012 2.395-.343 4.789-.302 7.135a37.944 37.944 0 01-.152 2.279c-.105.299-.111.699-.152 1.062-.26.17-.222.64-.456.836-.423.233-1.202.113-1.744.227-.658.026-1.254.115-1.9.152-1.935.101-3.973.076-5.996.076-2.001 0-3.954.145-5.695.379H3.166c-.097-.004-.105-.098-.227-.076-.6-.034-1.077-.188-1.595-.303-.21-.119-.421-.236-.683-.305-.136-.192-.513-.144-.607-.379-.186-.211.185-.451 0-.607v-.911c.174-.13.028-.58.075-.835v-.987c-.016-1.281.134-2.398.077-3.72.467-2.762.374-6.537.076-9.413.155-.579.363-1.106.455-1.746.256-.479.335-1.133.683-1.52C1.922.326 2.653.347 3.318.304 3.7.206 3.985.011 4.458 0 7.3.21 9.954.154 12.884.229c2.704-.241 5.802-.189 8.276.227.195.134.128.529.227.76-.055.385.207.449.228.759.133 2.392.165 4.787.15 7.213"/></g></svg>