<?xml version="1.0" encoding="UTF-8" standalone="no"?>
<svg
   xmlns:dc="http://purl.org/dc/elements/1.1/"
   xmlns:cc="http://creativecommons.org/ns#"
   xmlns:rdf="http://www.w3.org/1999/02/22-rdf-syntax-ns#"
   xmlns:svg="http://www.w3.org/2000/svg"
   xmlns="http://www.w3.org/2000/svg"
   viewBox="0 0 31.325466 26.890667"
   height="26.890667"
   width="31.325466"
   xml:space="preserve"
   id="svg2"
   version="1.1"><metadata
     id="metadata8"><rdf:RDF><cc:Work
         rdf:about=""><dc:format>image/svg+xml</dc:format><dc:type
           rdf:resource="http://purl.org/dc/dcmitype/StillImage" /></cc:Work></rdf:RDF></metadata><defs
     id="defs6"><clipPath
       id="clipPath18"
       clipPathUnits="userSpaceOnUse"><path
         id="path16"
         d="M 0,20.168 H 23.494 V 0 H 0 Z" /></clipPath></defs><g
     transform="matrix(1.3333333,0,0,-1.3333333,0,26.890667)"
     id="g10"><g
       id="g12"><g
         clip-path="url(#clipPath18)"
         id="g14"><g
           transform="translate(14.8574,14.6025)"
           id="g20"><path
             id="path22"
             style="fill-opacity:1;fill-rule:nonzero;stroke:none"
             d="m 0,0 c 0.163,-0.135 0.284,-0.31 0.519,-0.371 0.1,-0.221 0.314,-0.327 0.593,-0.37 0.047,0.15 0.346,0.049 0.37,0.222 0.174,0.023 0.166,0.229 0.296,0.297 C 1.761,0.328 1.649,0.784 1.408,1.111 0.65,1.534 -0.268,1.072 0,0 M 5.483,3.038 C 5.354,2.698 5.253,2.331 4.891,2.223 4.874,2.328 4.769,2.348 4.743,2.445 4.731,2.654 4.952,2.63 5.039,2.741 c 0.163,0.085 0.245,0.248 0.444,0.297 -0.006,0.089 0.109,0.046 0,0 M 5.188,-2.594 C 5.034,-3.453 4.572,-4.004 4.149,-4.595 4.208,-4.974 4.046,-5.133 4.076,-5.483 3.918,-5.796 3.789,-6.136 3.705,-6.521 3.502,-6.787 3.373,-7.127 3.187,-7.41 2.82,-7.958 2.409,-8.461 2.001,-8.967 1.623,-9.526 1.089,-9.932 0.667,-10.448 c -0.42,-0.493 -0.942,-0.885 -1.407,-1.334 -0.474,-0.17 -0.89,-0.397 -1.26,-0.667 -0.232,-0.09 -0.463,-0.18 -0.667,-0.296 -0.177,-0.146 -0.499,-0.145 -0.668,-0.297 -1.086,-0.147 -2.3,-0.17 -3.555,-0.148 -1.031,0.105 -2.115,0.159 -3.039,0.371 -0.923,0.189 -1.511,0.712 -2.297,1.037 0.153,0.242 0.634,0.154 0.963,0.221 0.031,0.166 0.394,0.003 0.444,0.15 0.257,-0.06 0.285,0.109 0.52,0.073 0.563,0.201 1.23,0.302 1.704,0.593 0.282,0.138 0.406,0.433 0.667,0.593 0.033,0.189 0.103,0.34 0.221,0.444 0.048,0.275 0.202,0.441 0.149,0.815 0.111,0.21 0.299,0.343 0.296,0.667 -0.074,0.148 -0.128,0.317 -0.296,0.372 -0.026,0.196 -0.378,0.067 -0.444,0.221 -0.255,-0.032 -0.416,0.029 -0.593,0.075 -0.154,0.043 -0.487,-0.091 -0.519,0.074 -0.842,0.023 -1.3,0.429 -1.853,0.74 0.431,0.262 1.032,0.352 1.334,0.742 0.516,0.076 1.057,0.129 1.112,0.666 0,0.717 -0.771,0.661 -1.333,0.815 -0.774,0.661 -1.195,1.672 -1.779,2.52 0.238,0.157 0.564,0.226 0.74,0.444 0.455,-0.057 0.54,0.251 0.667,0.52 0.019,0.488 -0.332,0.605 -0.592,0.815 -0.259,0.21 -0.475,0.462 -0.667,0.741 -0.003,0.818 -0.022,1.651 0.074,2.371 0.063,0.014 0.07,-0.029 0.074,-0.074 0.226,-0.441 0.559,-0.775 0.815,-1.186 0.532,-0.357 0.925,-0.853 1.556,-1.111 0.452,-0.413 1.109,-0.622 1.557,-1.038 0.6,-0.263 1.158,-0.57 1.704,-0.889 0.669,-0.195 1.056,-0.673 2.001,-0.593 0.198,0.098 0.393,0.199 0.593,0.297 0.257,0.456 -0.059,1.079 0.147,1.63 0.255,0.659 0.797,1.031 1.26,1.482 0.29,0.155 0.555,0.335 0.815,0.519 0.347,0.097 0.675,0.216 0.964,0.37 0.376,0.019 0.713,0.078 1.037,0.148 h 1.26 C 2.616,2.393 2.847,2.326 3.112,2.297 3.321,2.16 3.492,1.984 3.778,1.927 4.567,1.233 5.049,0.231 5.188,-1.112 c -0.124,-0.485 0.051,-0.874 0,-1.482 M 8.596,1.481 C 8.369,1.848 7.687,1.759 7.188,1.853 H 6.076 C 6.218,2.205 6.419,2.499 6.596,2.816 6.651,3.254 6.85,3.55 6.818,4.076 6.947,4.242 6.994,4.492 7.114,4.668 7.218,4.813 7.356,5.146 7.188,5.335 7.138,5.556 6.894,5.583 6.596,5.557 6.508,5.521 6.427,5.479 6.374,5.409 5.926,4.976 5.596,4.396 5.113,4.001 5.104,3.993 5.052,4.002 5.039,4.001 4.952,3.997 5.006,3.955 4.964,3.927 4.817,3.83 4.707,3.775 4.595,3.705 4.311,3.528 4.048,3.26 3.704,3.186 3.175,3.397 2.548,3.512 1.853,3.556 0.695,3.454 -0.45,3.341 -1.186,2.815 -2.097,2.466 -2.662,1.773 -3.335,1.185 -3.384,0.865 -3.677,0.787 -3.705,0.444 -3.71,0.399 -3.717,0.356 -3.778,0.37 -3.735,0.129 -3.829,0.025 -3.853,-0.148 c -10e-4,-0.133 0.2,-0.432 0,-0.52 -0.822,0.12 -1.485,0.63 -2.149,0.964 -0.718,0.36 -1.468,0.603 -2.074,1.111 -0.716,0.322 -1.26,0.816 -1.778,1.334 -0.209,0.311 -0.542,0.495 -0.668,0.89 -0.379,0.164 -0.175,0.912 -0.741,0.889 -0.315,0.043 -0.344,-0.2 -0.444,-0.371 -0.07,-0.226 -0.361,-0.232 -0.371,-0.518 -0.004,-0.046 -0.011,-0.089 -0.074,-0.075 -0.17,-1.089 -0.528,-1.992 -0.519,-3.26 0.129,-0.415 0.35,-0.738 0.593,-1.038 -0.418,-0.05 -0.716,-0.222 -0.89,-0.519 -0.059,-1.073 0.378,-1.647 0.742,-2.297 0.134,-0.383 0.351,-0.684 0.593,-0.963 0.017,-0.229 0.206,-0.288 0.296,-0.445 0.018,-0.105 0.122,-0.125 0.149,-0.222 -0.041,-0.106 0.288,-0.18 0.073,-0.221 -0.413,-0.131 -1.016,-0.07 -1.26,-0.371 -0.109,-0.28 -0.109,-0.833 0,-1.112 0.034,-0.237 0.283,-0.261 0.297,-0.518 0.499,-0.417 1.081,-0.747 1.631,-1.112 0.574,-0.166 1.211,-0.271 1.852,-0.371 -0.102,-0.342 -0.338,-0.55 -0.593,-0.741 -0.78,-0.381 -1.849,-0.473 -2.742,-0.74 -0.555,-0.038 -0.956,-0.23 -1.556,-0.223 -0.332,-0.127 -0.853,-0.075 -1.112,-0.222 -0.121,-0.069 -0.101,-0.096 -0.222,-0.221 -0.134,-0.412 0.111,-0.74 0.444,-0.89 -0.005,-0.253 0.219,-0.276 0.371,-0.371 0.089,-0.182 0.254,-0.29 0.445,-0.37 0.544,-0.468 1.268,-0.759 1.927,-1.112 0.829,-0.183 1.648,-0.376 2.519,-0.519 0.896,-0.116 1.901,-0.124 2.816,-0.221 h 0.963 c 0.511,-0.132 1.231,-0.054 1.853,-0.075 0.094,0.102 0.322,0.074 0.518,0.075 0.523,0.268 1.196,0.384 1.631,0.74 0.574,0.241 0.989,0.641 1.557,0.889 0.866,0.765 1.936,1.325 2.518,2.373 0.205,0.189 0.351,0.438 0.446,0.74 0.264,0.156 0.384,0.454 0.592,0.667 0.405,0.41 0.706,0.924 1.037,1.408 0.32,0.496 0.577,1.054 0.89,1.556 -0.01,0.405 0.306,0.484 0.296,0.889 0.193,0.226 0.177,0.662 0.371,0.889 -0.033,0.255 0.029,0.415 0.074,0.594 0.047,1.281 -0.047,2.422 -0.297,3.407 0.588,0.155 1.181,0.302 1.631,0.593 0.526,0.185 0.998,0.582 0.814,1.259" /></g></g></g></g></svg>
