<svg xmlns="http://www.w3.org/2000/svg" height="36.958" width="19.949"><defs><clipPath id="a" clipPathUnits="userSpaceOnUse"><path d="M0 27.718h14.962V0H0z"/></clipPath></defs><g clip-path="url(#a)" transform="matrix(1.33333 0 0 -1.33333 0 36.958)"><path d="M7.845 17.743c.117-.254.254-.486.414-.698.079-.022.203-.003.205-.1a10.315 10.315 0 013.096.299c0-.998-.271-1.733-.518-2.492-.662-.045-1.467-.3-1.958-.198-.276-.165-.372-.506-.62-.698-.05-.442.142-.495 0-.797-.201-.137-.055-.611-.205-.796v-1.496c.085-.281-.145-.258-.103-.497V6.782c-.085-.282.146-.258.103-.498v-2.99c.064-.27-.132-.791.103-.896-.071-.364-.413.02-.825-.1-.528-.122-.925-.37-1.547-.4.117.352.32.622.31 1.096.049.38-.365.312-.516.499.194.643.563 1.117.722 1.792.197.515.714 1.298.31 1.794-.523.106-.522-.293-.826-.398-.023-.077-.002-.196-.103-.2-.023-.076-.003-.196-.103-.198.01-.121-.151-.062 0 0 .023.078.002.197.103.199.023.077.002.197.103.199v.299c.368.575.669 1.214.826 1.993.19.28.283.656.412.997.156.262.34.869.104 1.195-.516-.033-.796-.295-.93-.697-.32.19.162.434.105.697.138.232.169.567.309.797.202.413.564 1.304 0 1.596-.438.023-.613-.207-.723-.498-.214-.192-.43-.383-.516-.698-.373.07-.142.726-.206 1.096-.067.52.122.9 0 1.196-.56.798-2.026.105-3.197.298-.108.307-.222.985-.103 1.196 1.045.088 2.478-.201 3.197.199.024.078.003.197.103.199.094.723-.271 1-.514 1.396.232.805.04 2.02.103 2.989.234.14.328.414.515.598.112.955.673 1.475.722 2.492-.274-.002-.608.055-.62-.2-.301.115-.381-.478-.514-.2-.113.542.246.627.308.998.599.418 1.212.82 1.857 1.196 1.74.244 4.648.449 6.086-.198.05-.617-.287-.854-.207-1.497H11.56c-1.092-.24-1.987-.671-2.991-.997-.241-.066-.277-.331-.516-.398-.036-.397-.225-.647-.311-.996-.08-1.44.132-2.596.102-3.986m3.817 4.783c1.027-.03 1.994 0 2.68.3.392.817.557 1.854.62 2.989-.19.014-.062.337-.207.399-.03.202-.278.195-.308.398-.278.165-.457.422-.723.598-.727.16-1.441.335-2.164.498-.85-.044-1.895.103-2.58-.1-2.62.04-3.997-1.12-5.26-2.391-.022-.078-.003-.197-.104-.2-.575-1.586-.125-3.62-.205-5.58.099-.436.108-.96.205-1.395-1-.296-2.212-.386-3.403-.5-.317-.322-.178-1.088-.206-1.692.085-.583.278-1.06.413-1.595.21-.193.596-.396.825-.498.065-.03.072-.082.103-.1.506-.267 1.45-.007 2.268-.1-.137-1.977.255-3.914 0-5.68.006-.326.294-.381.207-.797-.001-.962-.067-1.99.208-2.69-.288-.455-.497-.982-.415-1.794.122-.016.113-.157.104-.3-.074-.47.644-.174.516-.697.162-.456-.428-.184-.413-.498V.204c.53-.285 1.462-.181 2.268-.2.908.42 2.188.48 2.785 1.197.459-.235.916.014 1.239.2-.018.315.273.333.205.698-.004.328-.173.496-.103.896v2.889c-.206 2.293-.048 4.939-.31 7.176.889.105 1.918.075 2.58.398.357.452.377 1.23.515 1.895.177.225.22.583.206.996.19.213.069.729.104 1.096-.141.595-.168 1.299-.825 1.395-.884.235-2.043-.596-2.992-.3.049 1.135-.293 2.343 0 3.389.747.176 1.448.395 2.167.597"/></g></svg>