<?xml version="1.0" encoding="UTF-8" standalone="no"?>
<svg
   xmlns:dc="http://purl.org/dc/elements/1.1/"
   xmlns:cc="http://creativecommons.org/ns#"
   xmlns:rdf="http://www.w3.org/1999/02/22-rdf-syntax-ns#"
   xmlns:svg="http://www.w3.org/2000/svg"
   xmlns="http://www.w3.org/2000/svg"
   viewBox="0 0 19.9492 36.957733"
   height="36.957733"
   width="19.9492"
   xml:space="preserve"
   id="svg2"
   version="1.1"><metadata
     id="metadata8"><rdf:RDF><cc:Work
         rdf:about=""><dc:format>image/svg+xml</dc:format><dc:type
           rdf:resource="http://purl.org/dc/dcmitype/StillImage" /></cc:Work></rdf:RDF></metadata><defs
     id="defs6"><clipPath
       id="clipPath18"
       clipPathUnits="userSpaceOnUse"><path
         id="path16"
         d="M 0,27.718 H 14.962 V 0 H 0 Z" /></clipPath></defs><g
     transform="matrix(1.3333333,0,0,-1.3333333,0,36.957733)"
     id="g10"><g
       id="g12"><g
         clip-path="url(#clipPath18)"
         id="g14"><g
           transform="translate(7.8447,17.7427)"
           id="g20"><path
             id="path22"
             style="fill-opacity:1;fill-rule:nonzero;stroke:none"
             d="m 0,0 c 0.117,-0.254 0.254,-0.486 0.414,-0.698 0.079,-0.022 0.203,-0.003 0.205,-0.1 1.193,-0.056 2.199,0.069 3.096,0.299 0,-0.998 -0.271,-1.733 -0.518,-2.492 C 2.535,-3.036 1.73,-3.291 1.239,-3.189 0.963,-3.354 0.867,-3.695 0.619,-3.887 0.57,-4.329 0.761,-4.382 0.619,-4.684 0.418,-4.821 0.564,-5.295 0.414,-5.48 V -6.976 C 0.499,-7.257 0.269,-7.234 0.311,-7.473 v -3.488 c -0.085,-0.282 0.146,-0.258 0.103,-0.498 v -2.99 c 0.064,-0.27 -0.132,-0.791 0.103,-0.896 -0.071,-0.364 -0.413,0.02 -0.825,-0.1 -0.528,-0.122 -0.925,-0.369 -1.547,-0.4 0.117,0.352 0.32,0.622 0.31,1.096 0.049,0.381 -0.365,0.312 -0.516,0.499 0.194,0.643 0.563,1.117 0.722,1.792 0.197,0.515 0.714,1.298 0.31,1.794 -0.523,0.106 -0.522,-0.293 -0.826,-0.398 -0.023,-0.077 -0.002,-0.196 -0.103,-0.199 -0.023,-0.077 -0.003,-0.197 -0.103,-0.199 0.01,-0.121 -0.151,-0.062 0,0 0.023,0.078 0.002,0.197 0.103,0.199 0.023,0.077 0.002,0.197 0.103,0.199 v 0.299 c 0.368,0.575 0.669,1.214 0.826,1.993 0.191,0.28 0.283,0.656 0.412,0.997 0.156,0.262 0.34,0.869 0.104,1.195 -0.516,-0.033 -0.796,-0.295 -0.929,-0.697 -0.321,0.19 0.161,0.434 0.104,0.697 0.138,0.232 0.169,0.567 0.309,0.797 0.202,0.413 0.564,1.304 0,1.596 -0.438,0.023 -0.613,-0.207 -0.723,-0.498 -0.214,-0.192 -0.43,-0.383 -0.516,-0.698 -0.373,0.07 -0.142,0.726 -0.206,1.096 -0.067,0.52 0.122,0.9 0,1.196 -0.559,0.798 -2.026,0.105 -3.197,0.298 -0.108,0.307 -0.222,0.985 -0.103,1.196 1.045,0.088 2.478,-0.201 3.197,0.199 0.024,0.078 0.003,0.197 0.103,0.199 0.094,0.723 -0.271,1 -0.514,1.396 0.232,0.805 0.04,2.02 0.103,2.989 0.234,0.141 0.328,0.414 0.515,0.598 0.112,0.955 0.673,1.475 0.722,2.492 -0.274,-0.002 -0.608,0.055 -0.62,-0.199 -0.301,0.114 -0.381,-0.479 -0.514,-0.2 -0.113,0.541 0.246,0.626 0.308,0.997 0.599,0.418 1.212,0.821 1.857,1.196 C 1.124,8.316 4.031,8.521 5.469,7.874 5.52,7.257 5.182,7.02 5.262,6.377 H 3.716 C 2.624,6.137 1.729,5.706 0.725,5.38 0.484,5.314 0.448,5.049 0.209,4.982 0.173,4.585 -0.016,4.335 -0.102,3.986 -0.182,2.547 0.03,1.39 0,0 m 3.817,4.783 c 1.027,-0.03 1.994,0 2.681,0.3 C 6.889,5.9 7.054,6.937 7.117,8.072 6.927,8.086 7.055,8.409 6.91,8.471 6.881,8.673 6.632,8.666 6.602,8.869 6.324,9.034 6.145,9.291 5.879,9.467 5.152,9.628 4.438,9.802 3.715,9.965 2.866,9.921 1.82,10.068 1.135,9.866 -1.484,9.906 -2.862,8.746 -4.125,7.474 -4.147,7.396 -4.128,7.277 -4.229,7.275 -4.804,5.688 -4.354,3.654 -4.434,1.694 -4.335,1.258 -4.326,0.735 -4.229,0.299 -5.228,0.003 -6.441,-0.087 -7.632,-0.2 -7.949,-0.523 -7.81,-1.289 -7.838,-1.893 c 0.085,-0.583 0.278,-1.06 0.413,-1.595 0.211,-0.193 0.596,-0.396 0.825,-0.498 0.065,-0.029 0.072,-0.082 0.103,-0.099 0.506,-0.268 1.451,-0.008 2.268,-0.1 -0.137,-1.978 0.255,-3.915 0,-5.68 0.006,-0.327 0.294,-0.382 0.207,-0.798 -10e-4,-0.962 -0.067,-1.99 0.208,-2.69 -0.288,-0.455 -0.497,-0.982 -0.415,-1.794 0.122,-0.016 0.113,-0.157 0.104,-0.299 -0.074,-0.47 0.644,-0.175 0.516,-0.698 0.162,-0.456 -0.428,-0.184 -0.413,-0.498 v -0.897 c 0.53,-0.285 1.462,-0.181 2.268,-0.199 0.908,0.419 2.188,0.479 2.785,1.196 0.459,-0.235 0.916,0.014 1.239,0.2 -0.018,0.315 0.273,0.333 0.205,0.698 -0.004,0.328 -0.173,0.496 -0.103,0.896 v 2.889 c -0.206,2.293 -0.048,4.939 -0.309,7.176 0.888,0.105 1.917,0.075 2.579,0.398 0.357,0.452 0.377,1.231 0.515,1.895 0.177,0.225 0.221,0.583 0.206,0.996 0.191,0.213 0.069,0.729 0.104,1.096 C 5.326,0.297 5.299,1.001 4.642,1.097 3.758,1.332 2.599,0.501 1.65,0.798 1.699,1.932 1.357,3.14 1.65,4.186 2.397,4.362 3.098,4.581 3.817,4.783" /></g></g></g></g></svg>
