<?xml version="1.0" encoding="UTF-8" standalone="no"?>
<svg
   xmlns:dc="http://purl.org/dc/elements/1.1/"
   xmlns:cc="http://creativecommons.org/ns#"
   xmlns:rdf="http://www.w3.org/1999/02/22-rdf-syntax-ns#"
   xmlns:svg="http://www.w3.org/2000/svg"
   xmlns="http://www.w3.org/2000/svg"
   viewBox="0 0 1533.3333 30.666668"
   height="30.666668"
   width="1533.3333"
   xml:space="preserve"
   id="svg2"
   version="1.1"><metadata
     id="metadata8"><rdf:RDF><cc:Work
         rdf:about=""><dc:format>image/svg+xml</dc:format><dc:type
           rdf:resource="http://purl.org/dc/dcmitype/StillImage" /></cc:Work></rdf:RDF></metadata><defs
     id="defs6"><clipPath
       id="clipPath18"
       clipPathUnits="userSpaceOnUse"><path
         id="path16"
         d="M 0,23 H 1150 V 0 H 0 Z" /></clipPath></defs><g
     transform="matrix(1.3333333,0,0,-1.3333333,0,30.666667)"
     id="g10"><g
       id="g12"><g
         clip-path="url(#clipPath18)"
         id="g14"><g
           transform="translate(1150)"
           id="g20"><path
             id="path22"
             style="fill:#e7e8e9;fill-opacity:1;fill-rule:nonzero;stroke:none"
             d="M 0,0 C -9.017,0 -13.728,4.589 -17.514,8.276 -20.926,11.599 -23.391,14 -28.748,14 -34.106,14 -36.571,11.599 -39.983,8.276 -43.77,4.589 -48.48,0 -57.497,0 -66.514,0 -71.225,4.589 -75.011,8.276 -78.423,11.599 -80.888,14 -86.245,14 -91.603,14 -94.067,11.599 -97.479,8.276 -101.266,4.589 -105.977,0 -114.993,0 c -9.017,0 -13.729,4.589 -17.515,8.276 -3.412,3.323 -5.877,5.724 -11.235,5.724 -5.358,0 -7.822,-2.401 -11.235,-5.724 C -158.764,4.589 -163.475,0 -172.491,0 c -9.017,0 -13.728,4.589 -17.514,8.276 -3.412,3.323 -5.877,5.724 -11.234,5.724 -5.358,0 -7.823,-2.401 -11.235,-5.724 C -216.26,4.589 -220.972,0 -229.988,0 c -9.017,0 -13.729,4.589 -17.515,8.276 -3.412,3.323 -5.877,5.724 -11.234,5.724 -5.358,0 -7.823,-2.401 -11.235,-5.724 C -273.758,4.589 -278.47,0 -287.486,0 c -9.017,0 -13.729,4.589 -17.515,8.276 -3.412,3.323 -5.877,5.724 -11.235,5.724 -5.356,0 -7.821,-2.4 -11.232,-5.723 C -331.253,4.589 -335.964,0 -344.979,0 c -9.017,0 -13.729,4.589 -17.515,8.276 -3.412,3.323 -5.877,5.724 -11.235,5.724 -5.357,0 -7.822,-2.401 -11.233,-5.723 C -388.747,4.589 -393.458,0 -402.474,0 c -9.016,0 -13.728,4.589 -17.513,8.277 -3.411,3.322 -5.876,5.723 -11.234,5.723 -5.357,0 -7.821,-2.401 -11.233,-5.723 C -446.239,4.589 -450.951,0 -459.968,0 c -9.015,0 -13.726,4.589 -17.511,8.276 -3.412,3.323 -5.876,5.724 -11.234,5.724 -5.357,0 -7.822,-2.401 -11.234,-5.724 C -503.733,4.589 -508.444,0 -517.461,0 c -9.017,0 -13.728,4.589 -17.515,8.276 -3.412,3.323 -5.877,5.724 -11.236,5.724 -5.357,0 -7.822,-2.401 -11.234,-5.724 C -561.232,4.589 -565.943,0 -574.96,0 c -9.016,0 -13.728,4.589 -17.514,8.276 -3.411,3.323 -5.876,5.724 -11.234,5.724 -5.358,0 -7.823,-2.401 -11.234,-5.724 C -618.728,4.589 -623.439,0 -632.456,0 c -9.016,0 -13.728,4.589 -17.514,8.276 -3.411,3.323 -5.877,5.724 -11.234,5.724 -5.359,0 -7.823,-2.401 -11.235,-5.724 C -676.226,4.589 -680.938,0 -689.954,0 c -9.017,0 -13.729,4.589 -17.516,8.276 -3.412,3.323 -5.877,5.724 -11.237,5.724 -5.358,0 -7.823,-2.401 -11.235,-5.724 C -733.728,4.589 -738.44,0 -747.457,0 c -9.016,0 -13.729,4.589 -17.515,8.276 -3.412,3.323 -5.877,5.724 -11.236,5.724 -5.358,0 -7.823,-2.401 -11.235,-5.724 C -791.229,4.589 -795.941,0 -804.958,0 c -9.018,0 -13.73,4.589 -17.516,8.276 -3.412,3.323 -5.877,5.724 -11.235,5.724 -5.359,0 -7.824,-2.401 -11.236,-5.724 C -848.731,4.589 -853.444,0 -862.461,0 c -9.018,0 -13.729,4.589 -17.516,8.276 -3.412,3.323 -5.878,5.724 -11.237,5.724 -5.357,0 -7.822,-2.401 -11.234,-5.724 C -906.233,4.589 -910.945,0 -919.961,0 c -9.017,0 -13.728,4.589 -17.515,8.276 -3.412,3.323 -5.877,5.724 -11.235,5.724 -5.358,0 -7.824,-2.401 -11.236,-5.724 C -963.733,4.589 -968.445,0 -977.462,0 c -9.017,0 -13.73,4.589 -17.517,8.276 -3.412,3.323 -5.877,5.724 -11.237,5.724 -5.36,0 -7.825,-2.401 -11.238,-5.724 -3.786,-3.687 -8.499,-8.276 -17.517,-8.276 -9.018,0 -13.73,4.589 -17.517,8.276 -3.413,3.323 -5.879,5.724 -11.239,5.724 -5.359,0 -7.825,-2.401 -11.238,-5.724 -3.786,-3.687 -8.499,-8.276 -17.517,-8.276 -9.018,0 -13.731,4.588 -17.518,8.276 -3.414,3.323 -5.88,5.724 -11.241,5.724 -5.361,0 -7.827,-2.401 -11.24,-5.724 C -1136.268,4.589 -1140.981,0 -1150,0 v 9 c 5.361,0 7.827,2.401 11.241,5.724 3.787,3.688 8.5,8.276 17.518,8.276 9.019,0 13.732,-4.588 17.519,-8.276 3.413,-3.323 5.879,-5.724 11.24,-5.724 5.36,0 7.825,2.401 11.238,5.724 3.787,3.687 8.499,8.276 17.517,8.276 9.019,0 13.731,-4.589 17.518,-8.276 3.413,-3.323 5.878,-5.724 11.238,-5.724 5.36,0 7.826,2.401 11.239,5.724 3.786,3.687 8.499,8.276 17.516,8.276 9.018,0 13.73,-4.589 17.517,-8.276 3.412,-3.323 5.878,-5.724 11.237,-5.724 5.358,0 7.824,2.401 11.236,5.724 3.786,3.687 8.498,8.276 17.515,8.276 9.017,0 13.729,-4.589 17.515,-8.276 3.412,-3.323 5.877,-5.724 11.235,-5.724 5.357,0 7.822,2.401 11.234,5.724 3.786,3.687 8.497,8.276 17.513,8.276 9.017,0 13.73,-4.589 17.516,-8.276 3.412,-3.323 5.878,-5.724 11.237,-5.724 5.359,0 7.824,2.401 11.236,5.724 3.787,3.687 8.499,8.276 17.516,8.276 9.017,0 13.729,-4.589 17.515,-8.276 3.412,-3.323 5.877,-5.724 11.236,-5.724 5.358,0 7.823,2.401 11.235,5.724 3.786,3.687 8.498,8.276 17.515,8.276 9.017,0 13.729,-4.589 17.516,-8.276 3.412,-3.323 5.877,-5.724 11.235,-5.724 5.359,0 7.824,2.401 11.236,5.724 3.786,3.687 8.498,8.276 17.514,8.276 9.018,0 13.73,-4.589 17.517,-8.276 3.412,-3.323 5.877,-5.724 11.236,-5.724 5.358,0 7.823,2.401 11.235,5.724 3.786,3.687 8.498,8.276 17.515,8.276 9.016,0 13.728,-4.589 17.514,-8.276 3.411,-3.323 5.877,-5.724 11.234,-5.724 5.358,0 7.823,2.401 11.234,5.724 3.786,3.687 8.497,8.276 17.514,8.276 9.016,0 13.728,-4.589 17.514,-8.276 3.411,-3.323 5.876,-5.724 11.234,-5.724 5.357,0 7.822,2.401 11.234,5.724 3.787,3.687 8.497,8.276 17.514,8.276 9.018,0 13.73,-4.589 17.516,-8.276 3.412,-3.323 5.877,-5.724 11.235,-5.724 5.357,0 7.822,2.401 11.234,5.724 3.787,3.687 8.498,8.276 17.514,8.276 9.017,0 13.728,-4.589 17.513,-8.277 3.411,-3.323 5.876,-5.723 11.232,-5.723 5.358,0 7.822,2.401 11.235,5.724 3.785,3.687 8.497,8.276 17.512,8.276 9.016,0 13.728,-4.589 17.513,-8.276 3.412,-3.323 5.877,-5.724 11.234,-5.724 5.357,0 7.822,2.401 11.233,5.723 3.785,3.688 8.496,8.277 17.512,8.277 9.016,0 13.728,-4.589 17.514,-8.276 3.412,-3.323 5.877,-5.724 11.236,-5.724 5.356,0 7.821,2.401 11.232,5.724 3.785,3.687 8.496,8.276 17.511,8.276 9.016,0 13.728,-4.589 17.514,-8.276 3.412,-3.323 5.877,-5.724 11.236,-5.724 5.358,0 7.823,2.401 11.235,5.724 3.786,3.687 8.498,8.276 17.514,8.276 9.016,0 13.727,-4.589 17.513,-8.276 3.412,-3.323 5.877,-5.724 11.236,-5.724 5.358,0 7.823,2.401 11.235,5.724 3.786,3.687 8.497,8.276 17.514,8.276 9.016,0 13.727,-4.589 17.513,-8.276 3.413,-3.323 5.877,-5.724 11.235,-5.724 5.357,0 7.822,2.401 11.234,5.724 3.786,3.687 8.497,8.276 17.514,8.276 9.016,0 13.728,-4.589 17.514,-8.276 3.413,-3.323 5.877,-5.724 11.236,-5.724 5.357,0 7.822,2.401 11.234,5.724 3.786,3.687 8.497,8.276 17.514,8.276 9.016,0 13.727,-4.589 17.514,-8.276 C -65.319,11.401 -62.854,9 -57.497,9 c 5.357,0 7.822,2.401 11.234,5.724 3.786,3.687 8.498,8.276 17.515,8.276 9.017,0 13.727,-4.589 17.514,-8.276 C -7.822,11.401 -5.357,9 0,9 Z" /></g></g></g></g></svg>