<svg xmlns="http://www.w3.org/2000/svg" height="46.712" width="114.119">
  <defs>
    <clipPath id="a" clipPathUnits="userSpaceOnUse">
      <path d="M0 35.034h85.589V0H0z"/>
    </clipPath>
  </defs>
  <g clip-path="url(#a)" transform="matrix(1.33333 0 0 -1.33333 0 46.712)">
    <path d="M4.18 8.733c-.014 3.472-.262 6.938-.356 10.41-.008.34-.015.68-.02 1.02.05-.122.097-.243.146-.365.54-1.35 1.102-2.663 1.838-3.919.732-1.245 1.1-2.58 1.521-3.94-.159-.182-.256-.39-.196-.596-.034-.15.058-.245.212-.305.537-.46 1.55-.232 2.113.008.242.101.473.22.696.355.29.181.744.572.613.977l-.072.235c.397 1.068.598 2.18.814 3.308.23 1.206.66 2.344 1.091 3.485.043-.52.088-1.044.13-1.567.173-2.147.028-4.269.007-6.42a9.911 9.911 0 01.184-2.077c.058-.287.31-1.52.235-1.588-.516-.475-.366-1.06.326-1.21.772-.169 1.753.087 2.333.625 1.01.933.531 2.396.304 3.572-.385 1.972.077 4.18.017 6.19-.07 2.26-.43 4.502-.4 6.768.024 1.831.328 3.714-.303 5.471.04.2.08.398.118.6.163.878-2.754.413-3.212-.392-.29-.236-.438-.519-.314-.806.031-.07.057-.147.084-.219-.552-2.699-1.32-5.313-2.207-7.93-.339-1-.748-1.976-1.095-2.977-.49.933-.986 1.85-1.383 2.847-1.156 2.89-2.2 5.813-3.61 8.595.16 1.29-2.698 1.154-3.262-.026-.682-1.426-.592-2.866-.369-4.393.254-1.72.298-3.41.32-5.147.038-3.347.3-6.69.351-10.04-.298-.33-.389-.74-.078-1.158.136-.182.306-.322.483-.46.756-.612 2.946-.093 2.941 1.07M22.377 27.105c-.09.613-3.416-.084-3.3-.885.258-1.776.166-3.56.135-5.35-.03-1.723.393-3.284.615-4.972.226-1.732-.07-3.502.126-5.235.09-.812.632-2.312.074-3.018-.354-.447 1.238-.285 1.31-.275.646.12 1.51.331 1.938.875.552.698.165 2.043.045 2.828-.266 1.733-.096 3.536-.162 5.285-.06 1.676-.643 3.254-.65 4.946-.01 1.946.153 3.87-.131 5.802M25.5 20.46c.91-2.514 4.648-1.327 6.55-1.471 3.239-.239 2.273-4.607 2.314-6.64.023-1.085.995-2.889.179-3.798-.502-.556-1.67-.589-2.352-.647-.686-.056-1.853-.26-2.311.39-.836 1.194.077 3.2-.102 4.568-.102.781-3.424.08-3.3-.883.292-2.211-1.177-5.175 2.024-5.556 2.059-.244 4.372.136 6.317.783 1.008.334 1.944.792 2.732 1.509.872.794.585 1.979.35 2.987-.568 2.458.618 5.289-.986 7.454-1.738 2.345-4.962.658-7.212 1.297-1.161.33-1.175 1.911-1.17 2.861.002 1.202-.097 2.301-.231 3.491-.1.886-.021 1.787.628 2.447.119.121.722.283.68.286.299.051.573.063.9.076 1.304.056 3.886-.195 3.386-2.091-.225-.851 3.029-.364 3.266.537 1.02 3.874-6.138 3.13-8.16 2.592-1.862-.494-3.915-1.554-4.023-3.704-.051-1.027.23-2.006.275-3.022.053-1.169-.165-2.337.246-3.466M39.955 18.59c-.053-1.8-.208-3.593-.22-5.393-.006-.92.146-1.841.279-2.75.122-.84.407-1.963.152-2.795-.198-.647 3-.243 3.254.586.458 1.498-.188 3.403-.341 4.918-.147 1.452-.032 2.946.072 4.42 1.708.11 3.418.249 5.119.01.077-1.162.164-2.32.273-3.482.088-.976.15-1.95.164-2.93.015-.855.12-2.098-.185-2.912-.651-1.732 2.656-1.59 3.136-.308.592 1.577.423 3.537.323 5.195-.13 2.058-.404 4.106-.47 6.166-.101 3.182-.58 6.329-.593 9.515-.007 1.66-3.338 1.099-3.331-.288.012-3.04.417-6.037.57-9.068.006-.061.009-.121.01-.185-1.64.016-3.28-.15-4.928-.207.17 3.903-.514 7.772-.364 11.672.019.492-3.264.077-3.3-.883-.145-3.771.493-7.511.38-11.281M54.035 13.219c-.254-.26-.16-.414.045-.506a50.752 50.752 0 00-.178-4.424c-.396-.63.39-.96.912-.96h.082c.622 0 2.209.293 2.289 1.149.163 1.768.21 3.535.197 5.299 1.337 1.446 2.433 3.056 3.416 4.748.639-1.248 1.247-2.505 1.675-3.862.725-2.31 1.938-4.43 2.637-6.75.459-1.521 3.754-.621 3.298.885-.701 2.319-1.856 4.462-2.638 6.75-.791 2.322-1.998 4.36-3.046 6.568.845 1.64 1.7 3.284 2.47 4.96.698 1.525 1.219 3.216 2.594 4.289.483.376.464.755-.216.8-.737.055-1.738-.158-2.334-.624-1.25-.973-2.042-2.158-2.694-3.594a137.075 137.075 0 00-2.455-5.118l-.188-.373c-.412-.263-.66-.641-.54-1.064-.665-1.317-1.346-2.627-2.103-3.885-.252 4.66-.803 9.317-.97 13.983-.035 1.069-3.344.404-3.296-.885.204-5.785 1.024-11.557 1.083-17.34-.013-.017-.027-.032-.04-.046M78.907 19.612c-1.928.046-3.828.35-5.651-.036-.086 1.051-.183 2.098-.255 3.154-.134 1.962.098 4.702 1.927 5.896.493.318 1.414.263 1.985.368.819.147 1.647.328 2.384-.16 1.017-.676.768-3.08.765-4.1-.002-1.69.177-3.37.262-5.059a11.866 11.866 0 00-1.417-.063m6.662-.162c-.177.701-1.155.716-1.914.648-.01.282-.017.567-.03.85-.106 2.24-.138 4.53-.328 6.764-.176 2.07-1.335 2.811-3.346 2.734-2.035-.077-4.404-.443-6.302-1.183-2.197-.852-3.421-2.47-3.841-4.784-.464-2.539.202-5.238.314-7.789.13-2.95.056-5.909.054-8.859 0-.485 3.296-.028 3.296.884.004 2.337.038 4.675 0 7.013-.01.69-.043 1.374-.085 2.057 1.156.5 3.107-.01 4.255-.118.933-.089 1.827.137 2.733.244.016-1.946.09-3.905.17-5.85.042-.998.402-2.975-.297-3.8-.368-.435 1.249-.288 1.309-.28.668.124 1.483.338 1.94.877.8.942.384 3.192.338 4.316-.066 1.612-.086 3.223-.121 4.834.972.131 2.037.727 1.855 1.442M18.7 30.929a.578.578 0 01.12-.497l.002-.114.013-.283a.762.762 0 01.362-.446c.325-.196.737-.232 1.108-.196.44.04.882.19 1.246.439l.215.183c.439.282.819.697.613 1.146-.424.932-.36 1.88-.35 2.875.005.808-.811 1.05-1.501.99-.608-.054-1.827-.49-1.831-1.28-.007-.836-.061-1.698.092-2.522-.041-.092-.065-.198-.088-.295M80.278 1.745c-1.558.585-3.283.615-4.851.787-1.602.17-3.245.41-4.883.563-1.637-.053-3.31-.028-4.972-.129l-4.88-.268c-6.487-.289-13-.253-19.517-.107-6.516.123-13.044.476-19.63.453a227.325 227.325 0 01-9.862-.25c-1.632-.283-3.24-.5-4.904-.913-1.615-.4-3.145-.907-4.794-1.048C3.608.471 5.325.541 6.947.536c1.579-.01 3.243-.143 4.872-.23 3.229.17 6.487.245 9.733.256C28.04.587 34.567.233 41.118.112c6.548-.147 13.114-.186 19.682.11l4.908.268c1.602.071 3.198.127 4.829.067 1.628.15 3.253.331 4.918.533 1.664.238 3.219.627 4.854.51l.074-.007.006.054c.022.178-.04.324-.04.48-.035-.128-.04-.265-.071-.382"/>
  </g>
</svg>
