<?xml version="1.0" encoding="UTF-8" standalone="no"?>
<svg
   xmlns:dc="http://purl.org/dc/elements/1.1/"
   xmlns:cc="http://creativecommons.org/ns#"
   xmlns:rdf="http://www.w3.org/1999/02/22-rdf-syntax-ns#"
   xmlns:svg="http://www.w3.org/2000/svg"
   xmlns="http://www.w3.org/2000/svg"
   viewBox="0 0 197.39999 96.944"
   height="42"
   width="149"
   xml:space="preserve"
   id="svg2"
   version="1.1"><metadata
     id="metadata8"><rdf:RDF><cc:Work
         rdf:about=""><dc:format>image/svg+xml</dc:format><dc:type
           rdf:resource="http://purl.org/dc/dcmitype/StillImage" /></cc:Work></rdf:RDF></metadata><defs
     id="defs6"><clipPath
       id="clipPath18"
       clipPathUnits="userSpaceOnUse"><path
         id="path16"
         d="M 0,72.708 H 148.05 V 0 H 0 Z" /></clipPath></defs><g
     transform="matrix(1.3333333,0,0,-1.3333333,0,96.944)"
     id="g10"><g
       id="g12"><g
         clip-path="url(#clipPath18)"
         id="g14"><g
           transform="translate(87.8345,56.356)"
           id="g20"><path
             id="path22"
             style="fill:#000000;fill-opacity:1;fill-rule:nonzero;stroke:none"
             d="M 0,0 C -0.049,-0.039 -0.094,-0.079 -0.134,-0.123 -0.062,0.189 0.015,0.5 0.095,0.811 0.13,0.81 0.167,0.81 0.205,0.811 0.138,0.541 0.067,0.27 0,0 m 55.33,-15.046 c -1.481,-1.055 -3.054,-1.942 -4.657,-2.777 0.037,1.747 -0.119,3.465 -0.591,5.127 0.051,0.333 0.103,0.667 0.146,1.002 0.375,3.005 0.656,7.122 -2.004,9.224 -0.334,0.265 -1.248,0.035 -1.922,-0.274 -0.156,0.151 -0.323,0.289 -0.496,0.415 -0.082,0.242 -0.159,0.487 -0.229,0.735 -0.035,0.12 -0.168,0.188 -0.36,0.215 0.285,0.383 0.262,0.818 -0.419,1.092 C 44.42,-0.135 44.039,0 43.655,0.126 43.588,0.198 43.528,0.222 43.483,0.184 L 43.478,0.181 c -0.939,0.3 -1.894,0.533 -2.86,0.705 0.138,0.331 0.397,0.813 0.552,1 0.132,0.157 0.279,0.3 0.429,0.439 0.062,0.057 0.125,0.111 0.188,0.165 0.032,0.027 0.053,0.046 0.069,0.061 0.02,0.014 0.045,0.034 0.084,0.062 0.379,0.288 0.846,0.865 0.221,1.202 -0.57,0.307 -1.508,0.142 -2.008,-0.238 -0.862,-0.655 -1.625,-1.379 -2.091,-2.361 -2.01,0.169 -4.049,0.155 -6.079,0.078 0.062,0.076 0.112,0.158 0.141,0.25 0.184,0.585 -0.908,0.525 -1.187,0.488 -1.563,-0.205 -3.125,-0.407 -4.689,-0.604 1.367,3.773 3.083,8.578 1.001,12.264 -1.189,2.106 -3.906,2.579 -6.098,2.652 -2.436,0.081 -4.898,-0.461 -7.036,-1.636 C 9.353,12.09 7.005,6.998 5.905,1.57 5.408,2.227 3.604,1.995 3.261,1.102 3.136,0.782 3.031,0.457 2.933,0.13 2.772,-0.044 2.651,-0.256 2.588,-0.507 2.573,-0.563 2.562,-0.618 2.547,-0.674 2.481,-0.676 2.416,-0.679 2.351,-0.681 c 0.02,0.104 0.041,0.207 0.064,0.31 0.147,0.109 0.247,0.232 0.279,0.366 0.575,2.296 1.157,4.588 1.95,6.82 C 4.912,7.571 2.132,7.214 1.839,6.389 1.415,5.196 1.054,3.986 0.72,2.767 0.554,2.689 0.362,2.58 0.294,2.441 0.276,2.407 0.263,2.371 0.247,2.337 0.14,2.43 -0.024,2.488 -0.22,2.515 v 0.959 c 0,0.432 -2.822,0.034 -2.822,-0.757 V 1.149 C -3.209,1.077 -3.369,0.991 -3.515,0.883 -3.577,0.826 -3.642,0.769 -3.704,0.711 -3.776,0.64 -3.817,0.559 -3.824,0.466 -3.831,0.44 -3.837,0.413 -3.847,0.388 -3.864,0.366 -3.879,0.342 -3.899,0.322 -4.024,0.194 -4.083,-0.013 -3.926,-0.145 c 0.191,-0.16 0.508,-0.167 0.738,-0.159 0.048,0.002 0.097,0.007 0.146,0.011 v -0.468 c -0.227,0.001 -0.45,0.003 -0.675,0.006 l -0.411,0.051 c -0.021,0.385 -0.676,0.452 -1.351,0.328 0.005,0.049 0.007,0.098 0,0.148 -0.102,0.595 -0.174,1.192 -0.23,1.79 0.237,0.079 0.472,0.18 0.681,0.313 0.158,0.102 0.327,0.224 0.327,0.43 v 0.194 c 0,0.18 -0.411,0.204 -0.499,0.208 -0.196,0.009 -0.395,-0.009 -0.589,-0.041 -0.075,1.305 -0.081,2.615 -0.081,3.925 0,0.84 -2.824,0.315 -2.822,-0.757 0,-1.786 0.007,-3.57 0.192,-5.343 C -8.587,0.493 -8.679,0.49 -8.771,0.482 v 1.532 c 0,1.045 -1.296,1.22 -2.146,0.809 0.313,0.262 0.488,0.622 0.37,1.039 -0.403,1.414 -0.778,2.827 -0.974,4.287 -0.188,1.394 -3.017,0.677 -2.824,-0.756 0.196,-1.46 0.57,-2.873 0.975,-4.287 0.235,-0.828 1.338,-0.889 2.103,-0.51 C -11.493,2.4 -11.64,2.144 -11.64,1.836 v -0.63 c -0.188,0.098 -0.438,0.16 -0.769,0.16 -1.057,0 -1.671,-0.885 -1.4,-1.477 -0.164,0.027 -0.327,0.054 -0.491,0.083 -0.382,1.248 -0.686,2.514 -0.714,3.83 -0.02,0.942 -1.27,1.049 -2.108,0.672 -0.008,0.056 -0.022,0.111 -0.049,0.168 -0.385,0.804 -0.567,1.674 -0.78,2.533 -0.332,1.35 -3.158,0.601 -2.823,-0.756 0.157,-0.638 0.3,-1.281 0.519,-1.898 -0.018,-0.005 -0.039,-0.009 -0.056,-0.014 -0.3,-0.081 -0.601,-0.205 -0.854,-0.387 -0.832,-0.079 -1.828,-0.565 -1.752,-1.208 0.058,-0.478 0.131,-0.953 0.209,-1.427 -0.546,-0.091 -1.092,-0.177 -1.639,-0.26 -0.289,0.787 -0.499,1.601 -0.618,2.443 -0.131,0.924 -1.555,0.854 -2.332,0.26 -0.774,2.062 -1.796,4.019 -3.122,5.761 -2.621,3.439 -7.097,4.613 -11.242,3.794 -1.9,-0.376 -3.735,-1.184 -5.043,-2.646 -1.21,-1.353 -1.352,-3.089 -1.17,-4.805 0.158,-1.493 0.61,-4.005 1.584,-5.976 -0.35,0.012 -0.709,-0.041 -0.949,-0.139 -0.283,-0.117 -0.561,-0.248 -0.833,-0.388 -1.939,-0.029 -3.877,-0.019 -5.803,0.07 -4.179,0.194 -8.301,0.86 -12.497,0.742 -0.923,-0.026 -1.534,-0.719 -1.465,-1.262 -1.046,-0.502 -1.733,-1.315 -2.143,-2.287 -1.732,1.15 -3.479,2.266 -5.335,3.211 -0.689,0.351 -3.3,-0.707 -2.285,-1.224 1.84,-0.938 3.561,-2.072 5.278,-3.216 0.512,-0.341 1.32,-0.133 1.842,0.07 0.03,0.012 0.09,0.039 0.165,0.077 -0.306,-1.44 -0.157,-3.067 0.241,-4.493 0.03,-0.11 0.093,-0.198 0.172,-0.27 -0.021,-0.338 -0.023,-0.677 -0.007,-1.015 -10e-4,-0.055 -10e-4,-0.109 -0.002,-0.165 -0.4,-0.189 -0.712,-0.48 -0.76,-0.839 -0.188,-1.411 -0.278,-2.82 -0.305,-4.229 -0.272,-0.199 -0.462,-0.469 -0.485,-0.798 -0.233,-3.345 0.037,-6.651 0.467,-9.95 0.185,-2.694 0.69,-5.344 1.172,-7.998 0.058,-0.416 0.113,-0.832 0.167,-1.25 -0.265,-1.133 -0.398,-2.395 -0.237,-3.482 -0.881,-0.171 -1.729,-0.866 -1.233,-1.617 0.765,-1.158 1.644,-2.019 2.606,-2.649 -0.633,0.103 -1.42,-0.11 -1.871,-0.555 -0.818,-0.809 -1.715,-1.531 -2.533,-2.339 -0.429,-0.424 -0.314,-0.935 0.289,-1.078 0.651,-0.155 1.516,0.059 1.997,0.535 0.817,0.808 1.715,1.531 2.533,2.339 0.248,0.245 0.308,0.518 0.204,0.73 3.21,-1.734 7.235,-1.269 11.114,-0.942 -0.882,-1.589 -1.542,-3.272 -2.17,-4.997 -0.262,-0.719 2.507,-0.373 2.801,0.435 0.61,1.676 1.237,3.344 2.103,4.896 3.741,-0.117 7.479,-0.122 11.215,-0.051 0.149,-0.182 0.416,-0.305 0.746,-0.336 3.27,-0.311 6.489,0.096 9.688,0.699 4.789,0.229 9.577,0.525 14.366,0.809 7.527,0.187 15.056,0.347 22.587,0.319 0.099,-0.108 0.204,-0.214 0.314,-0.317 0.272,-0.256 0.621,-0.345 0.979,-0.33 0.062,-0.009 0.129,-0.016 0.199,-0.019 0.714,-0.036 1.428,-0.087 2.141,-0.145 0.156,-0.04 0.341,-0.059 0.559,-0.046 h 0.005 c 0.781,-0.066 1.563,-0.141 2.346,-0.208 0.172,-0.214 0.497,-0.342 0.792,-0.36 3.803,-0.25 7.612,-0.523 11.423,-0.703 0.14,-0.23 0.537,-0.34 0.82,-0.344 7.066,-0.06 15.277,-2.804 21.559,1.736 0.5,0.361 0.272,0.877 -0.265,0.984 -0.109,0.021 -0.217,0.032 -0.325,0.034 0.007,0.016 0.017,0.03 0.022,0.045 1.194,2.769 2.174,5.632 2.944,8.552 0.366,0.198 0.633,0.494 0.647,0.86 0.049,1.189 0.187,2.406 0.371,3.638 0.166,0.885 0.313,1.772 0.441,2.661 0.387,2.169 0.806,4.367 1.018,6.541 2.279,1.147 4.538,2.335 6.622,3.819 1.566,1.117 -0.784,1.883 -1.832,1.137" /></g><g
           transform="translate(63.2607,60.0811)"
           id="g24"><path
             id="path26"
             style="fill:#000000;fill-opacity:1;fill-rule:nonzero;stroke:none"
             d="M 0,0 C 0.127,-0.196 0.562,-0.217 0.753,-0.217 1.13,-0.218 1.512,-0.134 1.859,0.008 2.263,0.174 2.96,0.567 2.629,1.078 2.266,1.64 2.02,2.268 1.654,2.832 1.527,3.028 1.092,3.049 0.9,3.049 0.524,3.05 0.142,2.966 -0.205,2.823 -0.609,2.658 -1.306,2.265 -0.975,1.754 -0.612,1.192 -0.365,0.563 0,0" /></g><g
           transform="translate(20.6826,61.7998)"
           id="g28"><path
             id="path30"
             style="fill:#000000;fill-opacity:1;fill-rule:nonzero;stroke:none"
             d="M 0,0 C 0.216,-0.647 1.111,-0.647 1.648,-0.504 2.12,-0.377 3.038,0.112 2.823,0.756 2.615,1.38 2.39,2.049 1.93,2.536 1.451,3.043 0.606,2.953 0.028,2.688 -0.384,2.497 -1.149,1.849 -0.667,1.338 -0.285,0.933 -0.189,0.566 0,0" /></g><g
           transform="translate(30.6597,58.812)"
           id="g32"><path
             id="path34"
             style="fill:#000000;fill-opacity:1;fill-rule:nonzero;stroke:none"
             d="M 0,0 C 0.843,0 3.073,1.276 1.186,1.276 0.343,1.276 -1.888,0 0,0" /></g><g
           transform="translate(122.562,60.4331)"
           id="g36"><path
             id="path38"
             style="fill:#000000;fill-opacity:1;fill-rule:nonzero;stroke:none"
             d="M 0,0 C 0.346,-0.072 0.717,-0.032 1.055,0.059 1.375,0.145 1.754,0.293 1.996,0.536 2.351,0.891 2.724,1.265 2.957,1.714 3.062,1.912 3.131,2.113 2.953,2.301 2.765,2.498 2.445,2.546 2.189,2.552 1.813,2.562 1.429,2.478 1.084,2.332 0.832,2.226 0.463,2.038 0.328,1.779 0.229,1.593 0.109,1.426 -0.023,1.266 -0.031,1.257 -0.039,1.248 -0.047,1.239 -0.058,1.227 -0.067,1.216 -0.074,1.207 -0.139,1.14 -0.205,1.074 -0.27,1.008 -0.428,0.85 -0.615,0.643 -0.549,0.394 -0.485,0.153 -0.215,0.045 0,0" /></g><g
           transform="translate(135.8608,55.0151)"
           id="g40"><path
             id="path42"
             style="fill:#000000;fill-opacity:1;fill-rule:nonzero;stroke:none"
             d="M 0,0 C 0.631,0.061 1.395,0.246 1.894,0.662 3.213,1.764 4.496,2.91 5.517,4.304 5.805,4.697 4.468,4.547 4.398,4.534 3.865,4.435 3.082,4.258 2.738,3.788 1.789,2.492 0.574,1.439 -0.653,0.414 -1.151,-0.001 -0.213,-0.02 0,0" /></g><g
           transform="translate(146.7397,27.9375)"
           id="g44"><path
             id="path46"
             style="fill:#000000;fill-opacity:1;fill-rule:nonzero;stroke:none"
             d="m 0,0 h -4.872 c -0.616,0 -1.476,-0.467 -1.556,-1.139 -0.09,-0.738 0.754,-0.922 1.304,-0.922 h 4.87 c 0.617,0 1.476,0.469 1.558,1.139 C 1.394,-0.183 0.55,0 0,0" /></g><g
           transform="translate(57.0205,11.9229)"
           id="g48"><path
             id="path50"
             style="fill:#000000;fill-opacity:1;fill-rule:nonzero;stroke:none"
             d="m 0,0 c -0.498,-0.08 -1.412,-0.296 -1.639,-0.831 -0.538,-1.272 -0.981,-2.57 -1.364,-3.897 -0.211,-0.733 2.571,-0.333 2.798,0.452 C 0.178,-2.95 0.62,-1.651 1.158,-0.38 1.38,0.147 0.192,0.032 0,0" /></g><g
           transform="translate(61.6016,9.332)"
           id="g52"><path
             id="path54"
             style="fill:#000000;fill-opacity:1;fill-rule:nonzero;stroke:none"
             d="m 0,0 c -0.347,0.003 -0.696,-0.063 -1.029,-0.152 -0.333,-0.089 -0.67,-0.207 -0.968,-0.383 -0.141,-0.084 -0.338,-0.199 -0.338,-0.39 -10e-4,-0.116 -0.007,-0.231 -0.021,-0.346 -0.025,-0.103 -0.06,-0.2 -0.125,-0.286 0.004,0.004 0.008,0.009 0.012,0.014 -0.064,-0.082 -0.108,-0.18 0.018,-0.253 0.196,-0.114 0.502,-0.083 0.712,-0.061 0.374,0.037 0.745,0.127 1.099,0.252 0.243,0.084 0.613,0.207 0.795,0.406 0.149,0.164 0.241,0.286 0.284,0.501 0.035,0.177 0.05,0.348 0.05,0.529 C 0.488,-0.003 0.067,-0.001 0,0" /></g><g
           transform="translate(116.6519,5.6563)"
           id="g56"><path
             id="path58"
             style="fill:#000000;fill-opacity:1;fill-rule:nonzero;stroke:none"
             d="M 0,0 C -0.354,0.686 -3.043,-0.331 -2.823,-0.758 -1.979,-2.395 -0.885,-3.879 0.1,-5.434 0.535,-6.123 3.14,-5.02 2.923,-4.678 1.94,-3.123 0.844,-1.639 0,0" /></g><g
           transform="translate(120.7437,7.9941)"
           id="g60"><path
             id="path62"
             style="fill:#000000;fill-opacity:1;fill-rule:nonzero;stroke:none"
             d="m 0,0 c -0.294,0.588 -1.066,0.563 -1.624,0.414 -0.351,-0.094 -1.485,-0.598 -1.199,-1.17 0.389,-0.78 0.779,-1.558 1.169,-2.34 0.294,-0.588 1.068,-0.561 1.624,-0.414 0.35,0.095 1.486,0.599 1.199,1.172 C 0.779,-1.559 0.39,-0.78 0,0" /></g><g
           transform="translate(5.6675,29.6016)"
           id="g64"><path
             id="path66"
             style="fill:#000000;fill-opacity:1;fill-rule:nonzero;stroke:none"
             d="m 0,0 c -1.486,-0.358 -3.006,-0.57 -4.481,-0.975 -0.537,-0.146 -1.342,-0.64 -1.16,-1.318 0.181,-0.675 1.128,-0.709 1.664,-0.561 1.476,0.403 2.995,0.615 4.482,0.975 0.541,0.129 1.338,0.65 1.16,1.317 C 1.48,0.123 0.541,0.131 0,0" /></g><g
           transform="translate(43.7515,32.6016)"
           id="g68"><path
             id="path70"
             style="fill:#ffffff;fill-opacity:1;fill-rule:nonzero;stroke:none"
             d="m 0,0 c -0.083,2.707 -0.514,5.396 -0.479,8.107 0.028,2.194 0.393,4.451 -0.363,6.555 0.047,0.238 0.097,0.477 0.141,0.716 0.195,1.056 -3.3,0.497 -3.849,-0.467 -0.346,-0.284 -0.523,-0.621 -0.377,-0.966 0.037,-0.087 0.069,-0.174 0.102,-0.262 -0.662,-3.234 -1.584,-6.365 -2.645,-9.498 -0.406,-1.2 -0.896,-2.371 -1.31,-3.566 -0.587,1.114 -1.181,2.215 -1.658,3.408 -1.386,3.464 -2.636,6.966 -4.326,10.3 0.192,1.543 -3.232,1.381 -3.907,-0.033 -0.816,-1.709 -0.711,-3.434 -0.442,-5.262 0.303,-2.06 0.356,-4.086 0.381,-6.167 0.048,-4.011 0.361,-8.015 0.421,-12.027 -0.357,-0.397 -0.466,-0.889 -0.092,-1.388 0.163,-0.217 0.365,-0.385 0.576,-0.554 0.913,-0.73 3.533,-0.107 3.528,1.284 -0.014,4.16 -0.314,8.311 -0.424,12.47 -0.011,0.408 -0.018,0.814 -0.024,1.223 0.058,-0.146 0.115,-0.293 0.173,-0.438 0.646,-1.619 1.322,-3.191 2.205,-4.697 0.876,-1.49 1.315,-3.092 1.819,-4.718 -0.19,-0.219 -0.305,-0.467 -0.234,-0.715 -0.04,-0.182 0.071,-0.294 0.253,-0.364 0.645,-0.551 1.858,-0.277 2.532,0.007 0.29,0.122 0.566,0.263 0.834,0.427 0.348,0.215 0.891,0.687 0.735,1.17 -0.03,0.094 -0.059,0.187 -0.088,0.281 0.475,1.281 0.716,2.612 0.975,3.965 0.275,1.441 0.789,2.806 1.307,4.172 0.053,-0.625 0.107,-1.25 0.157,-1.873 0.206,-2.576 0.033,-5.117 0.008,-7.695 -0.009,-0.854 0.054,-1.649 0.221,-2.485 0.068,-0.345 0.37,-1.824 0.283,-1.904 -0.617,-0.569 -0.438,-1.268 0.389,-1.449 0.923,-0.203 2.1,0.105 2.795,0.749 1.209,1.116 0.638,2.87 0.364,4.28 C -0.479,-5.053 0.074,-2.406 0,0" /></g><g
           transform="translate(52.1914,31.9189)"
           id="g72"><path
             id="path74"
             style="fill:#ffffff;fill-opacity:1;fill-rule:nonzero;stroke:none"
             d="m 0,0 c -0.074,2.007 -0.771,3.897 -0.781,5.925 -0.011,2.327 0.183,4.635 -0.156,6.949 -0.107,0.732 -4.093,-0.101 -3.953,-1.059 0.312,-2.129 0.199,-4.268 0.161,-6.412 -0.037,-2.063 0.472,-3.933 0.737,-5.958 0.271,-2.073 -0.085,-4.195 0.15,-6.271 0.11,-0.971 0.758,-2.768 0.09,-3.612 -0.424,-0.538 1.482,-0.344 1.568,-0.331 0.775,0.144 1.809,0.396 2.324,1.049 0.659,0.835 0.198,2.448 0.054,3.387 C -0.126,-4.253 0.079,-2.097 0,0" /></g><g
           transform="translate(68.6704,35.2695)"
           id="g76"><path
             id="path78"
             style="fill:#ffffff;fill-opacity:1;fill-rule:nonzero;stroke:none"
             d="m 0,0 c -2.081,2.809 -5.943,0.787 -8.64,1.554 -1.39,0.396 -1.407,2.292 -1.403,3.427 0.004,1.439 -0.115,2.757 -0.276,4.185 -0.119,1.061 -0.024,2.14 0.753,2.93 0.143,0.146 0.866,0.339 0.817,0.342 0.356,0.062 0.683,0.077 1.077,0.093 1.562,0.068 4.654,-0.234 4.056,-2.506 -0.269,-1.019 3.629,-0.435 3.913,0.643 1.224,4.641 -7.352,3.749 -9.774,3.106 -2.231,-0.591 -4.692,-1.861 -4.819,-4.438 -0.062,-1.23 0.274,-2.4 0.328,-3.62 0.061,-1.403 -0.2,-2.801 0.291,-4.154 1.092,-3.01 5.57,-1.59 7.849,-1.761 3.88,-0.29 2.722,-5.52 2.772,-7.955 0.027,-1.301 1.192,-3.461 0.213,-4.549 -0.601,-0.668 -2,-0.707 -2.817,-0.775 -0.821,-0.069 -2.221,-0.315 -2.768,0.465 -1.002,1.431 0.093,3.834 -0.121,5.474 -0.122,0.934 -4.104,0.097 -3.953,-1.059 0.346,-2.65 -1.412,-6.199 2.424,-6.654 2.464,-0.293 5.238,0.162 7.568,0.936 1.207,0.4 2.328,0.951 3.272,1.81 1.045,0.948 0.701,2.368 0.421,3.578 C 0.501,-5.984 1.922,-2.595 0,0" /></g><g
           transform="translate(86.1538,35.459)"
           id="g80"><path
             id="path82"
             style="fill:#ffffff;fill-opacity:1;fill-rule:nonzero;stroke:none"
             d="m 0,0 c -0.121,3.812 -0.695,7.582 -0.711,11.4 -0.008,1.989 -4,1.317 -3.992,-0.346 0.015,-3.641 0.501,-7.232 0.687,-10.863 0.004,-0.073 0.008,-0.147 0.012,-0.222 -1.967,0.018 -3.934,-0.179 -5.904,-0.248 0.203,4.675 -0.617,9.311 -0.438,13.983 0.022,0.587 -3.909,0.091 -3.953,-1.059 -0.172,-4.516 0.593,-8.997 0.457,-13.514 -0.064,-2.154 -0.247,-4.303 -0.262,-6.46 -0.008,-1.105 0.173,-2.204 0.332,-3.293 0.147,-1.008 0.488,-2.353 0.183,-3.349 -0.238,-0.779 3.594,-0.293 3.897,0.701 0.549,1.793 -0.224,4.077 -0.408,5.892 -0.177,1.74 -0.041,3.53 0.084,5.296 2.047,0.131 4.096,0.3 6.135,0.012 0.09,-1.391 0.197,-2.78 0.324,-4.172 0.107,-1.168 0.182,-2.334 0.199,-3.507 0.016,-1.028 0.143,-2.519 -0.223,-3.492 -0.78,-2.075 3.179,-1.905 3.757,-0.368 0.71,1.887 0.507,4.237 0.386,6.22 C 0.41,-4.921 0.08,-2.469 0,0" /></g><g
           transform="translate(103.2417,30.9453)"
           id="g84"><path
             id="path86"
             style="fill:#ffffff;fill-opacity:1;fill-rule:nonzero;stroke:none"
             d="m 0,0 c -0.948,2.783 -2.395,5.224 -3.649,7.868 1.01,1.967 2.036,3.935 2.959,5.942 0.838,1.824 1.46,3.854 3.107,5.139 0.579,0.451 0.555,0.904 -0.259,0.96 C 1.275,19.97 0.076,19.715 -0.637,19.16 -2.135,17.992 -3.084,16.573 -3.865,14.853 -4.805,12.784 -5.779,10.752 -6.805,8.723 -6.879,8.574 -6.955,8.425 -7.031,8.275 -7.525,7.957 -7.823,7.506 -7.676,6.998 -8.475,5.42 -9.29,3.852 -10.197,2.345 c -0.302,5.584 -0.963,11.162 -1.161,16.751 -0.045,1.281 -4.007,0.484 -3.953,-1.059 0.246,-6.931 1.23,-13.846 1.299,-20.775 -0.017,-0.018 -0.033,-0.034 -0.049,-0.051 -0.303,-0.311 -0.191,-0.498 0.053,-0.607 0.002,-1.766 -0.06,-3.534 -0.211,-5.302 -0.477,-0.752 0.467,-1.15 1.094,-1.15 h 0.098 c 0.746,0 2.648,0.354 2.742,1.377 0.193,2.118 0.254,4.234 0.234,6.349 1.605,1.731 2.916,3.663 4.093,5.686 0.766,-1.494 1.495,-3 2.007,-4.625 0.868,-2.765 2.32,-5.307 3.159,-8.086 0.55,-1.822 4.497,-0.746 3.952,1.059 C 2.32,-5.311 0.936,-2.743 0,0" /></g><g
           transform="translate(112.2075,35.7734)"
           id="g88"><path
             id="path90"
             style="fill:#ffffff;fill-opacity:1;fill-rule:nonzero;stroke:none"
             d="m 0,0 c -0.104,1.258 -0.22,2.514 -0.306,3.777 -0.161,2.352 0.118,5.635 2.31,7.063 0.587,0.383 1.69,0.317 2.377,0.442 C 5.36,11.458 6.354,11.675 7.235,11.09 8.457,10.28 8.155,7.399 8.153,6.177 8.151,4.152 8.364,2.139 8.467,0.119 7.909,0.063 7.345,0.028 6.769,0.041 4.462,0.097 2.185,0.459 0,0 M 14.752,-0.151 C 14.54,0.688 13.367,0.706 12.46,0.625 12.446,0.964 12.438,1.303 12.424,1.642 12.297,4.328 12.256,7.069 12.028,9.747 11.817,12.226 10.429,13.115 8.021,13.022 5.582,12.93 2.743,12.491 0.47,11.606 -2.162,10.583 -3.626,8.646 -4.131,5.874 c -0.556,-3.041 0.241,-6.275 0.377,-9.331 0.155,-3.535 0.066,-7.078 0.062,-10.614 0,-0.579 3.952,-0.032 3.953,1.059 0.004,2.801 0.043,5.602 0,8.402 -0.014,0.826 -0.052,1.647 -0.104,2.465 1.382,0.6 3.721,-0.012 5.097,-0.142 1.117,-0.106 2.188,0.166 3.272,0.294 0.022,-2.333 0.109,-4.679 0.205,-7.009 0.049,-1.193 0.481,-3.562 -0.356,-4.551 -0.44,-0.521 1.493,-0.347 1.567,-0.334 0.802,0.148 1.778,0.405 2.325,1.051 0.959,1.129 0.461,3.824 0.405,5.172 -0.079,1.929 -0.103,3.859 -0.144,5.789 1.166,0.152 2.442,0.865 2.224,1.724" /></g><g
           transform="translate(48.7705,47.5313)"
           id="g92"><path
             id="path94"
             style="fill:#ffffff;fill-opacity:1;fill-rule:nonzero;stroke:none"
             d="M 0,0 C 0.526,0.051 1.055,0.229 1.49,0.529 1.577,0.602 1.663,0.675 1.75,0.748 2.274,1.086 2.729,1.582 2.484,2.121 1.975,3.236 2.056,4.372 2.064,5.566 2.071,6.532 1.092,6.823 0.267,6.751 -0.462,6.687 -1.921,6.165 -1.927,5.217 -1.934,4.215 -1.999,3.183 -1.817,2.197 -1.866,2.084 -1.892,1.956 -1.922,1.839 -1.978,1.625 -1.906,1.415 -1.778,1.244 c 0,-0.045 0.002,-0.09 0.002,-0.135 C -1.771,0.996 -1.765,0.883 -1.761,0.771 -1.687,0.536 -1.543,0.358 -1.328,0.236 -0.938,0 -0.444,-0.043 0,0" /></g></g></g></g></svg>
