<?xml version="1.0" encoding="UTF-8" standalone="no"?>
<svg
   xmlns:dc="http://purl.org/dc/elements/1.1/"
   xmlns:cc="http://creativecommons.org/ns#"
   xmlns:rdf="http://www.w3.org/1999/02/22-rdf-syntax-ns#"
   xmlns:svg="http://www.w3.org/2000/svg"
   xmlns="http://www.w3.org/2000/svg"
   viewBox="0 0 114.1192 46.712269"
   height="46.712269"
   width="114.1192"
   xml:space="preserve"
   id="svg2"
   version="1.1"><metadata
     id="metadata8"><rdf:RDF><cc:Work
         rdf:about=""><dc:format>image/svg+xml</dc:format><dc:type
           rdf:resource="http://purl.org/dc/dcmitype/StillImage" /></cc:Work></rdf:RDF></metadata><defs
     id="defs6"><clipPath
       id="clipPath18"
       clipPathUnits="userSpaceOnUse"><path
         id="path16"
         d="M 0,35.034 H 85.589 V 0 H 0 Z" /></clipPath></defs><g
     transform="matrix(1.3333333,0,0,-1.3333333,0,46.712267)"
     id="g10"><g
       id="g12"><g
         clip-path="url(#clipPath18)"
         id="g14"><g
           transform="translate(4.1802,8.7334)"
           id="g20"><path
             id="path22"
             style="fill:#000000;fill-opacity:1;fill-rule:nonzero;stroke:none"
             d="m 0,0 c -0.014,3.472 -0.262,6.938 -0.356,10.409 -0.008,0.34 -0.015,0.681 -0.02,1.021 0.049,-0.122 0.097,-0.243 0.146,-0.365 C 0.31,9.714 0.872,8.402 1.608,7.146 2.34,5.901 2.707,4.565 3.129,3.206 2.97,3.024 2.873,2.816 2.933,2.61 2.899,2.46 2.991,2.365 3.145,2.305 3.682,1.845 4.694,2.073 5.258,2.313 5.5,2.414 5.731,2.533 5.954,2.668 6.244,2.849 6.698,3.24 6.567,3.645 6.543,3.724 6.519,3.802 6.495,3.88 6.892,4.948 7.093,6.059 7.309,7.188 7.539,8.394 7.968,9.532 8.4,10.673 8.443,10.152 8.488,9.629 8.529,9.106 8.703,6.959 8.558,4.837 8.537,2.685 8.529,1.972 8.583,1.31 8.721,0.609 8.779,0.322 9.03,-0.912 8.956,-0.979 8.44,-1.454 8.59,-2.039 9.282,-2.189 c 0.772,-0.169 1.753,0.087 2.333,0.625 1.009,0.933 0.531,2.396 0.304,3.572 -0.385,1.972 0.077,4.18 0.017,6.189 -0.07,2.26 -0.43,4.503 -0.4,6.769 0.024,1.831 0.328,3.714 -0.303,5.471 0.039,0.2 0.08,0.398 0.118,0.599 C 11.514,21.915 8.597,21.45 8.139,20.645 7.849,20.409 7.701,20.126 7.825,19.839 7.856,19.768 7.882,19.692 7.909,19.62 7.357,16.921 6.588,14.307 5.702,11.69 5.363,10.689 4.954,9.714 4.607,8.713 c -0.49,0.933 -0.986,1.85 -1.383,2.847 -1.156,2.89 -2.2,5.813 -3.611,8.595 0.16,1.289 -2.697,1.154 -3.261,-0.026 -0.682,-1.426 -0.592,-2.866 -0.369,-4.393 0.254,-1.72 0.298,-3.411 0.32,-5.147 0.038,-3.347 0.3,-6.69 0.351,-10.04 -0.298,-0.331 -0.389,-0.741 -0.078,-1.158 0.136,-0.182 0.306,-0.322 0.483,-0.46 C -2.185,-1.681 0.005,-1.162 0,0" /></g><g
           transform="translate(22.3765,27.1055)"
           id="g24"><path
             id="path26"
             style="fill:#000000;fill-opacity:1;fill-rule:nonzero;stroke:none"
             d="m 0,0 c -0.089,0.613 -3.416,-0.084 -3.3,-0.885 0.259,-1.776 0.167,-3.56 0.136,-5.351 -0.031,-1.722 0.393,-3.283 0.615,-4.971 0.226,-1.732 -0.071,-3.502 0.126,-5.235 0.09,-0.812 0.632,-2.312 0.074,-3.018 -0.354,-0.447 1.238,-0.285 1.31,-0.275 0.646,0.12 1.509,0.331 1.938,0.875 0.552,0.697 0.165,2.042 0.045,2.827 -0.266,1.734 -0.096,3.537 -0.162,5.286 -0.06,1.676 -0.643,3.254 -0.65,4.946 C 0.122,-3.856 0.284,-1.932 0,0" /></g><g
           transform="translate(25.4995,20.46)"
           id="g28"><path
             id="path30"
             style="fill:#000000;fill-opacity:1;fill-rule:nonzero;stroke:none"
             d="m 0,0 c 0.91,-2.514 4.648,-1.327 6.551,-1.471 3.238,-0.239 2.272,-4.607 2.313,-6.64 0.023,-1.085 0.995,-2.889 0.179,-3.798 -0.502,-0.556 -1.669,-0.589 -2.352,-0.647 -0.686,-0.056 -1.853,-0.26 -2.311,0.39 -0.836,1.194 0.077,3.2 -0.102,4.568 -0.102,0.781 -3.424,0.08 -3.299,-0.883 0.291,-2.211 -1.178,-5.175 2.023,-5.556 2.059,-0.244 4.372,0.136 6.317,0.783 1.008,0.334 1.944,0.792 2.732,1.509 0.872,0.794 0.585,1.979 0.351,2.987 -0.569,2.458 0.617,5.289 -0.987,7.454 C 9.677,1.041 6.453,-0.646 4.203,-0.007 3.042,0.323 3.028,1.904 3.033,2.854 3.035,4.056 2.936,5.155 2.802,6.345 2.702,7.231 2.781,8.132 3.43,8.792 3.549,8.913 4.152,9.075 4.11,9.078 4.409,9.129 4.683,9.141 5.011,9.154 6.314,9.21 8.896,8.959 8.396,7.063 8.171,6.212 11.425,6.699 11.662,7.6 12.683,11.474 5.524,10.73 3.503,10.192 1.64,9.698 -0.413,8.638 -0.521,6.488 -0.572,5.461 -0.291,4.482 -0.246,3.466 -0.193,2.297 -0.411,1.129 0,0" /></g><g
           transform="translate(39.9546,18.5898)"
           id="g32"><path
             id="path34"
             style="fill:#000000;fill-opacity:1;fill-rule:nonzero;stroke:none"
             d="m 0,0 c -0.053,-1.799 -0.208,-3.593 -0.22,-5.393 -0.006,-0.92 0.146,-1.841 0.279,-2.75 0.122,-0.84 0.407,-1.963 0.152,-2.795 -0.198,-0.647 3,-0.243 3.254,0.586 0.458,1.498 -0.188,3.403 -0.341,4.918 -0.147,1.452 -0.032,2.946 0.072,4.42 1.708,0.111 3.418,0.249 5.119,0.011 0.077,-1.163 0.164,-2.321 0.273,-3.483 0.088,-0.976 0.151,-1.949 0.164,-2.929 0.015,-0.856 0.12,-2.099 -0.185,-2.913 -0.651,-1.732 2.656,-1.59 3.136,-0.308 0.592,1.577 0.423,3.537 0.323,5.195 -0.13,2.058 -0.404,4.106 -0.469,6.166 -0.102,3.182 -0.58,6.329 -0.594,9.515 C 10.956,11.901 7.625,11.339 7.632,9.952 7.644,6.912 8.049,3.915 8.203,0.884 8.208,0.823 8.211,0.763 8.213,0.699 6.573,0.715 4.932,0.55 3.284,0.492 3.455,4.395 2.77,8.264 2.92,12.164 2.939,12.656 -0.344,12.241 -0.38,11.281 -0.525,7.51 0.113,3.77 0,0" /></g><g
           transform="translate(54.0347,13.2188)"
           id="g36"><path
             id="path38"
             style="fill:#000000;fill-opacity:1;fill-rule:nonzero;stroke:none"
             d="m 0,0 c -0.254,-0.259 -0.159,-0.414 0.045,-0.506 0.001,-1.473 -0.05,-2.949 -0.178,-4.424 -0.396,-0.63 0.39,-0.96 0.912,-0.96 h 0.082 c 0.622,0 2.209,0.293 2.289,1.149 0.163,1.768 0.211,3.535 0.197,5.299 C 4.684,2.004 5.78,3.614 6.763,5.306 7.402,4.058 8.01,2.801 8.438,1.444 c 0.725,-2.309 1.938,-4.43 2.637,-6.75 0.459,-1.521 3.754,-0.621 3.298,0.885 -0.701,2.319 -1.856,4.462 -2.638,6.75 -0.791,2.322 -1.998,4.361 -3.046,6.568 0.845,1.641 1.7,3.284 2.47,4.96 0.698,1.525 1.219,3.216 2.594,4.289 0.483,0.376 0.464,0.755 -0.216,0.801 C 12.8,19.001 11.799,18.788 11.203,18.322 9.953,17.349 9.161,16.164 8.509,14.728 7.725,13.002 6.911,11.307 6.054,9.61 5.993,9.487 5.929,9.362 5.866,9.237 5.454,8.974 5.206,8.596 5.327,8.173 4.661,6.856 3.98,5.546 3.223,4.288 2.971,8.949 2.42,13.605 2.254,18.271 2.218,19.34 -1.091,18.675 -1.043,17.386 -0.839,11.601 -0.019,5.829 0.04,0.046 0.027,0.029 0.013,0.014 0,0" /></g><g
           transform="translate(78.9067,19.6123)"
           id="g40"><path
             id="path42"
             style="fill:#000000;fill-opacity:1;fill-rule:nonzero;stroke:none"
             d="M 0,0 C -1.928,0.046 -3.828,0.349 -5.651,-0.036 -5.737,1.015 -5.834,2.062 -5.906,3.118 -6.04,5.08 -5.808,7.82 -3.979,9.014 -3.486,9.332 -2.565,9.277 -1.994,9.382 -1.175,9.529 -0.347,9.71 0.39,9.222 1.407,8.546 1.158,6.142 1.155,5.121 1.153,3.431 1.332,1.751 1.417,0.063 0.952,0.017 0.479,-0.01 0,0 M 6.662,-0.162 C 6.485,0.539 5.507,0.554 4.748,0.486 4.738,0.768 4.731,1.053 4.719,1.335 4.612,3.576 4.58,5.865 4.39,8.1 4.214,10.169 3.055,10.911 1.044,10.834 -0.991,10.757 -3.36,10.391 -5.258,9.651 -7.455,8.799 -8.679,7.181 -9.099,4.867 c -0.464,-2.539 0.202,-5.238 0.314,-7.789 0.13,-2.951 0.056,-5.909 0.054,-8.859 0,-0.485 3.296,-0.028 3.296,0.884 0.004,2.337 0.038,4.675 0,7.013 -0.01,0.689 -0.043,1.374 -0.085,2.057 1.156,0.499 3.107,-0.01 4.255,-0.118 0.933,-0.089 1.827,0.137 2.733,0.244 0.016,-1.946 0.09,-3.905 0.17,-5.851 0.042,-0.997 0.402,-2.974 -0.297,-3.799 -0.368,-0.435 1.249,-0.288 1.309,-0.28 0.668,0.124 1.483,0.338 1.94,0.877 0.8,0.942 0.384,3.192 0.338,4.316 -0.066,1.612 -0.086,3.223 -0.121,4.834 0.972,0.131 2.037,0.727 1.855,1.442" /></g><g
           transform="translate(18.7007,30.9287)"
           id="g44"><path
             id="path46"
             style="fill:#000000;fill-opacity:1;fill-rule:nonzero;stroke:none"
             d="m 0,0 c -0.048,-0.18 0.013,-0.356 0.119,-0.497 0,-0.039 0.002,-0.075 0.002,-0.114 0.004,-0.094 0.009,-0.188 0.013,-0.283 0.061,-0.194 0.181,-0.342 0.362,-0.446 0.325,-0.196 0.737,-0.232 1.108,-0.196 0.44,0.041 0.882,0.191 1.246,0.439 0.072,0.062 0.142,0.122 0.215,0.183 0.439,0.282 0.819,0.697 0.613,1.146 C 3.254,1.164 3.319,2.112 3.328,3.107 3.333,3.915 2.517,4.158 1.827,4.097 1.219,4.043 0,3.607 -0.004,2.817 -0.011,1.981 -0.065,1.119 0.088,0.295 0.047,0.203 0.023,0.097 0,0" /></g><g
           transform="translate(80.2778,1.7451)"
           id="g48"><path
             id="path50"
             style="fill:#000000;fill-opacity:1;fill-rule:nonzero;stroke:none"
             d="m 0,0 c -1.558,0.585 -3.283,0.615 -4.851,0.787 -1.602,0.17 -3.245,0.41 -4.883,0.563 -1.637,-0.053 -3.31,-0.028 -4.972,-0.129 l -4.88,-0.268 C -26.073,0.664 -32.585,0.7 -39.103,0.846 c -6.516,0.123 -13.044,0.476 -19.629,0.453 -3.289,-0.008 -6.566,-0.099 -9.863,-0.25 -1.632,-0.283 -3.239,-0.501 -4.904,-0.913 -1.615,-0.4 -3.145,-0.907 -4.794,-1.048 1.623,-0.362 3.341,-0.292 4.962,-0.297 1.579,-0.01 3.243,-0.143 4.872,-0.231 3.229,0.171 6.487,0.246 9.733,0.257 6.488,0.025 13.015,-0.329 19.566,-0.451 6.548,-0.146 13.114,-0.185 19.682,0.111 l 4.908,0.268 c 1.602,0.071 3.198,0.127 4.829,0.067 1.628,0.149 3.253,0.331 4.918,0.533 1.664,0.238 3.219,0.627 4.854,0.509 l 0.074,-0.006 0.006,0.054 C 0.133,0.08 0.071,0.226 0.071,0.382 0.036,0.254 0.031,0.117 0,0" /></g></g></g></g></svg>