<?xml version="1.0" encoding="UTF-8" standalone="no"?>
<svg
   xmlns:dc="http://purl.org/dc/elements/1.1/"
   xmlns:cc="http://creativecommons.org/ns#"
   xmlns:rdf="http://www.w3.org/1999/02/22-rdf-syntax-ns#"
   xmlns:svg="http://www.w3.org/2000/svg"
   xmlns="http://www.w3.org/2000/svg"
   viewBox="0 0 149.85201 61.449867"
   height="61.449867"
   width="149.85201"
   xml:space="preserve"
   id="svg2"
   version="1.1"><metadata
     id="metadata8"><rdf:RDF><cc:Work
         rdf:about=""><dc:format>image/svg+xml</dc:format><dc:type
           rdf:resource="http://purl.org/dc/dcmitype/StillImage" /></cc:Work></rdf:RDF></metadata><defs
     id="defs6"><clipPath
       id="clipPath18"
       clipPathUnits="userSpaceOnUse"><path
         id="path16"
         d="M 0,46.087 H 112.389 V 0 H 0 Z" /></clipPath></defs><g
     transform="matrix(1.3333333,0,0,-1.3333333,0,61.449867)"
     id="g10"><g
       id="g12"><g
         clip-path="url(#clipPath18)"
         id="g14"><g
           transform="translate(110.2275,4.207)"
           id="g20"><path
             id="path22"
             style="fill:#000000;fill-opacity:1;fill-rule:nonzero;stroke:none"
             d="m 0,0 c 4.394,-0.868 0.843,35.858 0.147,38.311 -1.96,6.569 -26.676,2.143 -32.179,1.717 -12.723,-0.987 -25.189,0.96 -37.612,0.376 -6.205,-0.293 -34.853,1.813 -37.519,-1.987 -5.048,-7.207 -2.652,-25.797 -1.277,-35.075 -4.043,-0.779 2.308,-4.155 3.137,-4.898 6.315,-2.192 16.359,0.219 23.008,-0.395 15.434,-1.472 31.797,2.194 47.275,0.955 4.497,-1.144 9.604,-1.019 14.224,-1.239 C -17.382,-7.808 -1.132,0.226 0,0 -0.101,0.02 0.507,-0.101 0,0" /></g><g
           transform="translate(26.0586,21.6777)"
           id="g24"><path
             id="path26"
             style="fill:#ffffff;fill-opacity:1;fill-rule:nonzero;stroke:none"
             d="m 0,0 c -0.079,2.546 -0.484,5.074 -0.451,7.624 0.027,2.064 0.37,4.185 -0.341,6.164 0.044,0.224 0.091,0.448 0.132,0.674 0.184,0.992 -3.103,0.467 -3.619,-0.44 -0.325,-0.266 -0.492,-0.584 -0.354,-0.908 0.034,-0.081 0.065,-0.164 0.096,-0.247 C -5.16,9.827 -6.027,6.882 -7.024,3.936 -7.407,2.808 -7.867,1.707 -8.256,0.582 c -0.554,1.049 -1.111,2.084 -1.56,3.206 -1.303,3.257 -2.479,6.55 -4.069,9.685 0.181,1.451 -3.039,1.298 -3.674,-0.031 -0.767,-1.607 -0.668,-3.229 -0.415,-4.948 0.285,-1.938 0.334,-3.842 0.358,-5.8 0.045,-3.771 0.34,-7.537 0.396,-11.31 -0.335,-0.372 -0.438,-0.835 -0.087,-1.305 0.154,-0.203 0.344,-0.362 0.542,-0.52 0.859,-0.687 3.323,-0.101 3.318,1.207 -0.013,3.911 -0.295,7.815 -0.399,11.726 -0.01,0.383 -0.016,0.766 -0.022,1.15 0.055,-0.138 0.108,-0.276 0.163,-0.412 0.607,-1.522 1.243,-3.001 2.073,-4.416 0.823,-1.401 1.236,-2.908 1.711,-4.437 -0.179,-0.206 -0.287,-0.44 -0.221,-0.674 -0.037,-0.169 0.067,-0.275 0.239,-0.342 0.606,-0.518 1.747,-0.26 2.381,0.008 0.272,0.114 0.532,0.247 0.784,0.402 0.327,0.202 0.838,0.644 0.691,1.099 -0.028,0.089 -0.056,0.176 -0.083,0.265 0.447,1.204 0.674,2.456 0.917,3.727 0.259,1.357 0.742,2.64 1.23,3.925 0.048,-0.588 0.1,-1.177 0.147,-1.763 0.193,-2.421 0.031,-4.811 0.008,-7.236 -0.009,-0.803 0.05,-1.55 0.207,-2.337 0.064,-0.324 0.348,-1.714 0.267,-1.79 -0.581,-0.535 -0.413,-1.192 0.365,-1.363 0.868,-0.191 1.975,0.1 2.629,0.705 1.137,1.05 0.599,2.699 0.342,4.024 C -0.451,-4.752 0.07,-2.264 0,0" /></g><g
           transform="translate(33.9951,21.0352)"
           id="g28"><path
             id="path30"
             style="fill:#ffffff;fill-opacity:1;fill-rule:nonzero;stroke:none"
             d="m 0,0 c -0.069,1.888 -0.725,3.666 -0.734,5.573 -0.011,2.188 0.172,4.358 -0.147,6.534 -0.101,0.689 -3.848,-0.094 -3.717,-0.996 0.293,-2.002 0.187,-4.013 0.151,-6.029 -0.035,-1.941 0.444,-3.699 0.694,-5.603 0.254,-1.95 -0.081,-3.945 0.141,-5.897 0.102,-0.913 0.712,-2.603 0.084,-3.398 -0.399,-0.505 1.394,-0.323 1.474,-0.31 0.729,0.136 1.701,0.372 2.186,0.987 0.62,0.785 0.186,2.3 0.051,3.185 C -0.118,-3.998 0.074,-1.971 0,0" /></g><g
           transform="translate(49.4922,24.1875)"
           id="g32"><path
             id="path34"
             style="fill:#ffffff;fill-opacity:1;fill-rule:nonzero;stroke:none"
             d="m 0,0 c -1.957,2.641 -5.589,0.739 -8.125,1.46 -1.308,0.373 -1.323,2.156 -1.319,3.224 0.003,1.353 -0.109,2.592 -0.26,3.935 -0.112,0.998 -0.023,2.012 0.708,2.755 0.135,0.137 0.815,0.318 0.768,0.322 0.335,0.058 0.643,0.072 1.013,0.088 1.469,0.063 4.377,-0.221 3.815,-2.357 -0.253,-0.958 3.412,-0.409 3.679,0.605 1.151,4.364 -6.914,3.526 -9.192,2.921 -2.097,-0.557 -4.411,-1.751 -4.531,-4.174 -0.058,-1.156 0.257,-2.258 0.309,-3.404 0.057,-1.319 -0.189,-2.635 0.273,-3.907 1.027,-2.831 5.238,-1.495 7.381,-1.656 3.649,-0.272 2.56,-5.191 2.607,-7.481 0.025,-1.224 1.122,-3.255 0.201,-4.278 -0.566,-0.627 -1.881,-0.664 -2.649,-0.729 -0.773,-0.064 -2.089,-0.296 -2.604,0.439 -0.942,1.344 0.088,3.605 -0.114,5.146 -0.114,0.879 -3.858,0.091 -3.717,-0.995 0.325,-2.492 -1.328,-5.83 2.279,-6.258 2.318,-0.275 4.926,0.153 7.118,0.881 1.135,0.376 2.188,0.894 3.077,1.701 0.982,0.892 0.658,2.228 0.396,3.366 C 0.471,-5.628 1.807,-2.44 0,0" /></g><g
           transform="translate(65.9336,24.3657)"
           id="g36"><path
             id="path38"
             style="fill:#ffffff;fill-opacity:1;fill-rule:nonzero;stroke:none"
             d="m 0,0 c -0.114,3.584 -0.653,7.129 -0.669,10.719 -0.007,1.871 -3.762,1.239 -3.754,-0.324 0.014,-3.425 0.472,-6.801 0.646,-10.216 0.004,-0.068 0.007,-0.138 0.011,-0.209 -1.849,0.017 -3.699,-0.169 -5.552,-0.233 0.191,4.396 -0.58,8.756 -0.411,13.149 0.02,0.553 -3.677,0.086 -3.718,-0.995 -0.162,-4.247 0.557,-8.461 0.43,-12.709 -0.061,-2.026 -0.233,-4.046 -0.247,-6.074 -0.007,-1.039 0.163,-2.074 0.312,-3.098 0.138,-0.947 0.459,-2.212 0.172,-3.149 -0.223,-0.732 3.38,-0.276 3.666,0.659 0.515,1.687 -0.211,3.834 -0.383,5.541 -0.167,1.636 -0.039,3.319 0.078,4.981 1.925,0.123 3.852,0.281 5.77,0.01 0.084,-1.307 0.185,-2.613 0.304,-3.924 0.101,-1.098 0.171,-2.194 0.187,-3.297 0.015,-0.966 0.135,-2.368 -0.21,-3.283 -0.734,-1.953 2.99,-1.792 3.533,-0.346 0.667,1.775 0.477,3.984 0.363,5.849 C 0.385,-4.628 0.074,-2.322 0,0" /></g><g
           transform="translate(82.002,20.1201)"
           id="g40"><path
             id="path42"
             style="fill:#ffffff;fill-opacity:1;fill-rule:nonzero;stroke:none"
             d="m 0,0 c -0.892,2.617 -2.252,4.913 -3.431,7.399 0.951,1.85 1.915,3.7 2.783,5.588 0.788,1.715 1.373,3.624 2.921,4.833 0.545,0.424 0.523,0.849 -0.243,0.902 -0.83,0.058 -1.958,-0.181 -2.629,-0.704 -1.408,-1.099 -2.3,-2.433 -3.035,-4.05 -0.885,-1.946 -1.801,-3.857 -2.764,-5.765 -0.07,-0.14 -0.141,-0.28 -0.213,-0.421 -0.465,-0.3 -0.744,-0.723 -0.607,-1.201 -0.75,-1.484 -1.517,-2.959 -2.371,-4.375 -0.283,5.25 -0.905,10.496 -1.093,15.752 -0.041,1.205 -3.767,0.455 -3.714,-0.996 0.23,-6.517 1.155,-13.021 1.22,-19.536 -0.016,-0.017 -0.031,-0.033 -0.047,-0.048 -0.285,-0.293 -0.178,-0.469 0.051,-0.571 0.002,-1.661 -0.057,-3.323 -0.199,-4.986 -0.448,-0.709 0.439,-1.081 1.029,-1.081 h 0.092 c 0.701,0 2.49,0.331 2.579,1.294 0.182,1.992 0.237,3.982 0.221,5.971 1.508,1.627 2.741,3.444 3.848,5.348 0.72,-1.406 1.406,-2.822 1.887,-4.35 0.817,-2.602 2.182,-4.991 2.971,-7.605 0.517,-1.712 4.229,-0.701 3.717,0.997 C 2.183,-4.993 0.881,-2.58 0,0" /></g><g
           transform="translate(90.4346,24.6606)"
           id="g44"><path
             id="path46"
             style="fill:#ffffff;fill-opacity:1;fill-rule:nonzero;stroke:none"
             d="m 0,0 c -0.099,1.183 -0.207,2.364 -0.288,3.552 -0.15,2.212 0.111,5.299 2.172,6.642 0.553,0.36 1.59,0.298 2.235,0.416 0.922,0.165 1.857,0.369 2.685,-0.181 C 7.952,9.667 7.669,6.958 7.667,5.809 7.665,3.905 7.865,2.012 7.962,0.111 7.438,0.059 6.906,0.027 6.365,0.039 4.195,0.091 2.054,0.432 0,0 m 13.872,-0.143 c -0.199,0.79 -1.302,0.807 -2.156,0.731 -0.012,0.318 -0.02,0.637 -0.033,0.956 -0.12,2.525 -0.159,5.104 -0.371,7.622 -0.199,2.331 -1.505,3.167 -3.77,3.08 C 5.249,12.159 2.58,11.746 0.441,10.915 -2.033,9.953 -3.41,8.13 -3.885,5.523 c -0.522,-2.859 0.227,-5.9 0.354,-8.774 0.146,-3.325 0.062,-6.656 0.058,-9.981 0,-0.545 3.717,-0.03 3.717,0.996 0.004,2.633 0.041,5.268 0,7.901 -0.013,0.777 -0.049,1.548 -0.097,2.318 1.3,0.563 3.499,-0.011 4.792,-0.133 1.052,-0.1 2.059,0.155 3.08,0.275 0.019,-2.193 0.1,-4.4 0.191,-6.59 0.047,-1.122 0.453,-3.351 -0.335,-4.28 -0.414,-0.491 1.405,-0.326 1.475,-0.314 0.753,0.139 1.671,0.381 2.185,0.988 0.902,1.062 0.433,3.597 0.381,4.863 -0.074,1.815 -0.097,3.63 -0.135,5.444 1.096,0.143 2.295,0.814 2.091,1.621" /></g><g
           transform="translate(30.7783,35.7178)"
           id="g48"><path
             id="path50"
             style="fill:#ffffff;fill-opacity:1;fill-rule:nonzero;stroke:none"
             d="M 0,0 C 0.495,0.047 0.992,0.215 1.401,0.497 1.483,0.565 1.563,0.635 1.646,0.703 2.139,1.021 2.566,1.488 2.336,1.994 1.857,3.043 1.933,4.111 1.941,5.234 1.947,6.143 1.027,6.417 0.251,6.349 -0.435,6.288 -1.807,5.797 -1.812,4.906 -1.819,3.964 -1.88,2.993 -1.708,2.065 -1.755,1.959 -1.78,1.839 -1.807,1.729 -1.86,1.528 -1.792,1.331 -1.672,1.17 -1.672,1.127 -1.67,1.085 -1.67,1.042 -1.666,0.937 -1.66,0.83 -1.656,0.725 -1.586,0.504 -1.451,0.337 -1.249,0.222 -0.882,0 -0.417,-0.041 0,0" /></g></g></g></g></svg>