<svg xmlns="http://www.w3.org/2000/svg" height="61.45" width="149.852">
  <defs>
    <clipPath id="a" clipPathUnits="userSpaceOnUse">
      <path d="M0 46.087h112.389V0H0z"/>
    </clipPath>
  </defs>
  <g clip-path="url(#a)" transform="matrix(1.33333 0 0 -1.33333 0 61.45)">
    <path d="M110.228 4.207c4.394-.868.843 35.858.147 38.311-1.96 6.569-26.676 2.143-32.18 1.717-12.722-.987-25.188.96-37.611.376-6.205-.293-34.853 1.813-37.52-1.987C-1.982 35.417.414 16.827 1.789 7.549c-4.043-.779 2.308-4.155 3.137-4.898 6.315-2.192 16.359.219 23.008-.395C43.367.784 59.73 4.45 75.208 3.211c4.497-1.144 9.604-1.019 14.224-1.239 3.414-5.573 19.664 2.461 20.796 2.235-.101.02.507-.101 0 0"/>
    <path d="M26.059 21.678c-.08 2.546-.484 5.074-.451 7.624.027 2.064.37 4.185-.341 6.164.044.224.09.448.132.674.184.992-3.103.467-3.62-.44-.324-.266-.491-.584-.353-.908.034-.081.065-.164.096-.247-.623-3.04-1.49-5.985-2.487-8.931-.383-1.128-.843-2.23-1.232-3.354-.554 1.049-1.111 2.084-1.56 3.206-1.303 3.257-2.48 6.55-4.07 9.685.182 1.45-3.038 1.298-3.673-.031-.767-1.607-.668-3.23-.415-4.948.285-1.938.334-3.842.358-5.8.045-3.771.34-7.537.396-11.31-.335-.372-.438-.835-.087-1.305a3 3 0 01.542-.52c.859-.687 3.323-.101 3.318 1.207-.013 3.91-.295 7.815-.4 11.726-.01.383-.015.766-.021 1.15.055-.138.108-.276.163-.412.607-1.522 1.243-3.001 2.073-4.416.823-1.401 1.236-2.908 1.71-4.437-.178-.206-.286-.44-.22-.674-.037-.17.067-.275.239-.342.606-.518 1.747-.26 2.38.008.273.114.533.247.785.402.327.202.838.644.69 1.099l-.082.265c.447 1.204.674 2.456.917 3.727.259 1.357.742 2.64 1.23 3.925.048-.588.1-1.177.147-1.763.193-2.421.03-4.811.008-7.236-.01-.803.05-1.55.207-2.337.064-.324.348-1.714.267-1.79-.581-.535-.413-1.192.365-1.363.868-.191 1.975.1 2.629.705 1.137 1.05.599 2.699.342 4.024-.433 2.22.088 4.709.018 6.973M33.995 21.035c-.069 1.888-.725 3.666-.734 5.573-.01 2.188.172 4.358-.147 6.534-.1.69-3.848-.094-3.717-.996.293-2.002.187-4.013.151-6.029-.035-1.94.444-3.699.694-5.603.254-1.95-.08-3.945.141-5.897.102-.913.712-2.603.084-3.398-.399-.505 1.394-.323 1.474-.31.73.136 1.701.372 2.186.987.62.785.186 2.3.051 3.185-.3 1.956-.109 3.983-.183 5.954M49.492 24.188c-1.957 2.64-5.589.739-8.125 1.46-1.308.373-1.323 2.156-1.319 3.224.003 1.353-.109 2.592-.26 3.935-.112.997-.023 2.011.708 2.754.135.138.815.319.768.323.335.058.643.072 1.013.088 1.47.063 4.377-.221 3.815-2.357-.253-.958 3.412-.41 3.68.605 1.15 4.364-6.915 3.526-9.193 2.92-2.097-.556-4.41-1.75-4.53-4.173-.059-1.156.256-2.258.308-3.404.057-1.32-.189-2.635.273-3.907 1.027-2.831 5.238-1.495 7.381-1.656 3.65-.272 2.56-5.191 2.607-7.481.025-1.224 1.122-3.255.201-4.278-.566-.627-1.88-.664-2.649-.73-.773-.063-2.089-.295-2.604.44-.942 1.344.088 3.605-.114 5.146-.114.879-3.858.09-3.717-.995.325-2.492-1.328-5.83 2.28-6.258 2.317-.275 4.925.153 7.117.88 1.135.377 2.188.895 3.077 1.702.982.892.658 2.228.396 3.366-.642 2.768.694 5.956-1.113 8.396M65.934 24.366c-.114 3.584-.653 7.129-.67 10.719-.006 1.87-3.761 1.239-3.753-.324.014-3.425.472-6.801.646-10.216l.01-.21c-1.848.018-3.698-.168-5.551-.232.19 4.396-.58 8.756-.411 13.149.02.553-3.677.086-3.718-.995-.162-4.247.557-8.461.43-12.71-.061-2.025-.233-4.045-.247-6.073-.007-1.04.163-2.074.312-3.098.138-.947.459-2.212.172-3.15-.223-.731 3.38-.275 3.666.66.515 1.687-.211 3.834-.383 5.54-.167 1.637-.04 3.32.078 4.982 1.925.123 3.852.28 5.77.01.084-1.307.185-2.613.304-3.924.1-1.098.17-2.194.187-3.297.015-.966.135-2.368-.21-3.283-.734-1.953 2.99-1.792 3.533-.346.667 1.775.477 3.984.363 5.849-.143 2.32-.454 4.627-.528 6.949M82.002 20.12c-.892 2.617-2.252 4.913-3.431 7.4.951 1.85 1.915 3.7 2.783 5.587.788 1.715 1.373 3.624 2.921 4.833.545.424.523.85-.243.902-.83.058-1.958-.18-2.629-.704-1.408-1.099-2.3-2.433-3.035-4.05a157.054 157.054 0 00-2.977-6.186c-.465-.3-.744-.723-.607-1.2-.75-1.485-1.517-2.96-2.371-4.376-.283 5.25-.905 10.496-1.093 15.752-.041 1.205-3.767.455-3.714-.996.23-6.517 1.155-13.02 1.22-19.536l-.047-.048c-.285-.293-.178-.469.051-.57a57.743 57.743 0 00-.199-4.987c-.448-.709.439-1.08 1.029-1.08h.092c.701 0 2.49.33 2.579 1.293.182 1.992.237 3.982.221 5.971 1.508 1.627 2.741 3.444 3.848 5.348.72-1.406 1.406-2.822 1.887-4.35.817-2.602 2.182-4.99 2.971-7.605.517-1.712 4.229-.7 3.717.997-.79 2.612-2.092 5.025-2.973 7.605M90.435 24.66c-.1 1.184-.207 2.365-.288 3.553-.15 2.212.11 5.299 2.172 6.642.553.36 1.59.298 2.235.416.922.165 1.857.369 2.685-.181 1.148-.762.865-3.471.863-4.62-.002-1.904.198-3.797.295-5.698A13.178 13.178 0 0096.8 24.7c-2.17.052-4.311.393-6.365-.04m13.872-.142c-.2.79-1.302.807-2.156.73-.012.319-.02.638-.033.957-.12 2.525-.16 5.104-.371 7.622-.2 2.33-1.505 3.167-3.77 3.08-2.293-.087-4.962-.5-7.101-1.331-2.474-.962-3.851-2.785-4.326-5.392-.522-2.86.227-5.9.354-8.774.146-3.325.062-6.656.058-9.981 0-.545 3.717-.03 3.717.996.004 2.633.04 5.268 0 7.9a50.888 50.888 0 01-.097 2.319c1.3.563 3.499-.011 4.792-.133 1.052-.1 2.059.155 3.08.275.019-2.193.1-4.4.19-6.59.048-1.122.454-3.351-.334-4.28-.414-.491 1.405-.326 1.475-.314.753.139 1.67.38 2.185.988.902 1.062.433 3.597.38 4.863-.073 1.815-.096 3.63-.134 5.444 1.096.143 2.295.814 2.09 1.62M30.778 35.718a2.99 2.99 0 011.401.497c.082.068.162.138.245.206.493.318.92.785.69 1.29-.479 1.05-.403 2.118-.395 3.24.006.91-.914 1.184-1.69 1.116-.686-.061-2.058-.552-2.063-1.443-.007-.942-.068-1.913.104-2.841-.047-.106-.072-.226-.099-.336-.053-.201.015-.398.135-.56l.002-.127.014-.317a.856.856 0 01.407-.503c.367-.222.832-.263 1.25-.222" fill="#fff"/>
  </g>
</svg>
