<svg xmlns="http://www.w3.org/2000/svg" viewBox="0 0 197.4 96.944" height="42" width="149">
  <defs>
    <clipPath id="a" clipPathUnits="userSpaceOnUse">
      <path d="M0 72.708h148.05V0H0z"/>
    </clipPath>
  </defs>
  <g clip-path="url(#a)" transform="matrix(1.33333 0 0 -1.33333 0 96.944)">
    <path d="M87.835 56.356a1.13 1.13 0 01-.134-.123c.072.312.149.623.229.934h.11c-.068-.27-.139-.541-.206-.811m55.33-15.046c-1.48-1.055-3.053-1.942-4.656-2.777.036 1.747-.12 3.465-.592 5.127.051.333.103.667.146 1.002.375 3.005.656 7.122-2.004 9.224-.334.265-1.248.035-1.922-.274a4.64 4.64 0 01-.496.415c-.082.242-.159.487-.229.735-.035.12-.168.188-.36.215.285.383.262.818-.419 1.092a18.59 18.59 0 01-1.143.413c-.067.072-.127.096-.172.058l-.005-.003c-.939.3-1.894.533-2.86.705.138.331.397.813.552 1 .132.157.28.3.43.439.061.057.124.111.187.165l.07.061.083.062c.38.288.846.865.221 1.202-.57.307-1.508.142-2.008-.238-.862-.655-1.625-1.379-2.09-2.361-2.01.169-4.05.155-6.08.078a.757.757 0 01.141.25c.184.585-.908.525-1.187.488a924.13 924.13 0 00-4.689-.604c1.367 3.773 3.083 8.578 1.001 12.264-1.189 2.106-3.906 2.579-6.098 2.652-2.436.081-4.898-.461-7.036-1.636-4.762-2.618-7.11-7.71-8.21-13.138-.497.657-2.3.425-2.644-.468-.125-.32-.23-.645-.328-.972a1.446 1.446 0 01-.345-.637c-.015-.056-.026-.111-.04-.167l-.197-.007c.02.104.041.207.064.31.147.109.247.232.28.366.574 2.296 1.156 4.588 1.95 6.82.267.756-2.513.399-2.806-.426a51.161 51.161 0 01-1.119-3.622c-.166-.078-.358-.187-.426-.326-.018-.034-.03-.07-.047-.104-.107.093-.27.151-.467.178v.959c0 .432-2.822.034-2.822-.757v-1.568a2.363 2.363 0 01-.473-.266c-.062-.057-.127-.114-.189-.172a.377.377 0 01-.12-.245c-.007-.026-.013-.053-.023-.078-.017-.022-.032-.046-.052-.066-.125-.128-.184-.335-.027-.467.191-.16.508-.167.738-.159.048.002.097.007.146.011v-.468c-.227.001-.45.003-.675.006l-.41.051c-.022.385-.677.452-1.352.328a.61.61 0 010 .148 23.606 23.606 0 00-.23 1.79c.237.079.472.18.681.313.158.102.327.224.327.43v.194c0 .18-.41.204-.499.208a2.84 2.84 0 01-.589-.041c-.075 1.305-.08 2.615-.08 3.925 0 .84-2.825.315-2.823-.757 0-1.786.007-3.57.192-5.343a2.495 2.495 0 01-.27-.009v1.532c0 1.045-1.297 1.22-2.147.809.313.262.488.622.37 1.039-.403 1.414-.778 2.827-.974 4.287-.188 1.394-3.017.677-2.824-.756.196-1.46.57-2.873.975-4.287.235-.828 1.338-.889 2.103-.51-.226-.196-.373-.452-.373-.76v-.63c-.188.098-.438.16-.769.16-1.057 0-1.67-.885-1.4-1.477-.164.027-.327.054-.49.083-.383 1.248-.687 2.514-.715 3.83-.02.942-1.27 1.049-2.108.672a.571.571 0 01-.049.168c-.385.804-.567 1.674-.78 2.533-.332 1.35-3.158.601-2.823-.756.157-.638.3-1.281.52-1.898l-.057-.014a2.651 2.651 0 01-.854-.387c-.832-.079-1.828-.565-1.752-1.208.058-.478.131-.953.21-1.427-.547-.091-1.093-.177-1.64-.26a11.905 11.905 0 00-.618 2.443c-.13.924-1.555.854-2.332.26-.774 2.062-1.796 4.019-3.122 5.761-2.62 3.439-7.097 4.613-11.242 3.794-1.9-.376-3.735-1.184-5.043-2.646-1.21-1.353-1.352-3.089-1.17-4.805.158-1.493.61-4.005 1.584-5.976-.35.012-.709-.041-.949-.139a11.046 11.046 0 01-.833-.388 95.043 95.043 0 00-5.803.07c-4.179.194-8.3.86-12.497.742-.923-.026-1.534-.719-1.465-1.262-1.046-.502-1.733-1.315-2.143-2.287-1.732 1.15-3.479 2.266-5.335 3.211-.689.351-3.3-.707-2.285-1.224 1.84-.938 3.561-2.072 5.278-3.216.512-.341 1.32-.133 1.842.07.03.012.09.039.165.077-.306-1.44-.157-3.067.241-4.493a.565.565 0 01.172-.27 9.289 9.289 0 01-.007-1.015c0-.055 0-.109-.002-.165-.4-.189-.712-.48-.76-.839a37.38 37.38 0 01-.305-4.229c-.272-.199-.462-.469-.485-.798-.233-3.345.037-6.651.467-9.95.185-2.694.69-5.344 1.172-7.998.058-.416.113-.832.167-1.25-.265-1.133-.398-2.395-.237-3.482-.88-.171-1.729-.866-1.233-1.617.765-1.158 1.644-2.019 2.606-2.649-.633.103-1.42-.11-1.87-.555-.819-.809-1.716-1.531-2.534-2.339-.429-.424-.314-.935.29-1.078.65-.155 1.515.059 1.996.535.817.808 1.715 1.531 2.533 2.339.248.245.308.518.204.73 3.21-1.734 7.235-1.269 11.114-.942-.882-1.589-1.542-3.272-2.17-4.997-.262-.719 2.507-.373 2.801.435.61 1.676 1.237 3.344 2.103 4.896 3.741-.117 7.48-.122 11.215-.051.15-.182.416-.305.746-.336 3.27-.311 6.49.096 9.688.699 4.79.229 9.577.525 14.366.809 7.527.187 15.056.347 22.587.319.1-.108.204-.214.314-.317.272-.256.621-.345.98-.33.061-.009.128-.016.198-.019a69.72 69.72 0 002.141-.145c.156-.04.341-.059.56-.046h.004c.781-.066 1.563-.141 2.346-.208.172-.214.497-.342.792-.36 3.803-.25 7.612-.523 11.423-.703.14-.23.537-.34.82-.344 7.066-.06 15.277-2.804 21.56 1.736.5.361.271.877-.266.984a1.897 1.897 0 01-.325.034c.007.016.017.03.022.045a60.672 60.672 0 012.944 8.552c.366.198.633.494.647.86.05 1.189.187 2.406.371 3.638.166.885.313 1.772.441 2.661.387 2.169.806 4.367 1.018 6.541 2.28 1.147 4.538 2.335 6.622 3.819 1.566 1.117-.784 1.883-1.832 1.137"/>
    <path d="M63.26 60.081c.128-.196.563-.217.754-.217.377 0 .759.083 1.106.225.404.166 1.1.56.77 1.07-.363.562-.61 1.19-.975 1.754-.127.196-.562.217-.754.217a2.914 2.914 0 01-1.105-.226c-.404-.165-1.101-.558-.77-1.069.363-.562.61-1.19.975-1.754M20.683 61.8c.216-.647 1.11-.647 1.648-.504.472.127 1.39.616 1.175 1.26-.208.624-.433 1.293-.893 1.78-.48.507-1.324.417-1.902.152-.412-.191-1.177-.84-.695-1.35.382-.405.478-.772.667-1.338M30.66 58.812c.843 0 3.073 1.276 1.186 1.276-.843 0-3.074-1.276-1.186-1.276M122.562 60.433c.346-.072.717-.032 1.055.06.32.085.699.233.941.476.355.355.728.73.961 1.178.105.198.174.4-.004.587-.188.197-.508.245-.764.251a2.69 2.69 0 01-1.105-.22c-.252-.106-.621-.294-.756-.553a3.08 3.08 0 00-.402-.572l-.196-.199c-.158-.158-.345-.365-.279-.614.064-.24.334-.349.549-.394M135.86 55.015c.632.061 1.396.246 1.895.662 1.319 1.102 2.602 2.248 3.623 3.642.288.393-1.05.243-1.12.23-.532-.099-1.315-.276-1.66-.746-.948-1.296-2.163-2.349-3.39-3.374-.498-.415.44-.434.653-.414M146.74 27.938h-4.872c-.616 0-1.476-.467-1.556-1.14-.09-.737.754-.921 1.304-.921h4.87c.617 0 1.476.469 1.558 1.139.09.739-.754.922-1.304.922M57.02 11.923c-.498-.08-1.412-.296-1.639-.831a34.581 34.581 0 01-1.364-3.897c-.21-.733 2.571-.333 2.798.452a34.56 34.56 0 001.364 3.896c.221.527-.967.412-1.159.38M61.602 9.332a3.893 3.893 0 01-1.03-.152 3.87 3.87 0 01-.967-.383c-.141-.084-.338-.199-.338-.39a3.075 3.075 0 00-.021-.346.755.755 0 00-.113-.272c-.064-.082-.108-.18.018-.253.196-.114.502-.083.712-.061.374.037.745.127 1.099.252.243.084.613.207.795.406.149.164.24.286.284.501.035.177.05.348.05.529-.001.166-.422.168-.49.169M116.652 5.656c-.354.686-3.043-.33-2.823-.758.844-1.637 1.938-3.12 2.923-4.676.435-.689 3.04.414 2.823.756-.983 1.555-2.08 3.04-2.923 4.678M120.744 7.994c-.294.588-1.066.563-1.624.414-.351-.094-1.485-.598-1.2-1.17l1.17-2.34c.294-.588 1.068-.56 1.624-.414.35.095 1.486.6 1.199 1.172l-1.17 2.338M5.668 29.602c-1.486-.358-3.006-.57-4.481-.975-.537-.146-1.342-.64-1.16-1.318.18-.675 1.128-.71 1.664-.561 1.476.403 2.995.615 4.482.975.54.129 1.338.65 1.16 1.317-.185.685-1.124.693-1.665.562"/>
    <path d="M43.752 32.602c-.084 2.707-.515 5.396-.48 8.107.029 2.194.394 4.45-.362 6.555.047.238.097.477.14.716.196 1.056-3.3.497-3.848-.467-.347-.284-.524-.621-.378-.966.037-.087.07-.174.102-.262-.662-3.234-1.584-6.365-2.645-9.498-.406-1.2-.896-2.371-1.31-3.566-.587 1.114-1.18 2.215-1.658 3.408-1.386 3.464-2.636 6.966-4.326 10.3.192 1.543-3.232 1.38-3.907-.033-.816-1.71-.71-3.434-.442-5.262.303-2.06.356-4.086.381-6.167.048-4.011.361-8.015.421-12.027-.357-.397-.466-.89-.092-1.388.163-.217.365-.385.576-.554.913-.73 3.533-.107 3.528 1.284-.014 4.16-.314 8.31-.424 12.47-.01.408-.018.814-.024 1.223l.173-.438c.646-1.62 1.322-3.191 2.205-4.697.876-1.49 1.315-3.092 1.82-4.718-.19-.22-.306-.467-.235-.715-.04-.182.071-.294.253-.364.645-.551 1.858-.277 2.532.007.29.122.566.263.834.427.348.215.891.687.735 1.17l-.088.28c.475 1.282.716 2.613.975 3.966.275 1.44.79 2.806 1.307 4.172.053-.625.107-1.25.157-1.873.206-2.576.033-5.117.008-7.695-.009-.854.054-1.65.221-2.485.068-.345.37-1.824.283-1.904-.617-.57-.438-1.268.39-1.45.922-.202 2.1.106 2.794.75 1.21 1.116.638 2.87.364 4.28-.46 2.36.093 5.008.02 7.414M52.191 31.919c-.074 2.007-.77 3.897-.78 5.925-.012 2.327.182 4.635-.157 6.949-.107.732-4.093-.101-3.953-1.06.312-2.128.2-4.267.161-6.411-.037-2.063.472-3.933.737-5.958.271-2.073-.085-4.195.15-6.271.11-.971.758-2.768.09-3.612-.424-.538 1.482-.344 1.568-.331.775.144 1.81.396 2.324 1.049.66.835.198 2.448.054 3.387-.32 2.08-.115 4.236-.194 6.333M68.67 35.27c-2.08 2.808-5.943.786-8.64 1.553-1.39.397-1.407 2.293-1.403 3.428.004 1.439-.115 2.757-.276 4.185-.119 1.06-.024 2.14.753 2.93.143.146.866.339.817.342.356.062.683.077 1.077.093 1.562.068 4.654-.234 4.056-2.506-.269-1.02 3.63-.435 3.913.643 1.224 4.64-7.352 3.749-9.774 3.106-2.23-.591-4.692-1.861-4.819-4.438-.062-1.23.274-2.4.328-3.62.061-1.403-.2-2.801.291-4.154 1.092-3.01 5.57-1.59 7.85-1.761 3.88-.29 2.721-5.52 2.771-7.955.027-1.301 1.192-3.461.213-4.55-.6-.667-2-.706-2.817-.774-.82-.07-2.22-.315-2.768.465-1.002 1.43.093 3.834-.12 5.474-.123.934-4.105.097-3.954-1.06.346-2.65-1.412-6.198 2.424-6.653 2.464-.293 5.238.162 7.568.936 1.207.4 2.328.95 3.272 1.81 1.045.948.701 2.368.421 3.578-.682 2.944.74 6.333-1.183 8.928M86.154 35.459c-.121 3.812-.695 7.582-.711 11.4-.008 1.989-4 1.317-3.992-.346.015-3.641.5-7.232.687-10.863l.012-.222c-1.967.018-3.934-.179-5.904-.248.203 4.675-.617 9.311-.438 13.983.022.587-3.91.091-3.953-1.059-.172-4.516.593-8.997.457-13.514-.064-2.154-.247-4.303-.262-6.46-.008-1.105.173-2.204.332-3.293.147-1.008.488-2.353.183-3.349-.238-.779 3.594-.293 3.897.701.549 1.793-.224 4.077-.408 5.892-.177 1.74-.041 3.53.084 5.296 2.047.131 4.096.3 6.135.012.09-1.391.197-2.78.324-4.172.107-1.168.182-2.334.199-3.507.016-1.028.143-2.519-.223-3.492-.78-2.075 3.179-1.905 3.757-.368.71 1.887.507 4.237.386 6.22-.152 2.468-.482 4.92-.562 7.389M103.242 30.945c-.948 2.783-2.395 5.224-3.65 7.868 1.01 1.967 2.037 3.935 2.96 5.942.838 1.824 1.46 3.854 3.107 5.14.579.45.555.903-.26.96-.882.06-2.081-.195-2.794-.75-1.498-1.168-2.447-2.587-3.228-4.307a162.468 162.468 0 00-2.94-6.13c-.074-.149-.15-.298-.226-.448-.494-.318-.792-.769-.645-1.277-.8-1.578-1.614-3.146-2.521-4.653-.302 5.584-.963 11.162-1.161 16.751-.045 1.281-4.007.484-3.953-1.059.246-6.93 1.23-13.846 1.299-20.775l-.05-.05c-.302-.312-.19-.499.054-.608a61.45 61.45 0 00-.211-5.302c-.477-.752.467-1.15 1.094-1.15h.098c.746 0 2.648.354 2.742 1.377.193 2.118.254 4.234.234 6.35 1.605 1.73 2.916 3.662 4.093 5.685.766-1.494 1.495-3 2.007-4.625.868-2.765 2.32-5.307 3.159-8.086.55-1.822 4.497-.746 3.952 1.06-.84 2.776-2.224 5.344-3.16 8.087M112.207 35.773c-.103 1.258-.22 2.514-.305 3.777-.162 2.352.117 5.635 2.31 7.063.586.383 1.69.317 2.376.442.98.176 1.974.393 2.855-.192 1.221-.81.92-3.69.917-4.913-.001-2.025.212-4.038.315-6.058a13.82 13.82 0 00-1.699-.078c-2.307.056-4.584.418-6.769-.04m14.752-.152c-.212.84-1.385.857-2.292.776-.014.34-.022.678-.036 1.017-.127 2.686-.168 5.427-.396 8.105-.21 2.48-1.599 3.368-4.007 3.275-2.439-.092-5.278-.53-7.55-1.416-2.633-1.023-4.097-2.96-4.602-5.732-.556-3.04.241-6.275.377-9.33.155-3.536.066-7.079.062-10.615 0-.579 3.952-.032 3.953 1.06.004 2.8.043 5.601 0 8.401a52.98 52.98 0 01-.104 2.465c1.382.6 3.721-.012 5.097-.142 1.117-.106 2.188.166 3.272.294.022-2.333.11-4.679.205-7.009.05-1.193.481-3.562-.356-4.55-.44-.522 1.493-.348 1.567-.335.802.148 1.778.405 2.325 1.051.96 1.13.461 3.824.405 5.172-.079 1.93-.103 3.86-.144 5.79 1.166.151 2.442.864 2.224 1.723M48.77 47.531a3.193 3.193 0 011.49.53c.088.072.174.145.26.218.524.338.98.834.734 1.373-.508 1.115-.427 2.251-.42 3.445.007.966-.972 1.257-1.797 1.185-.728-.064-2.187-.586-2.193-1.534-.008-1.002-.073-2.034.11-3.02-.05-.113-.076-.24-.106-.358-.055-.214.017-.424.145-.595l.001-.135c.006-.113.012-.226.016-.338a.908.908 0 01.433-.535c.39-.236.884-.279 1.328-.236" fill="#fff"/>
  </g>
</svg>
